<svg xmlns="http://www.w3.org/2000/svg" xmlns:xlink="http://www.w3.org/1999/xlink" xml:space="preserve" width="369.07" height="326.589">
  <defs>
    <filter id="e" width="1.824" height="2.009" x="-.412" y="-.504" style="color-interpolation-filters:sRGB">
      <feGaussianBlur result="blur" stdDeviation="1.129"/>
      <feComposite in="SourceGraphic" in2="blur" operator="in" result="composite1"/>
      <feComposite in="composite1" in2="composite1" operator="in" result="fbSourceGraphic"/>
      <feColorMatrix in="fbSourceGraphic" result="fbSourceGraphicAlpha" values="0 0 0 -1 0 0 0 0 -1 0 0 0 0 -1 0 0 0 0 1 0"/>
      <feGaussianBlur in="fbSourceGraphic" result="blur" stdDeviation="1.129"/>
      <feComposite in="fbSourceGraphic" in2="blur" operator="in" result="composite1"/>
      <feComposite in="composite1" in2="composite1" operator="in" result="composite2"/>
    </filter>
    <filter id="n" width="1.275" height="1.271" x="-.138" y="-.135" style="color-interpolation-filters:sRGB">
      <feGaussianBlur result="blur" stdDeviation=".21"/>
      <feComposite in="SourceGraphic" in2="blur" operator="atop" result="composite1"/>
      <feComposite in2="composite1" operator="in" result="composite2"/>
      <feComposite in2="composite2" operator="in" result="fbSourceGraphic"/>
      <feColorMatrix in="fbSourceGraphic" result="fbSourceGraphicAlpha" values="0 0 0 -1 0 0 0 0 -1 0 0 0 0 -1 0 0 0 0 1 0"/>
      <feGaussianBlur in="fbSourceGraphic" result="blur" stdDeviation=".31"/>
      <feComposite in="fbSourceGraphic" in2="blur" operator="in" result="composite1"/>
      <feComposite in="composite1" in2="composite1" operator="in" result="fbSourceGraphic"/>
      <feColorMatrix in="fbSourceGraphic" result="fbSourceGraphicAlpha" values="0 0 0 -1 0 0 0 0 -1 0 0 0 0 -1 0 0 0 0 1 0"/>
      <feGaussianBlur in="fbSourceGraphic" result="blur" stdDeviation=".21"/>
      <feComposite in="fbSourceGraphic" in2="blur" operator="in" result="composite1"/>
      <feComposite in="composite1" in2="composite1" operator="in" result="composite2"/>
    </filter>
    <filter id="m" width="1.324" height="1.319" x="-.162" y="-.159" style="color-interpolation-filters:sRGB">
      <feGaussianBlur result="blur" stdDeviation=".21"/>
      <feComposite in="SourceGraphic" in2="blur" operator="atop" result="composite1"/>
      <feComposite in2="composite1" operator="in" result="composite2"/>
      <feComposite in2="composite2" operator="in" result="composite3"/>
    </filter>
    <filter id="o" width="1.233" height="1.232" x="-.117" y="-.116" style="color-interpolation-filters:sRGB">
      <feGaussianBlur result="blur" stdDeviation=".31"/>
      <feComposite in="SourceGraphic" in2="blur" operator="atop" result="composite1"/>
      <feComposite in2="composite1" operator="in" result="composite2"/>
      <feComposite in2="composite2" operator="in" result="composite3"/>
    </filter>
    <filter id="p" width="1.594" height="1.58" x="-.294" y="-.29" style="color-interpolation-filters:sRGB">
      <feGaussianBlur result="blur" stdDeviation=".31"/>
      <feComposite in="SourceGraphic" in2="blur" operator="atop" result="composite1"/>
      <feComposite in2="composite1" operator="in" result="composite2"/>
      <feComposite in2="composite2" operator="in" result="fbSourceGraphic"/>
      <feColorMatrix in="fbSourceGraphic" result="fbSourceGraphicAlpha" values="0 0 0 -1 0 0 0 0 -1 0 0 0 0 -1 0 0 0 0 1 0"/>
      <feGaussianBlur in="fbSourceGraphic" result="blur" stdDeviation=".21"/>
      <feComposite in="fbSourceGraphic" in2="blur" operator="atop" result="composite1"/>
      <feComposite in2="composite1" operator="in" result="composite2"/>
      <feComposite in2="composite2" operator="in" result="composite3"/>
    </filter>
    <filter id="r" width="1.221" height="1.222" x="-.11" y="-.111" style="color-interpolation-filters:sRGB">
      <feGaussianBlur result="blur" stdDeviation=".31"/>
      <feComposite in="SourceGraphic" in2="blur" operator="atop" result="composite1"/>
      <feComposite in2="composite1" operator="in" result="composite2"/>
      <feComposite in2="composite2" operator="in" result="composite3"/>
    </filter>
    <filter id="q" width="1.083" height="1.083" x="-.042" y="-.041" style="color-interpolation-filters:sRGB">
      <feGaussianBlur result="blur" stdDeviation=".31"/>
      <feComposite in="SourceGraphic" in2="blur" operator="atop" result="composite1"/>
      <feComposite in2="composite1" operator="in" result="composite2"/>
      <feComposite in2="composite2" operator="in" result="composite3"/>
    </filter>
    <filter id="s" width="1.512" height="1.476" x="-.256" y="-.238" style="color-interpolation-filters:sRGB">
      <feGaussianBlur result="blur" stdDeviation=".31"/>
      <feComposite in="SourceGraphic" in2="blur" operator="atop" result="composite1"/>
      <feComposite in2="composite1" operator="in" result="composite2"/>
      <feComposite in2="composite2" operator="in" result="composite3"/>
    </filter>
    <filter id="h" width="1.421" height="1.374" x="-.21" y="-.187" style="color-interpolation-filters:sRGB">
      <feGaussianBlur result="blur" stdDeviation=".31"/>
      <feComposite in="SourceGraphic" in2="blur" operator="atop" result="composite1"/>
      <feComposite in2="composite1" operator="in" result="composite2"/>
      <feComposite in2="composite2" operator="in" result="composite3"/>
    </filter>
    <filter id="f" width="1.448" height="1.303" x="-.221" y="-.152" style="color-interpolation-filters:sRGB">
      <feGaussianBlur result="blur" stdDeviation=".21"/>
      <feComposite in="SourceGraphic" in2="blur" operator="atop" result="composite1"/>
      <feComposite in2="composite1" operator="in" result="composite2"/>
      <feComposite in2="composite2" operator="in" result="composite3"/>
    </filter>
    <filter id="g" width="1.264" height="1.264" x="-.132" y="-.132" style="color-interpolation-filters:sRGB">
      <feGaussianBlur result="blur" stdDeviation=".21"/>
      <feComposite in="SourceGraphic" in2="blur" operator="atop" result="composite1"/>
      <feComposite in2="composite1" operator="in" result="composite2"/>
      <feComposite in2="composite2" operator="in" result="composite3"/>
    </filter>
    <filter id="l" width="1.731" height="1.608" x="-.365" y="-.304" style="color-interpolation-filters:sRGB">
      <feGaussianBlur result="blur" stdDeviation=".21"/>
      <feComposite in="SourceGraphic" in2="blur" operator="atop" result="composite1"/>
      <feComposite in2="composite1" operator="in" result="composite2"/>
      <feComposite in2="composite2" operator="in" result="composite3"/>
    </filter>
    <filter id="k" width="3.905" height="1.625" x="-1.453" y="-.312" style="color-interpolation-filters:sRGB">
      <feGaussianBlur result="blur" stdDeviation=".21"/>
      <feComposite in="SourceGraphic" in2="blur" operator="atop" result="composite1"/>
      <feComposite in2="composite1" operator="in" result="composite2"/>
      <feComposite in2="composite2" operator="in" result="composite3"/>
    </filter>
    <filter id="j" width="1.971" height="1.291" x="-.486" y="-.146" style="color-interpolation-filters:sRGB">
      <feGaussianBlur result="blur" stdDeviation=".21"/>
      <feComposite in="SourceGraphic" in2="blur" operator="atop" result="composite1"/>
      <feComposite in2="composite1" operator="in" result="composite2"/>
      <feComposite in2="composite2" operator="in" result="composite3"/>
    </filter>
    <filter id="i" width="1.462" height="1.47" x="-.231" y="-.235" style="color-interpolation-filters:sRGB">
      <feGaussianBlur result="blur" stdDeviation=".21"/>
      <feComposite in="SourceGraphic" in2="blur" operator="atop" result="composite1"/>
      <feComposite in2="composite1" operator="in" result="composite2"/>
      <feComposite in2="composite2" operator="in" result="composite3"/>
    </filter>
    <filter id="t" width="1.255" height="1.257" x="-.127" y="-.129" style="color-interpolation-filters:sRGB">
      <feGaussianBlur result="blur" stdDeviation=".31"/>
      <feComposite in="SourceGraphic" in2="blur" operator="atop" result="composite1"/>
      <feComposite in2="composite1" operator="in" result="composite2"/>
      <feComposite in2="composite2" operator="in" result="composite3"/>
    </filter>
    <filter id="v" width="1.075" height="1.077" x="-.037" y="-.039" style="color-interpolation-filters:sRGB">
      <feGaussianBlur result="blur" stdDeviation=".31"/>
      <feComposite in="SourceGraphic" in2="blur" operator="atop" result="composite1"/>
      <feComposite in2="composite1" operator="in" result="composite2"/>
      <feComposite in2="composite2" operator="in" result="composite3"/>
    </filter>
    <filter id="A" width="1.075" height="1.077" x="-.037" y="-.039" style="color-interpolation-filters:sRGB">
      <feGaussianBlur result="blur" stdDeviation=".31"/>
      <feComposite in="SourceGraphic" in2="blur" operator="atop" result="composite1"/>
      <feComposite in2="composite1" operator="in" result="composite2"/>
      <feComposite in2="composite2" operator="in" result="composite3"/>
    </filter>
    <filter id="y" width="1.075" height="1.077" x="-.037" y="-.039" style="color-interpolation-filters:sRGB">
      <feGaussianBlur result="blur" stdDeviation=".31"/>
      <feComposite in="SourceGraphic" in2="blur" operator="atop" result="composite1"/>
      <feComposite in2="composite1" operator="in" result="composite2"/>
      <feComposite in2="composite2" operator="in" result="composite3"/>
    </filter>
    <filter id="w" width="1.075" height="1.077" x="-.037" y="-.039" style="color-interpolation-filters:sRGB">
      <feGaussianBlur result="blur" stdDeviation=".31"/>
      <feComposite in="SourceGraphic" in2="blur" operator="atop" result="composite1"/>
      <feComposite in2="composite1" operator="in" result="composite2"/>
      <feComposite in2="composite2" operator="in" result="composite3"/>
    </filter>
    <filter id="u" width="1.053" height="1.054" x="-.027" y="-.027" style="color-interpolation-filters:sRGB">
      <feGaussianBlur result="blur" stdDeviation=".31"/>
      <feComposite in="SourceGraphic" in2="blur" operator="atop" result="composite1"/>
      <feComposite in2="composite1" operator="in" result="composite2"/>
      <feComposite in2="composite2" operator="in" result="composite3"/>
    </filter>
    <filter id="G" width="1.427" height="1.283" x="-.214" y="-.142" style="color-interpolation-filters:sRGB">
      <feGaussianBlur result="blur" stdDeviation=".21"/>
      <feComposite in="SourceGraphic" in2="blur" operator="atop" result="composite1"/>
      <feComposite in2="composite1" operator="in" result="composite2"/>
      <feComposite in2="composite2" operator="in" result="composite3"/>
    </filter>
    <filter id="H" width="1.249" height="1.249" x="-.125" y="-.125" style="color-interpolation-filters:sRGB">
      <feGaussianBlur result="blur" stdDeviation=".21"/>
      <feComposite in="SourceGraphic" in2="blur" operator="atop" result="composite1"/>
      <feComposite in2="composite1" operator="in" result="composite2"/>
      <feComposite in2="composite2" operator="in" result="composite3"/>
    </filter>
    <filter id="F" width="1.027" height="1.028" x="-.014" y="-.014" style="color-interpolation-filters:sRGB">
      <feGaussianBlur result="blur" stdDeviation=".21"/>
      <feComposite in="SourceGraphic" in2="blur" operator="atop" result="composite1"/>
      <feComposite in2="composite1" operator="in" result="composite2"/>
      <feComposite in2="composite2" operator="in" result="composite3"/>
    </filter>
    <filter id="E" width="1.024" height="1.025" x="-.012" y="-.012" style="color-interpolation-filters:sRGB">
      <feGaussianBlur result="blur" stdDeviation=".21"/>
      <feComposite in="SourceGraphic" in2="blur" operator="atop" result="composite1"/>
      <feComposite in2="composite1" operator="in" result="composite2"/>
      <feComposite in2="composite2" operator="in" result="composite3"/>
    </filter>
    <filter id="D" width="1.106" height="1.115" x="-.053" y="-.057" style="color-interpolation-filters:sRGB">
      <feGaussianBlur result="blur" stdDeviation=".21"/>
      <feComposite in="SourceGraphic" in2="blur" operator="atop" result="composite1"/>
      <feComposite in2="composite1" operator="in" result="composite2"/>
      <feComposite in2="composite2" operator="in" result="composite3"/>
    </filter>
    <filter id="C" width="1.08" height="1.041" x="-.04" y="-.021" style="color-interpolation-filters:sRGB">
      <feGaussianBlur result="blur" stdDeviation=".21"/>
      <feComposite in="SourceGraphic" in2="blur" operator="atop" result="composite1"/>
      <feComposite in2="composite1" operator="in" result="composite2"/>
      <feComposite in2="composite2" operator="in" result="composite3"/>
    </filter>
    <filter id="I" width="1.326" height="3.841" x="-.163" y="-1.421" style="color-interpolation-filters:sRGB">
      <feGaussianBlur result="blur" stdDeviation=".21"/>
      <feComposite in="SourceGraphic" in2="blur" operator="atop" result="composite1"/>
      <feComposite in2="composite1" operator="in" result="composite2"/>
      <feComposite in2="composite2" operator="in" result="composite3"/>
    </filter>
    <filter id="J" width="1.204" height="1.084" x="-.102" y="-.042" style="color-interpolation-filters:sRGB">
      <feGaussianBlur result="blur" stdDeviation=".21"/>
      <feComposite in="SourceGraphic" in2="blur" operator="atop" result="composite1"/>
      <feComposite in2="composite1" operator="in" result="composite2"/>
      <feComposite in2="composite2" operator="in" result="composite3"/>
    </filter>
    <linearGradient id="a" x1="128.267" x2="115.462" y1="301.459" y2="311.791" gradientUnits="userSpaceOnUse">
      <stop stop-color="#F5E2CD"/>
      <stop offset="1" stop-color="#F9FAEF"/>
    </linearGradient>
    <linearGradient id="b" x1="98.684" x2="86.998" y1="288.745" y2="294.947" gradientUnits="userSpaceOnUse">
      <stop stop-color="#F7DFC9"/>
      <stop offset="1" stop-color="#F9F6E2"/>
    </linearGradient>
    <linearGradient xlink:href="#a" id="c" x1="128.267" x2="115.462" y1="301.459" y2="311.791" gradientUnits="userSpaceOnUse"/>
    <linearGradient xlink:href="#b" id="d" x1="98.684" x2="86.998" y1="288.745" y2="294.947" gradientUnits="userSpaceOnUse"/>
    <clipPath id="x" clipPathUnits="userSpaceOnUse">
      <path d="M1216.621-346.553c-4.008 12.736 11.517 10.906 10.656 10.298-3.823-2.703-7.914-6.659-10.656-10.298z" style="baseline-shift:baseline;display:inline;overflow:visible;opacity:1;vector-effect:none;fill:#eac076;fill-opacity:1;stroke-linecap:round;stroke-linejoin:round;paint-order:stroke fill markers;enable-background:accumulate;stop-color:#000;stop-opacity:1"/>
    </clipPath>
    <clipPath id="z" clipPathUnits="userSpaceOnUse">
      <path d="M1217.448-348.406c3.594 3.8 7.532 7.433 11.813 10.899l2.429-2.444a89.164 89.164 0 0 1-11.665-10.898z" style="baseline-shift:baseline;display:inline;overflow:visible;opacity:1;vector-effect:none;fill:#e9b15e;stroke-width:1.14869;stroke-linecap:round;stroke-linejoin:round;paint-order:stroke fill markers;enable-background:accumulate;stop-color:#000;stop-opacity:1"/>
    </clipPath>
    <clipPath id="B" clipPathUnits="userSpaceOnUse">
      <path d="M1222.371-353.142c3.506 3.617 7.348 7.076 11.525 10.376l2.37-2.327a86.19 86.19 0 0 1-11.38-10.376z" style="baseline-shift:baseline;display:inline;overflow:visible;opacity:1;vector-effect:none;fill:#e9b15e;stroke-width:1.10704;stroke-linecap:round;stroke-linejoin:round;paint-order:stroke fill markers;enable-background:accumulate;stop-color:#000;stop-opacity:1"/>
    </clipPath>
  </defs>
  <path d="M1094.516-418.936c-7.574.34-15.089 3.368-20.485 8.75-6.26 5.755-10.896 12.959-15.663 19.93-4.81 7.276-9.069 14.903-13.046 22.662-26.652.546-75.26-5.6-37.107 30.313-8.46 5.864-16.73 12.154-23.618 19.857-6.665 7.337-12.39 15.481-17.59 23.907-5.035 8.26-9.043 17.113-12.264 26.227-1.17 3.257-2.265 6.54-3.366 9.821-.86.678-2.162 1.053-3.086.285-1.275-1.275-2.087-2.944-3.391-4.203-1.87-2.083-4.596-3.293-7.383-3.39-3.104-.146-6.233 1.173-8.248 3.548-.472.48-.928.974-1.39 1.461-4.231-.526-8.864-.18-12.408 2.42-4.765 3.453-6.356 10.312-4.103 15.66 1.67 4.452 5.518 7.835 9.9 9.518 4.898 2.258 10.46 3.19 15.804 2.318 2.603 1.08 5.06 2.494 7.746 3.379 1.364.52 2.741 1.002 4.114 1.5.224 3.594.369 7.2.813 10.78 1.067 9.54 3.919 18.888 8.515 27.325 5.817 10.886 14.244 20.336 24.326 27.447 11.74 8.414 25.208 14.048 38.9 18.434.852.276 1.706.55 2.56.819-.241 1.677-.154 3.382-.281 5.061-.432 1.801-2.123 2.85-3.67 3.616-4.337 2.552-7.288 7.717-6.464 12.798.603 4.491 3.94 8.309 8.085 9.984 5.084 2.326 10.914 2.704 16.37 1.713 4.187-.876 8.41-3.048 10.543-6.91 2.153-3.857 1.93-8.989-.85-12.482-1.71-2.58-5.521-8.47-2.504-7.788 5.587 1.265 26.142 5.343 40.784 5.896 4.942.229 14.866 1.227 17.033 6.813 2.078 5.502-9.057 8.071-2.43 17.342 2.482 3.674 7.016 5.64 11.39 5.412 5.646-.038 11.157-2.17 15.7-5.452 3.38-2.545 6.235-6.278 6.499-10.634.24-3.568-1.285-7.078-3.68-9.67-.893-1.182-4.171-3.504-2.679-3.545 6.404-.174 13.92-2.333 20.752-4.107 11.752-2.995 23.382-7.17 33.51-13.961 7.48-4.973 13.829-11.568 18.71-19.095 6.28-9.386 10.474-20.046 13.116-30.991 2.106-9.1 2.178-18.508 1.97-27.798-.4-16.323-3.521-32.633-9.733-47.758-1.867-4.616-4.106-9.067-6.395-13.485 4.897-.806 9.85-1.307 14.698-2.388 4.237-.952 7.23-5.177 7.335-9.422.183-3.245-1.682-6.213-4.047-8.283-2.086-1.785-4.296-3.417-6.465-5.098-8.205-6.126-17.087-11.262-26.029-16.221 1.769-13.415 3.38-27.003 2.087-40.538-.702-7.03-2.317-14.135-5.962-20.259-4.928-8.051-13.65-13.399-22.884-14.945-8.867-1.632-17.914-.536-26.854-1.136-3.374-.3-6.31-2.151-8.995-4.077-2.724-1.963-5.497-3.855-8.216-5.824-2.911-2.028-6.413-2.91-9.742-3.992-3.276-1.133-6.768-1.638-10.23-1.544z" style="display:inline;fill:#f8f6f8;fill-opacity:1;stroke:none;stroke-width:5.508;stroke-linecap:round;stroke-dasharray:none;stroke-opacity:1" transform="translate(-910.36 425.284)"/>
  <g style="display:inline" transform="translate(-910.36 425.284)">
    <path d="M958.499-236.255c1.033 39.547 7.82 78.455 102.573 94.182 63.78 10.587 132.905 2.71 143.335-60.095 7.285-43.862-11.701-90.479-38.493-103.832-3.522-1.755-40.593-10.297-61.939-16.202-21.68-5.997-37.223-11.085-62.362-19.747-3.454-1.19-25.864 9.905-41.342 23.138-23.296 19.918-42.367 59.793-41.772 82.556z" style="display:inline;fill:#f8f6f8;fill-opacity:1;stroke:none;stroke-width:5.508;stroke-linecap:round;stroke-dasharray:none;stroke-opacity:1"/>
    <path fill="#ebdcc3" d="M1196.87-258.12c2.169 3.253 2.96 5.929 4 9.688l1 3.574 1 3.738 1.105 3.504c1.427 5.794 1.23 11.752 1.21 17.685 0 2.043.02 4.085.046 6.127.097 19.959-6.655 37.882-20.185 52.559-12.504 12.212-29.475 17.585-46.176 21.125l-2.567.57c-9.6 1.89-19.191 1.739-28.933 1.68l-2.7-.008c-12.689-.047-25.238-.29-37.8-2.242l-2.458-.373c-6.875-1.06-13.727-2.227-20.542-3.627a320.74 320.74 0 0 1 1.313-4.312l.738-2.426c1.018-2.427 1.848-3.686 3.949-5.262 3.688-.187 3.688-.187 7 0v-3l4 1v5h3l1-2 11 1 2-4 2-3 18 2 1-4 4-1v5c3.46-.277 6.917-.574 10.375-.875l2.984-.238 2.852-.254 2.634-.222c2.36-.24 2.36-.24 4.155-2.411h3l1-4h3v5l3.14-.727c1.37-.3 2.74-.6 4.11-.898l2.066-.484c3.075-.657 5.175-1.078 8.168.023l1.516 1.086-.25-3.188c.289-4.4.985-5.9 4.25-8.812 2.75-.313 2.75-.313 5 0l.937-2.875c1.063-3.125 1.063-3.125 2.063-5.125h5l1 4 5-1 .375-2.438.625-2.562c2.709-1.354 5.01-1.065 8-1l.293-2.094c.85-3.494 2.322-6.237 4.02-9.406 6.033-11.645 8.837-23.17 8.785-36.281v-2.118c-.01-2.2-.018-4.4-.031-6.601 0-1.505-.01-3.01-.014-4.516a4021.93 4021.93 0 0 0-.05-10.984z" style="display:inline"/>
    <g style="display:inline;fill:none">
      <path fill="#f6dfc0" d="m1053.282-162.427-1.955 1.22-1.98 1.475c.934.522 1.604 1.018 2.679 1.128 1.734-.593 1.398-.21 2.26-1.395-.376-.75-.694-1.643-1.004-2.428zM1195.129-200.363l-1.962 3.538c-1.067.584-2.819 1.39-3.494 2.26-1.709 1.372-2.687 2.164-4.745 3.168-.117 1.14-.01 1.379.195 2.492a10.415 10.415 0 0 1-1.818-.647c-2.756.904-2.978 2.758-6.178 5.148-.756 1.585-1.638 2.337-3.59 1.817-.875 1.446-3.183 1.3-3.884 1.837-1.455 1.115.777 1.322-2.304 3.135-2.627 1.544-6.187 2.049-8.535 3.6l.952.716-.832 1.649c-1.252-.033-1.375-.542-2.836-.669l-1.062 1.086c-1.961 2.096-3.426 1.469-5.779 3.014l-1.502-.435c-1.75.417-3.056.73-4.78 1.29-1.694.792-2.41 1.14-4.215 1.635-.184 1.737-.186 1.781-1.285 3.168l.418.29 1.111 1.654-.596.481 1.456 1.745c-1.508 1.854-1.311 2.244-1.098 4.599l.007 1.275.512.185.659-.361c.581 2.256-.346 2.188 1.137 4.284 1.254-.353 1.715-.366 2.557-1.295 1.83-.528 2.102-.627 3.97-.327-1.6.84-2.784 1.139-3.411 2.508l.217.927c8.57-1.785 15.059-4.153 22.858-7.7 7.615-3.463 14.771-8.804 20.38-14.65 6.878-7.09 10.059-15.585 13.188-24.377-1.78-2.382-3.796-4.736-5.711-7.04z"/>
      <path fill="#f6dfc0" d="M1147.755-168.654c-1.75.417-3.056.73-4.78 1.29-1.694.792-2.41 1.14-4.215 1.635-.184 1.737-.186 1.781-1.285 3.168l.418.29 1.111 1.654-.596.481 1.456 1.745c-1.508 1.854-1.311 2.244-1.098 4.599l.007 1.275.512.185.659-.361c.581 2.256-.346 2.188 1.137 4.284 1.254-.353 1.715-.366 2.557-1.295 1.83-.528 2.102-.627 3.97-.327-1.6.84-2.784 1.139-3.411 2.508l.217.927c8.57-1.785 15.059-4.153 22.858-7.7-.103-.918-.088-.762-.385-1.645l-.92-.442c-.993.042-1.483.075-2.473-.028l-.676-.074-.057-.519 1.658-1.134c-1.511-1.063-2.999-1.026-3.711-2.23l.076-.523c-.315-1.054-.513-1.211-1.104-2.163l-.903-.261h-.544l-1.31 1.571.629 1.057c-1.78.188-2.505.23-4.291.16-1.34-.74-.865-.252-1.57-1.437l-1.412-2.066c-.217-.5-.579-2.255-.723-2.88l.199-.467-.498-.842z"/>
      <path fill="#f1cb94" d="M1147.755-168.654c-1.75.417-3.056.73-4.78 1.29-1.694.792-2.41 1.14-4.215 1.635-.184 1.737-.186 1.781-1.285 3.168l.418.29 1.111 1.654-.596.481 1.456 1.745c-1.508 1.854-1.311 2.244-1.098 4.599l.007 1.275.512.185.659-.361c.581 2.256-.346 2.188 1.137 4.284 1.254-.353 1.715-.366 2.557-1.295.208-1.37.8-2.02.436-3.439.118-.34.443-.955.613-1.303l-.4-.547c.542-.682.686-.941 1.14-1.679-.198-1.415-.112-.955-1.203-2.222l.023-.25c1.606-1.651 1.254.015 1.807-2.415 1.443-1.45 1.861-1.533 1.594-3.504.32-.938 1.022-1.244 1.908-1.847l.199-.467-.498-.842z"/>
      <path fill="#f2d3a5" d="M1144.287-154.993c-.933-.053-3.183-.487-3.517-1.293l1.685-.964c.117-1.165.267-.653-.43-1.598-1.438-.228-.73-.304-2.16.457-1.509 1.854-1.312 2.244-1.1 4.599l.008 1.275.512.185.659-.361c.581 2.256-.346 2.188 1.137 4.284 1.254-.353 1.715-.366 2.557-1.295.208-1.37.8-2.02.436-3.439.118-.34.443-.955.613-1.303z"/>
      <path fill="#e0b37b" d="M1144.074-153.143c-2.873.8-2.241-1.057-3.845-.258l-.285.708c.581 2.256-.346 2.188 1.137 4.284 1.254-.353 1.715-.366 2.557-1.295.208-1.37.8-2.02.436-3.439z"/>
      <path fill="#e5d4bf" d="M1147.755-168.654c-1.75.417-3.056.73-4.78 1.29l1.088 1.49c1.2.306 2.356.645 3.585.811.32-.938 1.022-1.244 1.908-1.847l.199-.467-.498-.842z"/>
      <path fill="#f2d3a5" d="M1144.063-165.875c-.2.866-.378 1.563-.474 2.45 1.326.73 1.567.678 2.465 1.866 1.443-1.45 1.861-1.533 1.594-3.504-1.23-.166-2.386-.505-3.585-.812z"/>
      <path fill="#eec588" d="M1142.491-160.091c-1.22-1.17-2.295-2.517-3.896-2.826l-.702.647 1.111 1.653c.902.181 1.282.527 2.003 1.04l.989.084.495-.598z"/>
      <path fill="url(#paint1_linear_3_1244)" d="M106.162 303.224c.1-1.291.086-1.071.437-2.32l1.171-.654c1.28.021 1.912.049 3.184-.134l.869-.13c.61.312 4.07 2.662 3.799 2.583 2.005.584 3.644-.28 5.917.58a2.845 2.845 0 0 0 4.357.259c.915 1.119.95 1.067 1.44 2.404.857 1.565 2.158 1.796 3.874 2.257l.438.369c2.09 1.115 3.627 1.488 4.484 3.381l-.247 1.306c-11.104-2.169-19.549-5.235-29.723-9.901z" style="fill:url(#c)" transform="matrix(-.77557 .0213 .0196 .71362 1243.663 -372.944)"/>
      <path fill="#f6dfc0" d="m1149.58-156.951-2.825.88.22 1.764-2.288-.139c-.17.348-.495.963-.613 1.303.363 1.42-.228 2.07-.436 3.44 1.83-.529 2.102-.628 3.97-.328l.332-.273c1.322-.366 2.327-.558 2.96-1.693.354-.965.383-.928 1.07-1.746a1.96 1.96 0 0 1-.623-1.175c-.603-.918-.995-1.237-1.767-2.033z"/>
      <path fill="#edbf7b" d="m1146.974-154.307-2.287-.139c-.17.348-.495.963-.613 1.303.363 1.42-.228 2.07-.436 3.44 1.83-.529 2.102-.628 3.97-.328l.332-.273c-.041-1.68-.155-2-.61-3.658z"/>
      <path fill="#f1cb94" d="M1150.9-151.997c-1.433-1.296-1.63-1.294-3.57-1.965.455 1.658.569 1.978.61 3.658 1.322-.366 2.327-.558 2.96-1.693z"/>
      <path fill="#eec588" d="M1158.777-163.315h-.544l-1.31 1.571.629 1.057c-1.78.188-2.505.23-4.291.16l.06.208.598.305c2.328 1.2 4.249 3.246 5.91 3.96 1.383-.22 1.696-.41 2.932-.95l1.658-1.134c-1.511-1.063-2.999-1.026-3.711-2.23l.076-.523c-.315-1.054-.513-1.211-1.104-2.163z"/>
      <path fill="#e0b37b" d="M1158.777-163.315h-.544l-1.31 1.571.629 1.057c1.31.557 1.489.765 3.156.32l.076-.524c-.315-1.054-.513-1.211-1.104-2.163z"/>
      <path fill="#eec588" d="M1155.344-154.021a1.904 1.904 0 0 0-.09-2.446c-.62-.703-1.675-.94-2.582-.58-.907.36-1.448 1.229-1.325 2.129.06.444.28.858.623 1.175.46.425 1.103.64 1.754.586a2.265 2.265 0 0 0 1.62-.864z"/>
      <path fill="#f2d3a5" d="M1151.69-161.964c-1.182 1.078-1.913 2.128-1.544 3.73l.504.262c3.04-.954 1.332-.828 2.671-2.347l-.06-.208c-1.34-.74-.865-.252-1.57-1.437z"/>
      <path fill="#eec588" d="M1149.58-156.951c-.016-1.198.165-.644-.714-1.671l-1.016-.2c-1.342.837-1.145 1.176-1.095 2.75z"/>
      <path fill="#edbf7b" d="M1167.965-171.554c-2.886-1.708-5.269.283-6.503 2.738l-1.639-.286c-.356 1.365-.513 2.633-1.552 3.646l1.136 1.33c-.381.704-.13.464-.63.81l.903.262c.59.952.789 1.109 1.104 2.163l-.076.524c.712 1.203 2.2 1.166 3.71 2.23 1.189.985 1.615 1.141 3.17 1.307 1.129-.359 1.074-.299 1.883-1.096 1.03-.878 1.222-.767 1.616-1.844l-.735-.999c-.535-1.239-.726-1.052-.365-2.037l1.113-.2-.092-.444c-1.983.233-3.103-.314-3.858-1.953 1.588-.69 1.69-.937 2.867-2.213-1.572-.455-2.166-.477-3.217-1.55z"/>
      <path fill="#f2d3a5" d="M1166.8-169.165c-.695 2.757-2.992.972-4.65 5.236l.111.405 1.066-.411 2.666-.882c.588-.64.211-.43 1.157-.586 1.588-.69 1.69-.937 2.867-2.213-1.572-.455-2.166-.477-3.217-1.55z"/>
      <path fill="#f1cb94" d="M1167.68-158.851c-1.883-1.115-3.963-1.735-5.982-2.597l-.914.557-.076.524c.712 1.203 2.2 1.166 3.71 2.23 1.189.985 1.615 1.141 3.17 1.307 1.129-.359 1.074-.299 1.883-1.096l-1.672-.362zM1167.15-165.403c-.946.156-.569-.053-1.157.586.678 1.661.676 1.693-.01 3.417l.444.463c1.916-.757 1.996-1.081 3.925.168-.535-1.239-.726-1.052-.365-2.037l1.113-.2-.092-.444c-1.983.233-3.103-.314-3.858-1.953zM1161.462-168.816l-1.639-.286c-.356 1.365-.513 2.633-1.552 3.646l1.136 1.33c-.381.704-.13.464-.63.81l.903.262c2.147-2.658-.081-3.557 1.782-5.762z"/>
      <path fill="#e1b260" d="m1165.993-164.817-2.666.882c.793.849 1.276 1.385 1.967 2.302l.689.233c.686-1.724.688-1.756.01-3.417z"/>
      <path fill="url(#paint2_linear_3_1244)" d="M79.385 283.494c1.514-1.848 2.216-1.432 4.325-1.32 1.662 1.927 3.755 4.723 6.044 5.656 1.778 1.378 2.619 2.498 4.604 2.594l1.414-1.201c.551 1.559.601 2.078 1.828 3.214 1.926.255 1.699.138 3.322-1.263l1.44.237c.5 1.366.248 1.111-.397 2.867l-.912 1.427c.545 1.492.79 1.33 2.147 2.519 1.07 1.086.998 1.004 2.465 1.463 1.997-.292 2.541-.527 4.037-1.953l2.176 1.524-.055.728-.869.13c-1.272.183-1.904.155-3.184.134l-1.171.654c-.351 1.249-.337 1.029-.437 2.32-9.934-4.557-19.343-11.761-26.777-19.73z" style="fill:url(#d)" transform="matrix(-.77557 .0213 .0196 .71362 1243.663 -372.944)"/>
      <path fill="#eec588" d="M1170.857-172.476c-.095 1.692.188 1.549-.668 2.785-1.205-.25-1.23-.727-2.224-1.863l-1.165 2.389c1.051 1.072 1.645 1.094 3.217 1.549-1.177 1.276-1.28 1.523-2.867 2.213.755 1.64 1.875 2.186 3.858 1.953l.092.444c1.286.965 1.112 1.054 2.6.83.93-.836.959-1.208 1.355-2.332l1.12.827c1.538-.11 2.169-.928 3.52-1.95.239-1.5.403-1.094-.151-2.329-.997-.425-1.62-.735-2.535-1.327l-1.486-.029c-2.615-.786-3.622-.698-4.666-3.16z"/>
      <path fill="#f2d6af" d="M1170.857-172.476c-.095 1.692.188 1.549-.668 2.785-1.205-.25-1.23-.727-2.224-1.863l-1.165 2.389c1.051 1.072 1.645 1.094 3.217 1.549 1.035-.131 1.963-.538 2.942-.897.909.239 2.524.797 3.237.949l.181-.985-.854-.767c-2.615-.786-3.622-.698-4.666-3.16z"/>
      <path fill="#f1cb94" d="m1177.009-169.287-1.486-.029.854.767-.181.985-.181.253c1.361.624 1.339.382 2.087 1.385-.909.78-1.6.761-2.891.803l-.156.615 1.12.827c1.538-.11 2.169-.928 3.52-1.95.239-1.5.403-1.094-.151-2.329-.997-.425-1.62-.735-2.535-1.327z"/>
      <path fill="#f2d3a5" d="M1176.195-167.564c-.712-.152-2.327-.71-3.236-.949-.36 1.03-.75 1.71-.467 2.734l.59.285c3.577-1.26.722-1.019 2.933-1.817z"/>
      <path fill="#f2d6af" d="m1159.766-173.3-.832 1.65c-1.252-.033-1.375-.542-2.836-.669l-1.062 1.086c-1.961 2.096-3.426 1.469-5.779 3.014l.498.842-.199.467c.144.625.506 2.38.723 2.88l1.411 2.066c.706 1.185.231.697 1.571 1.437 1.786.07 2.51.028 4.29-.16l-.629-1.057 1.311-1.571h.544c.5-.347.249-.107.63-.812l-1.136-1.329c1.04-1.013 1.196-2.28 1.552-3.646l-2.073.354c-.603-.157-.866-.158-1.49-.225-1.298.78-1.288 1.093-1.854 2.615l-.24.651c-.893-1.592-1.245-1.948-.43-3.644 1.418-.984 3.54-1.642 5.299-1.69.913-.876.615-.685.73-2.258z"/>
      <path fill="#edbf7b" d="M1158.233-163.315c-1.763-.969-2.432-1.473-4.468-1.85l-1.255 1.072-2.231.063 1.411 2.066c.706 1.185.231.697 1.571 1.437 1.786.07 2.51.028 4.29-.16l-.629-1.057z"/>
      <path fill="#eec588" d="M1158.233-163.315c-1.763-.969-2.432-1.473-4.468-1.85l-1.255 1.072c1.668 1.037 2.522 1.655 4.412 2.35z"/>
      <path fill="#f2d3a5" d="M1153.765-165.165c-1.101-1.657-1.983-2.883-4.01-2.212l-.199.467c.144.625.506 2.38.723 2.88l2.231-.063z"/>
      <path fill="#edbf7b" d="m1159.823-169.102-2.073.354c-1.354.866-1.52.684-2.127 1.854.842 1.126.922.85 2.648 1.438 1.04-1.013 1.196-2.28 1.552-3.646z"/>
      <path fill="#e1b260" d="M1184.108-175.71c-.357.095-1.34.333-1.636.464-.68 1.196-1.491 1.81-2.073 2.81l.076.35c.815.43 2.577 1.088 2.984 1.35l.302-.047.472.39c2.254-.138 2.476-.395 3.888-1.907-1.084-1.736-1.345-2.154-2.83-3.596z"/>
      <path fill="#edbf7b" d="M1184.108-175.71c-.357.095-1.34.333-1.636.464-.68 1.196-1.491 1.81-2.073 2.81l.076.35c.815.43 2.577 1.088 2.984 1.35l.302-.047c.847-2.464 1.14-2.323.347-4.927z"/>
      <path fill="#f2d3a5" d="m1180.399-172.436-1.65-.37c-.4 1.567-.847 2.093-1.74 3.519.914.592 1.538.902 2.535 1.327.554 1.235.39.83.152 2.33 1.757-.715 3.325-2.755 4.576-4.165l-.039-.598-.472-.39-.302.047c-.407-.262-2.169-.92-2.984-1.35z"/>
      <path fill="#f1cb94" d="m1180.475-172.086-.771.397c-.112 1.237-.201.631.446 1.85 1.814.865 1.8.422 3.308-.897-.406-.262-2.168-.92-2.983-1.35z"/>
      <path fill="#edbf7b" d="M1178.749-172.806c-3.132-.713-5.452-2.078-7.892.33 1.044 2.462 2.05 2.374 4.666 3.16l1.486.029c.893-1.426 1.34-1.952 1.74-3.519zM1185.123-188.905c3.678 1.008 7.48-3.117 5.94-5.545l-1.39-.114c-1.709 1.37-2.687 2.163-4.745 3.167-.117 1.14-.01 1.379.195 2.492z"/>
      <path fill="#f1cb94" d="M1190.255-179.885c-1.6.031-1.663.085-3.146.722l-.622.533c-.398 1.003-.706 1.75-1.197 2.734 1.486 1.442 1.747 1.86 2.831 3.596 1.885-2.944 2.51-4.236 2.134-7.585z"/>
      <path fill="#f2d3a5" d="M1183.08-181.798c-1.641 1.9-1.603 2.195-1.445 4.669.299.64.586 1.225.837 1.883.296-.131 1.279-.369 1.636-.464l1.183-.186c.49-.985.798-1.73 1.196-2.734l.622-.533c-.32-.26-1.088-1.104-1.413-1.441-1.079.373-1.84-.593-2.616-1.194z"/>
      <path fill="#f6dfc0" d="M1186.487-178.63c-2.14-.089-2.77 1.055-4.852 1.5.299.64.586 1.226.837 1.884.296-.131 1.279-.369 1.636-.464l1.183-.186c.49-.985.798-1.73 1.196-2.734z"/>
      <path fill="#eec588" d="M1187.952-185.225c-2.07.589-2.503 1.403-5.074 2.194l.202 1.233c.777.601 1.537 1.567 2.616 1.194 2.22-1.607 2.284-1.592 2.937-4.093z"/>
      <path fill="#f2d6af" d="M1190.255-179.885c.488-.877.376-3.132-.113-4.003-.391-.7-.647-.536-1.509-.809-.653 2.501-.718 2.486-2.937 4.093.325.337 1.093 1.182 1.413 1.441 1.483-.637 1.547-.691 3.146-.722zM1187.952-185.225c-1.754-1.834-2.97-1.637-4.682.12-.331 1.011-.387 1.036-.392 2.074 2.571-.791 3.004-1.605 5.074-2.194z"/>
      <path fill="#edbf7b" d="M1176.848-179.906c-1.756.18-2.496.3-3.565 1.67.038 1.495.02 1.021 1.112 2.46 1.769-.449 2.456-.35 3.657-1.429.114-1.138-.504-1.711-1.204-2.701z"/>
      <path fill="#f6dfc0" d="M1001.139-175.846c-1.06-1.018-2.409-1.435-3.77-2.642l.317-.668c-.45-1.638-1.731-2.734-3.641-2.42l-.53.96-.933.676-1.545-.658c-.207.486-.746 1.855-.975 2.244l-.711 1.42c-1.633-.739-.989-.547-2.933-.452-.845.818-1.675 1.607-2.475 2.463l1.856 1.607 3.396 2.656c.382.304 1.397 1.153 1.77 1.348 2.174 1.427 4.16 2.834 6.567 3.907 5.132 3.81 18.41 8.816 24.539 10.818l5.863 1.836c4.406 1.095 8.954 2.296 13.403 3.182a24.643 24.643 0 0 0 1.647-.798l-.112-.485c.136-1.13.504-2.206.82-3.312-.306-.432-.167-.75-.178-1.454.146-.243.296-.484.452-.722 1.178-1.78 1.767-1.841 3.907-2.309l1.474-1.083 1.98-1.475 1.955-1.22.51-.498c1.108-.423 2.013-.006 3.227.305 1.197-.626 5.87-1.137 7.378-1.223l.274-.697c-.902-.264-1.657-.354-2.586-.508-.532.384-11.056.08-13.063.243-2.656-1.43-2.737-.379-4.927-1.073l-.303-.977c-2.368.508-2.717.129-4.899-.898-1.401 1.281-6.88-2.228-11.915-.781-1.696-.474-1.643-.466-3.107-1.404l.416-.546c-1.372-.556-2.02-.84-3.457-1.184-.154.15-.585.636-.744.652-5.564-.541-10.825-3.929-16.26-4.416-1.543-.138-1.036.104-2.687-.414z"/>
      <path fill="#e5d4bf" d="M1062.085-165.048c-.532.384-11.056.08-13.063.243-.857.44-2.456 1.373-3.308 1.498-2.329 2.606-3.225 3.758-7.066 2.575-1.304-.269-1.692-.417-3.05-.275-.6.425-1.15.814-1.735 1.256.598 1.17.145.756 1.37 1.314 1.903-.57 1.646-.809 3.188-.367l1.037 1.056c1.455 1.92 1.472 2.926 4.056 2.13.146-.243.296-.484.452-.722 1.178-1.78 1.767-1.841 3.907-2.309l1.474-1.083 1.98-1.475 1.955-1.22.51-.498c1.108-.423 2.013-.006 3.227.305 1.197-.626 5.87-1.137 7.378-1.223l.274-.697c-.902-.264-1.657-.354-2.586-.508z"/>
      <path fill="#f6dfc0" d="M1051.327-161.207c-2.084.654-2.479.82-4.654.785-5.807 5.017-.878 3.194-7.215 2.674 1.455 1.92 1.472 2.926 4.056 2.13.146-.243.296-.484.452-.722 1.178-1.78 1.767-1.841 3.907-2.309l1.474-1.083z"/>
      <path fill="#f4e6d4" d="m1039.458-157.748-1.037-1.056c-1.542-.442-1.285-.203-3.188.367l-.362.336c-2.027 1.405-2.022 2.112-3.083 4.135-.399-1.5-.548-1.337-1.705-2.148-1.179-.28-.775-.335-1.859-.139-.091.96-.138 1.99-.362 2.917l.072.585c4.406 1.095 8.954 2.296 13.403 3.182a24.643 24.643 0 0 0 1.647-.798l-.112-.485c.136-1.13.504-2.206.82-3.312-.306-.432-.167-.75-.178-1.454-2.584.796-2.601-.21-4.056-2.13z"/>
      <path fill="#f2d3a5" d="m1039.458-157.748-1.037-1.056c-1.542-.442-1.285-.203-3.188.367l-.362.336c1.553.855 1.725.979 2.594 2.434 1.596.265 1.32-.002 2.354.857.226 1.598.028 2.29 1.01 3.394l2.043.564c.136-1.13.504-2.206.82-3.312-.306-.432-.167-.75-.178-1.454-2.584.796-2.601-.21-4.056-2.13z"/>
      <path fill="#eec588" d="M1037.465-155.667c-.869-1.455-1.041-1.58-2.594-2.434-2.027 1.405-2.022 2.112-3.083 4.135a14.59 14.59 0 0 0 5.677-1.701z"/>
      <path fill="#f2d6af" d="M1001.139-175.846c-1.06-1.018-2.409-1.435-3.77-2.642l.317-.668c-.45-1.638-1.731-2.734-3.641-2.42l-.53.96-.933.676-1.545-.658c-.207.486-.746 1.855-.975 2.244l-.711 1.42 1.275 1.172c1.15.658 1.106.615 1.971 1.57.366-1.058.088-.557 1.25-1.356l4.295 3.168c1.962-1.02 2.386-1.48 2.997-3.466z"/>
      <path fill="#eec588" d="m992.582-179.94-1.545-.658c-.207.486-.746 1.855-.975 2.244l-.711 1.42 1.275 1.172c1.15.658 1.106.615 1.971 1.57.366-1.058.088-.557 1.25-1.356l-.045-.267c1.002-.3 1.142-.272 1.968-.844 1.034-2.415.238-3.123-2.256-3.958z"/>
      <path fill="#f6dfc0" d="m992.582-179.94-1.545-.658c-.207.486-.746 1.855-.975 2.244l-.711 1.42 1.275 1.172c1.15.658 1.106.615 1.971 1.57.366-1.058.088-.557 1.25-1.356l-.045-.267-.798-.35c-.78-1.025-.49-2.447-.422-3.775z"/>
      <path fill="#edbf7b" d="M1033.863-159.75c-1.826-1.192-2.846-1.826-5.038-2.1-1.665.43-1.11-.003-1.991 1.02.196 1.122.352 1.237.94 2.214l-.152.502c-1.462.555-1.613-.202-3.09.679l-.001.453c.458 1.267 2.144 3.006 3.331 3.646.224-.927.27-1.958.362-2.917 1.084-.196.68-.141 1.86.139 1.156.81 1.305.648 1.704 2.148 1.061-2.023 1.056-2.73 3.083-4.135l.362-.336c-1.225-.558-.772-.144-1.37-1.314z"/>
      <path fill="#f2d6af" d="M1033.863-159.75c-1.826-1.192-2.846-1.826-5.038-2.1 1.718 1.494 2.026.683 3.63 2.802.269 1.773-.392 2.514-2.372 2.934 1.157.81 1.306.648 1.705 2.148 1.061-2.023 1.056-2.73 3.083-4.135l.362-.336c-1.225-.558-.772-.144-1.37-1.314z"/>
      <path fill="#f2d3a5" d="M989.35-176.934c-1.632-.739-.988-.547-2.932-.452-.845.818-1.675 1.607-2.475 2.463l1.856 1.607 3.396 2.656c.382.304 1.397 1.153 1.77 1.348 1.454-1.448 2.31-.489 3.18-2.092l-.665-.98-.883-1.807c-.865-.956-.82-.913-1.971-1.57z"/>
      <path fill="#eec588" d="M989.35-176.934c-1.632-.739-.988-.547-2.932-.452-.845.818-1.675 1.607-2.475 2.463l1.856 1.607c1.616-1.114 3.428-1.205 4.827-2.446z"/>
      <path fill="#edbf7b" d="M993.48-172.384c-2.905-.513-2.6-.767-4.285 1.724.382.304 1.397 1.153 1.77 1.348 1.454-1.448 2.31-.489 3.18-2.092z"/>
      <path fill="#f4e6d4" d="M993.848-175.548c-1.163.799-.885.298-1.25 1.357l.882 1.807.666.98c-.871 1.603-1.727.644-3.181 2.092 2.174 1.427 4.16 2.834 6.567 3.907.123-.957.093-.594-.365-1.61.506-1.4.671-1.518 1.668-2.72l.532-.052c.006-1.018-.435-1.616-.361-2.43l-.864-.163z"/>
      <path fill="#f2d3a5" d="M1045.714-163.307c-1.645-2.491-5.724-3.265-7.3-.466-.064 1.467-.038 1.583.234 3.041 3.84 1.183 4.737.031 7.066-2.575z"/>
      <path fill="#edbf7b" d="M1023.83-162.69c-2.082-.286-1.612-.52-3.157.21-.845 1.215-.692 2.377-.039 3.671l.056.58c1.614 1.091 1.616.779 3.462-.018l.107-.075-.097-.55c.732-.93.78-.875 1.035-1.977-.364-1.366-.037-.718-1.366-1.841z"/>
      <path fill="#f1cb94" d="M1023.87-169.938c-1.572-.175-1.397-.396-2.516.173-.266 1.114-.121 1.217.244 2.293 1.148.572 1.135.585 2.4.854 1.287-.275 1.45-.317 2.497-1.176l.345.266.138-1.006c-1.696-.474-1.643-.466-3.107-1.404z"/>
      <path fill="#f2d6af" d="m1020.69-158.229-.037.912 1.76 1.128c.17 1.105.262.586-.342 1.602l5.863 1.836-.072-.585c-1.187-.64-2.873-2.38-3.331-3.646l-.473.763-.788-.135-.217-.873 1.1-1.02c-1.847.797-1.849 1.11-3.463.018zM1024.287-170.484c-1.372-.556-2.02-.84-3.457-1.184-.154.15-.585.636-.744.652-.905.876-1.273 1.088-1.588 2.27.495 1.092.102.642 1.364 1.272.323-.002 1.492-.03 1.736.002-.365-1.076-.51-1.18-.244-2.293 1.119-.57.944-.348 2.517-.173zM998.835-169.736c-.997 1.203-1.162 1.32-1.668 2.72 1.176.373 1.632.602 2.892.547l.446-.499c-.27-1.243-.845-1.756-1.67-2.768z"/>
      <path fill="#f1cb94" d="M1033.832-166.302c-1.995-.51-1.284-.598-3.054-.051-.92.969-.587.405-.807 1.84l.287.51c1.048 1.412 1.197 1.788 2.778 2.344l.582-.359c.936-1.986.207-1.696.21-3.642z"/>
      <path fill="#eec588" d="M1033.832-166.302c-1.995-.51-1.284-.598-3.054-.051-.92.969-.587.405-.807 1.84l.287.51c2.212-.425 2.459-.444 3.574-2.3z"/>
      <path fill="#f2d3a5" d="M1014.13-162.116c-1.128-.506-1.252-.72-1.975-1.603-2.185-.204.355.662-3.111-.11.192 1.765 3.118 3.357 4.624 4.18.254-1.005.342-1.444.462-2.467z"/>
      <path fill="#edbf7b" d="M1013.668-159.65c1.499.565 2.027 1.043 3.487.325.683-1.683.318-2.96-1.599-3.674l-1.426.883c-.12 1.023-.208 1.462-.462 2.466zM1005.74-169.421l-.508.12c-1.239 1.61 1.204 3.249 2.582 4.084 1.222-1.23 1.155-.788 1.281-2.134-.65-.965-2.187-1.515-3.355-2.07z"/>
      <path fill="#f6dfc0" d="M1074.157-162.729c-3.38-.723-6.28-1.401-9.76-1.114-1.508.086-6.18.597-7.378 1.223-1.214-.311-2.12-.728-3.227-.305l-.51.498c.31.785.628 1.678 1.004 2.428-.862 1.184-.526.802-2.26 1.395-1.075-.11-1.745-.606-2.68-1.128l-1.473 1.083c-2.14.468-2.73.53-3.907 2.309-.156.238-.306.479-.452.722.011.705-.128 1.022.178 1.454-.316 1.106-.684 2.182-.82 3.312l2.787-.45c1.13.177 2.183.242 3.188.672l-.693 2.293 2.722.45c.586.087 2.118.356 2.629.378l4.468.83 4.221.513c5.469.831 11.788 1.629 17.327 2.045 3.756.31 7.37.613 11.145.767.604-.249.277-.076.94-.583-.776-.809-.92-1.031-1.322-2.046l-.049-.416-2.023-.999c-.175-1.362-.882-1.451-2.012-2.106.41-1.264.269-.862 1.586-1.853-.856-.44-.907-.373-1.354-1.153.712-.047.56-.115.73.01 5.307-1.122 3.557-4.18 4.933-8.223l-.688-1.705c-1.59.012-1.696.017-2.99-.82-1.638.181-2.136.644-3.576 1.501-1.521.14-2.312-.024-3.809-.463l-.228-.308c-2.93-1.741-3.698-2.344-6.647-.21z"/>
      <path fill="#f1cb94" d="M1052.026-158.604c-1.075-.11-1.745-.606-2.68-1.128l-1.473 1.083c-2.14.468-2.73.53-3.907 2.309-.156.238-.306.479-.452.722.011.705-.128 1.022.178 1.454-.316 1.106-.684 2.182-.82 3.312l2.787-.45c1.13.177 2.183.242 3.188.672l-.693 2.293 2.722.45c.586.087 2.118.356 2.629.378.864-1.302 1.784-1.219 2.037-2.905l.265-1.489c1.5.075 1.48.153 2.817-.606.845-1.155.686-.545.57-1.874l-1.07-.489c-2.45-.18-5.04-1.66-6.098-3.732z"/>
      <path fill="#e1b260" d="M1047.873-158.649c-2.14.468-2.73.53-3.907 2.309-.156.238-.306.479-.452.722.011.705-.128 1.022.178 1.454-.316 1.106-.684 2.182-.82 3.312l2.787-.45 1.474-.627c.503-.327.916-.652 1.392-1.01-.015-1.187.688-4.63.504-5.21z"/>
      <path fill="#e0b37b" d="M1047.133-151.929c-1.503-.695-2.121-1.244-3.44-2.235-.317 1.106-.685 2.182-.82 3.312l2.786-.45z"/>
      <path fill="#eec588" d="M1053.66-152.537c-1.335.153-1.925.087-2.92.911l-.727-.168c-1.048.661-.763.224-1.166 1.164l-.693 2.293 2.722.45c.586.087 2.118.356 2.629.378.864-1.302 1.784-1.219 2.037-2.905l.265-1.489z"/>
      <path fill="#edbf7b" d="m1050.74-151.626-.727-.168c-1.048.661-.763.224-1.166 1.164l-.693 2.293 2.722.45c.623-.807 1.232-1.31 1.983-2.016l-.065-.606zM1058.125-154.872c-1.57-.006-3.292-.174-4.474.762-.192.524-.384 1.07.01 1.573l2.146.634c1.5.075 1.48.153 2.817-.606.845-1.155.686-.545.57-1.874z"/>
      <path fill="#f1cb94" d="m1068.037-155.849-1.406-1.996-2.643.78-.665.059c-1.047.603-.739.179-1.131 1.161l-2.39-.38-.19 1.647-.417.195c.115 1.329.274.72-.57 1.874-1.338.76-1.318.68-2.818.606l-.265 1.489c-.253 1.686-1.173 1.603-2.037 2.905l4.468.83 4.221.513.207-.835c1.356-.583 1.827-.646 2.564-1.844l.3-.011-.039-.316.983-2.362.79-2.062.579-.414z"/>
      <path fill="#eec588" d="M1066.21-151.534c-.761-1.07-2.376-.99-3.489-.476l-.944.415-1.749.263c-.954 1.486-1.296 1.442-1.218 2.849.296.14.735.371 1.034.457.535.155 1.195.2 1.773.274.699-.401 1.332-.853 1.967-1.336l1.38.243.3-.011-.038-.316z"/>
      <path fill="#edbf7b" d="M1066.21-151.534c-.761-1.07-2.376-.99-3.489-.476.662.933 1.506 2.41 2.505 2.838z"/>
      <path fill="#e1b260" d="M1060.028-151.332c-.954 1.486-1.296 1.442-1.218 2.849.296.14.735.371 1.034.457 1.049-.195.638.06 1.341-.628.052-1.215-.433-1.648-1.157-2.678z"/>
      <path fill="#f2d6af" d="M1057.973-146.68c-.092-1.471-.227-3.255-1.6-4.204l-.831.47c-.253 1.686-1.173 1.603-2.037 2.905z"/>
      <path fill="#edbf7b" d="m1068.037-155.849-1.406-1.996-2.643.78c1.264.782 1.842.975 2.442 2.262l-.016 1.098.585.11.579-.415z"/>
      <path fill="#e1b260" d="m1063.988-157.066-.665.06c-.085 1.588-.32 1.183.477 2.28.895.377 1.675.745 2.614 1.021l.016-1.098c-.6-1.287-1.178-1.48-2.442-2.263z"/>
      <path fill="#edbf7b" d="M1063.323-157.006c-1.047.603-.739.179-1.131 1.161-1.192 1.21-1.81 1.224-1.003 2.785 1.357-.885.627-1.111 2.611-1.667-.797-1.096-.562-.691-.477-2.28z"/>
      <path fill="#e5d4bf" d="M1072.133-150.534c-1.468.298-1 .19-2.259 1.194-1.226.884-.649.812-1.852.861l-.754-1.073c-.65.296-1.31.502-2.003.696l-.3.011c-.737 1.198-1.208 1.26-2.564 1.844l-.207.835c5.469.831 11.788 1.629 17.327 2.045.065-1.666.485-2.804.724-4.445-.668-.165-1.597-.494-2.276-.71l-.696 1.126-.262-1.756c-1.89.489-3.008.88-4.985.902z"/>
      <path fill="#f1cb94" d="M1077.01-149.906c-1.89.489-3.007.88-4.984.902-.002 1.642-.268 1.216.646 2.258 1.962.832 3.449.158 4.601-1.404z"/>
      <path fill="#eec588" d="m1081.345-148.756-1.1.19c-.239 1.641-.659 2.78-.724 4.445 3.756.31 7.37.613 11.145.767.604-.249.277-.076.94-.583-.776-.809-.92-1.031-1.322-2.046l-.049-.416-2.023-.999-1.255-.58c-1.537.807-1.683.923-3.373 1.278-1.295-.427-1.49-.977-2.24-2.056z"/>
      <path fill="#f2d3a5" d="M1070.286-155.106c-1.68-.188-.979.099-2.249-.743l-.459 1.839-.58.414-.789 2.062-.983 2.362.039.316c.693-.194 1.352-.4 2.003-.696l.754 1.073c1.203-.049.626.023 1.852-.861 1.26-1.005.791-.896 2.259-1.194a1.252 1.252 0 0 1-.586-1.074 1.28 1.28 0 0 1 .636-1.056l-.95-.924.049-.992z"/>
      <path fill="#f2d6af" d="m1067.578-154.01-.58.414-.789 2.062-.983 2.362.039.316c.693-.194 1.352-.4 2.003-.696l.754 1.073c1.203-.049.626.023 1.852-.861-.518-1.215-.757-1.494-1.522-2.545.373-1.244.49-.8.22-1.844z"/>
      <path fill="#eec588" d="M1068.352-151.885c-.543 1.57-.55 1.772-.33 3.406 1.203-.049.626.023 1.852-.861-.518-1.215-.757-1.494-1.522-2.545z"/>
      <path fill="#edbf7b" d="M1086.432-152.51c-1.578-.65-3.021-.761-4.733-1.017.088 1.591.165 1.651 1.026 3.077l-1.158 1.391-.222.303c.75 1.08.944 1.629 2.24 2.056 1.689-.355 1.835-.47 3.372-1.278l1.255.58c-.175-1.362-.882-1.451-2.012-2.106.41-1.264.269-.862 1.586-1.853-.856-.44-.907-.373-1.354-1.153z"/>
      <path fill="#e0b37b" d="M1086.432-152.51c-1.578-.65-3.021-.761-4.733-1.017.088 1.591.165 1.651 1.026 3.077 1.784.668 2.108.53 3.475.946.41-1.264.269-.862 1.586-1.853-.856-.44-.907-.373-1.354-1.153z"/>
      <path fill="#f1cb94" d="M1081.699-153.527c-1.614-.402-1.567-.45-3.19-.27-2.405 1.814-.984 2.473-1.498 3.89l.262 1.757.696-1.126c.679.216 1.608.545 2.276.71l1.1-.19.222-.303 1.158-1.39c-.861-1.427-.938-1.487-1.026-3.078z"/>
      <path fill="#eec588" d="m1081.567-149.059-.585-.405c-.736-.518-.83-.618-1.4-1.324-1.102-.36-.588-.416-1.588-.01-.13.881-.212.709-.025 1.522.679.216 1.608.545 2.276.71l1.1-.19z"/>
      <path fill="#edbf7b" d="M1080.804-162.518c-2.93-1.741-3.698-2.344-6.647-.21.688.952 2.09 3.09 2.934 3.743 2.792-1.801 3.234.22 3.713-3.533z"/>
      <path fill="#f1cb94" d="M1071.282-154.58c.856-.293 1.71-.597 2.557-.911 1.513-.57 1.828-.736 2.42-2.018l-.502-.649c-1.566-.569-1.734-.533-3.458-.601-.861.6-.94 1.766-1.656 3.031l-.357.622z"/>
      <path fill="#f2d6af" d="M1054.286-160c-.862 1.185-.526.803-2.26 1.396 1.058 2.072 3.647 3.551 6.099 3.732l1.07.49.417-.196-.433-.528c-2.01-.523-2.223-1.054-3.694-2.504l-.228-.282-.334-.316.976-1.022c-.426-.248-1.142-.551-1.613-.77z"/>
      <path fill="#eec588" d="M1066.631-157.845c-2.022-1.162-5.942-.966-7.345.715.21.464.179.535.516.905l2.39.38c.392-.982.084-.558 1.131-1.161l.665-.06z"/>
      <path fill="#f1cb94" d="M1057.02-162.62c-1.215-.311-2.12-.728-3.228-.305l-.51.498c.31.785.628 1.678 1.004 2.428.471.218 1.187.521 1.613.769 1.407-1.416 1.527-1.512 1.12-3.39zM1080.804-162.518c-.479 3.753-.92 1.732-3.713 3.533 1.245.477 2.6 1.03 3.905.508.7-1.353.329-2.153.036-3.733zM1072.133-150.534c.574.377 1.367.3 1.846-.181.48-.48.498-1.213.041-1.709-.457-.495-1.244-.598-1.837-.24a1.28 1.28 0 0 0-.636 1.056c-.01.426.209.828.586 1.074z"/>
      <path fill="#edbf7b" d="M1087.566-157.728c-.672.052-1.347.147-2.017.229-1.192.866-.87.331-1.148 1.578.416 1.268.891 1.458 2.011 2.289 1.507.18 1.78.133 2.54-.931-.088-1.452-.538-1.87-1.386-3.165z"/>
      <path fill="#f2d6af" d="m1094.19-162.968-2.783.54.688 1.705c-1.376 4.043.374 7.101-4.933 8.224-.17-.126-.018-.058-.73-.01.447.779.498.712 1.354 1.152-1.317.99-1.177.59-1.586 1.853 1.13.655 1.837.744 2.012 2.106l2.023.999.049.416c.402 1.015.546 1.237 1.323 2.046-.664.507-.337.334-.941.583 2.224.237 4.35.3 6.584.392l2.153-.052c2.77.103 5.146.187 7.915.105l3.237-.042.53-2.032-.081-.238-1.505-1.54-1.39-1.012.032-.506 1.634-.694-.2-.683c-1.335-.572-1.456-.608-2.21-1.769-.842-.534-1.334-1.13-2.008-1.835l.332-.207.91-.199c.747-1.05 1.352-1.246 2.266-2.263 1.755-1.95.804-4.502 1.108-7.448l.039-.352-1.362 1.103c-2.653.107-5.957.111-8.559.462l-1.09-.51c-1.473-.17-3.3-.216-4.811-.294z"/>
      <path fill="#e1b260" d="M1094.237-152.918c-1.597.199-1.788.208-3.033 1.263-1.462.869-1.138.665-3.418.298-1.317.99-1.177.59-1.586 1.853 1.13.655 1.837.744 2.012 2.106l2.023.999.049.416c.402 1.015.546 1.237 1.323 2.046-.664.507-.337.334-.941.583 2.224.237 4.35.3 6.584.392l2.153-.052c2.77.103 5.146.187 7.915.105l3.237-.042.53-2.032-.081-.238-1.505-1.54-1.39-1.012.032-.506 1.634-.694-.2-.683c-1.335-.572-1.456-.608-2.21-1.769-.842-.534-1.334-1.13-2.008-1.835-1.091.364-1.284.38-2.265.996 1.084.274 1.4.23 2.11 1.009l-.055.757-.525.415c-.1-1.038.126-.583-.53-1.435-4.453.835-6.618 2.19-9.855-1.4z"/>
      <path fill="#f1cb94" d="M1105.357-153.26c-1.091.364-1.284.38-2.265.996 1.084.274 1.4.23 2.11 1.009l-.055.757-.525.415-.724.538c-2.026 2.349.575 1.666-2.794 3.444l-1.878-1.493-1.62 1.387 1.548 2.403.249.79c2.77.103 5.146.187 7.915.105l3.237-.042.53-2.032-.081-.238-1.505-1.54-1.39-1.012.032-.506 1.634-.694-.2-.683c-1.335-.572-1.456-.608-2.21-1.769-.842-.534-1.334-1.13-2.008-1.835z"/>
      <path fill="#f2d3a5" d="M1105.357-153.26c-1.091.364-1.284.38-2.265.996 1.084.274 1.4.23 2.11 1.009l-.055.757-.525.415-.724.538c.397 1.712.332 2.043-.348 3.681l.362.324c1.192-.103.782.05 1.757-.524 1.178-.831.562-.7 1.824-.658l1.007.715.999-.754-1.39-1.012.032-.506 1.634-.694-.2-.683c-1.335-.572-1.456-.608-2.21-1.769-.842-.534-1.334-1.13-2.008-1.835z"/>
      <path fill="#f2d6af" d="m1109.499-146.761-.999.754c-.234.647-.584 1.748-.884 2.326l-.298.772 3.237-.042.53-2.032-.081-.238z"/>
      <path fill="#f2d3a5" d="m1099.226-147.594-1.62 1.387 1.548 2.403.947.072c1.034-.773.711-.747 1.003-2.37z"/>
      <path fill="#edbf7b" d="m1108.5-146.007-1.007-.715c-1.262-.042-.646-.173-1.824.658l-.5 1.358c.665.827 1.072.672 2.447 1.025.3-.578.65-1.68.884-2.326zM1099.226-147.594c-1.824.236-3.35.582-5.078-.063l-.378.57c-.68 1.378-.355 1.328-1.494 1.849-.746-.259-1.264-.438-1.992-.745.402 1.015.546 1.237 1.323 2.046-.664.507-.337.334-.941.583 2.224.237 4.35.3 6.584.392l2.153-.052-.25-.79-1.548-2.403z"/>
      <path fill="#eec588" d="M1097.605-146.207c-1.047-.27-1.58-.515-2.633-.264-.332 1.241 1.284 2.735 2.278 3.509l2.153-.052-.25-.79z"/>
      <path fill="#e1b260" d="M1091.204-151.655c-1.462.869-1.138.665-3.418.298-1.317.99-1.177.59-1.586 1.853 1.13.655 1.837.744 2.012 2.106l2.023.999c-.071-1.378-.389-1.827.295-2.691l2.4-.323c-.295-1.206-.733-1.41-1.726-2.242z"/>
      <path fill="#e5d4bf" d="m1110.012-163.729-1.362 1.103c-2.653.107-5.957.111-8.559.462-.85.172-1.61.312-2.47.449 3.9.811.951 2.284 5.373 2.14-.563.62-.246.335-.955.855.162 1.427.66 1.776 2.203 2.26-.179 1-.318 1.553-.589 2.514.855.241 1.168.374 2.036.479l.91-.199c.747-1.05 1.352-1.246 2.266-2.263 1.755-1.95.804-4.502 1.108-7.448z"/>
      <path fill="#f1cb94" d="M1104.242-156.46c1.409-.492 2.213-.545 3.072-1.497-2.342-1.947-1.697-.46-2.163-3.503l-.46-.024-1.697 1.908c-.563.622-.246.336-.955.856.162 1.427.66 1.776 2.203 2.26z"/>
      <path fill="#eec588" d="m1102.231-155.356-.934-.041c-2.051-2.06-4.616-2.264-7.569-2.208.254 1.775 1.439 2.976 1.34 4.22l-.83.467c3.236 3.59 5.401 2.235 9.854 1.4.656.852.43.397.53 1.435l.525-.415.055-.757c-.71-.78-1.026-.735-2.11-1.01-1.296-.237-.917.08-1.483-.668l.92-1.502z"/>
      <path fill="#edbf7b" d="M1099.446-153.724c-1.52.07-1.889-.183-2.77.538l.115 1.406 1.32-.187c1.197-.885.728-.347 1.335-1.757z"/>
      <path fill="#f1cb94" d="M1093.728-157.605c-3.646 2.907-.642 5.826-6.566 5.106-.17-.126-.018-.058-.73-.01.447.779.498.712 1.354 1.152 2.28.367 1.956.57 3.418-.298 1.245-1.055 1.436-1.064 3.033-1.263l.832-.466c.098-1.245-1.087-2.446-1.341-4.221z"/>
      <path fill="#f4e6d4" d="m1094.19-162.968-2.783.54.688 1.705c1.436-.483 3.939-.761 5.527-.992a57.996 57.996 0 0 0 2.47-.45l-1.092-.51c-1.472-.169-3.3-.215-4.81-.293z"/>
      <path fill="#e0b37b" d="m1138.408-160.136-.963-.012c-.73.578-.43.426-1.378.69l-.948-.522-.215-.996-.404-.153-1.372.872c-3.63-.17-3.682-.44-6.514 1.695l-.824.685-.1.893c-1.712.05-4.91-.093-6.054.864l.248.424c-.547 1.598-.705 1.806-1.788 3.163l-.493.275c-1.85-.233-4.97.71-8.011.817l-.327-.176-1.9.192c.754 1.161.875 1.197 2.21 1.77l.2.682-1.634.694-.032.506 1.39 1.012 1.505 1.54.08.238-.53 2.032c2.254-.01 4.582-.088 6.84-.138l2.373-.134c.14-.818.279-1.494.469-2.305l.825-.335c5.052.195 3.956.425 7.224-2.25l.536-.434c1.753 2.696 3.952 1.787 7.086 1.423 1.927-.562 3.885-.237 5.174-1.285-1.483-2.096-.556-2.028-1.137-4.284l-.66.36-.511-.184-.007-1.275c-.213-2.355-.41-2.745 1.098-4.6z"/>
      <path fill="#edbf7b" d="M1125.708-149.968c1.112-1.214 1.354-1.335 1.704-2.822l-.378-.488c-2.58-.254-5.76 2.131-7.619.879-.055-1.409.886-.485 1.325-2.37l-.856-.927c-.547 1.598-.705 1.806-1.788 3.163l-.493.275c-1.85-.233-4.97.71-8.011.817l-.327-.176-1.9.192c.754 1.161.875 1.197 2.21 1.77l.2.682-1.634.694-.032.506 1.39 1.012 1.505 1.54.08.238-.53 2.032c2.254-.01 4.582-.088 6.84-.138l2.373-.134c.14-.818.279-1.494.469-2.305l.825-.335c5.052.195 3.956.425 7.224-2.25l.536-.434c-.07-.523-.166-.507-.491-1.012l-1.695.75z"/>
      <path fill="#f2d3a5" d="M1118.255-145.633c-1.163-2.017-2.714-3.962-5.355-4.306.468 2.854.456 2.502-1.896 4.718l.08.238-.53 2.032c2.254-.01 4.582-.088 6.84-.138l2.373-.134c.14-.818.279-1.494.469-2.305l.825-.335-.263-.336c-1.218-.263-1.085-.04-2.543.566z"/>
      <path fill="#eec588" d="M1116.8-144.579c-1.52-1.394-1.176-1.577-2.719-1.585l-.303.173c-1.245.698-1.303.739-2.694 1.008l-.53 2.032c2.254-.01 4.582-.088 6.84-.138z"/>
      <path fill="#f1cb94" d="M1125.708-149.968c-1.06-1.176-3.519-1.812-5.003-.855l-.833 1.339c1.783.806 1.766.979 3.256-.507 2.298.531.503 1.23 2.919 1.525l.588-.342z"/>
      <path fill="#edbf7b" d="m1138.408-160.136-.963-.012c-.73.578-.43.426-1.378.69l-.948-.522-.215-.996-.404-.153-1.372.872-.924 1.36-1.804 1.37 2.4 1.375.468.683.92.762c.006.71-.028 1.42.368 2.053l.565-.254c2.432.188 1.652.306 3.645-.884-.213-2.355-.41-2.745 1.098-4.6z"/>
      <path fill="#e1b260" d="m1132.204-158.898-1.804 1.37 2.4 1.376c1.688-.611 1.708-.396 2.264-1.531l-.907-.854c-.784-.009-1.212-.13-1.953-.36z"/>
      <path fill="#eec588" d="M1138.766-153.792c-1.993 1.19-1.213 1.072-3.645.884l-.565.254c-.827.778-.773.788-1.823 1.254 1.014 1.277 1.558 1.738 2.879 2.765.15.622.23.877.295 1.511 1.927-.562 3.885-.237 5.174-1.285-1.483-2.096-.556-2.028-1.137-4.284l-.66.36-.511-.184z"/>
      <path fill="#f1cb94" d="M1133.128-160.257c-3.63-.17-3.682-.44-6.514 1.695l-.824.685-.1.893c2.142 2.268 1.117.485 4.284-.412 1.394 2.325-.255 1.797.054 4.13l.484.038c.835-.649 2.053-1.533 2.756-2.241l-.469-.683-2.4-1.375 1.805-1.37z"/>
      <path fill="#e1b260" d="m1132.502-150.91-.909-1.474-1.004-.244c-1.408.755-1.373.794-1.983 2.216.884 1.136 1.25 1.489 2.57 1.716 1.073-.696.801-.77 1.326-2.214z"/>
      <path fill="#f6dfc0" d="M1124.472-165.328c-.685.13-1.241.251-1.937.328l-1.672.79c-3.363.656-3.915-.067-7.43 1.266l-.596-.186c-.583-.203-2.14-.464-2.825-.599l-.04.352c-.303 2.946.648 5.498-1.107 7.448-.914 1.017-1.52 1.213-2.266 2.263l-.91.199-.332.207c.674.704 1.166 1.3 2.009 1.835l1.899-.192.327.176c3.042-.107 6.162-1.05 8.01-.817l.494-.275c1.083-1.357 1.24-1.565 1.788-3.163l-.248-.424c1.144-.957 4.342-.814 6.055-.864l.1-.893.823-.685c-.93-1.113-1.597-1.992-1.262-3.36a64.563 64.563 0 0 1-.368-1.518c.767-.897 1.027-.617 2.735-.812l-.096-.704z"/>
      <path fill="#f2d6af" d="M1112.837-163.13c-.583-.203-2.14-.464-2.825-.599l-.04.352c-.303 2.946.648 5.498-1.107 7.448-.914 1.017-1.52 1.213-2.266 2.263l-.91.199-.332.207c.674.704 1.166 1.3 2.009 1.835l1.899-.192.327.176c3.042-.107 6.162-1.05 8.01-.817l.494-.275-1.821-.568c-.404.16-.146.104-.797-.017-.183-1.048.154-1.557.566-2.555l.847-.72c-.93-.949-.913-.859-1.194-2.103 1.217-.739 1.162-.847.92-2.023-1.193-1.39-1.495-1.469-3.183-2.425z"/>
      <path fill="#eec588" d="m1113.434-162.944-.597-.186c-.77 1.062-.609 1.849-.615 3.14.351.475.126.372.563.46 1.569.328 1.555.287 2.912 1.034 1.217-.739 1.162-.847.92-2.023-1.193-1.39-1.495-1.469-3.183-2.425z"/>
      <path fill="#f4e6d4" d="M1115.697-158.496c-1.357-.747-1.343-.706-2.912-1.035-.43 1.477-.61 1.167-.12 2.318 1.546.428 2.425.475 3.379 1.54l.847-.72c-.93-.949-.913-.859-1.194-2.103z"/>
      <path fill="#f1cb94" d="m1106.599-153.666-.91.199-.332.207c.674.704 1.166 1.3 2.009 1.835l1.899-.192c-1.176-1.75-.893-1.427-2.666-2.049z"/>
      <path fill="#e5d4bf" d="M1112.183-155.568c-1.215.693-1.794 1.192-1.78 2.504l1.013.809c1.16-.334 1.975-.42 2.715-1.278-.411-1.117-.82-1.134-1.948-2.035z"/>
      <path fill="#f2d3a5" d="M1124.472-165.328c-.685.13-1.241.251-1.937.328l-1.672.79c.439 2.037.629 2.333 1.64 4.104.73.498 2.609 1.859 3.287 2.23l.824-.686c-.93-1.113-1.597-1.992-1.262-3.36a64.563 64.563 0 0 1-.368-1.518c.767-.897 1.027-.617 2.735-.812l-.096-.704z"/>
      <path fill="#e5d4bf" d="M1116.275-153.101c1.701-.68 1.37-.269 2.046-1.5-.289-1.062-.514-1.085-1.43-1.792l-.847.72c-.412.998-.75 1.507-.566 2.555.651.12.393.176.797.017z"/>
      <path fill="#f4e6d4" d="M982.408-185.078c-2.983 1.353-2.341 3.103-3.213 5.4l.708.936 4.04 3.819c.8-.856 1.63-1.645 2.475-2.463 1.944-.095 1.3-.287 2.933.452l.711-1.42c.229-.39.768-1.758.975-2.244-.8-.824-3.314-1.653-4.86-2.555l-.897-.263z"/>
      <path fill="#edbf7b" d="M982.408-185.078c-2.983 1.353-2.341 3.103-3.213 5.4l.708.936c3.357-1.054 3.408-1.868 5.377-4.674z"/>
      <path fill="#f1cb94" d="M986.177-183.153c.123 1.441.275 2.729.2 4.183l.04 1.584c1.945-.095 1.3-.287 2.934.452l.711-1.42c.229-.39.768-1.758.975-2.244-.8-.824-3.314-1.653-4.86-2.555z"/>
      <path fill="#f2d6af" d="m986.376-178.97.042 1.584c1.944-.095 1.3-.287 2.933.452l.711-1.42c-1.132-.244-2.517-.431-3.686-.616z"/>
      <path fill="#f6dfc0" d="M982.408-185.078c-2.8-2.401-6.44-5.805-9.917-7.36-1.125-.504-1.639-.051-2.725.4 2.26 3.627 6.216 9.407 9.43 12.36.87-2.297.229-4.047 3.212-5.4z"/>
      <path fill="#f2d6af" d="M1137.475-162.561c-3.606 2.788-4.493-1.7-8.657-1.783l-.3.137-.799-.045c-1.708.195-1.968-.085-2.735.812.116.507.239 1.012.368 1.517-.335 1.369.332 2.248 1.262 3.361 2.832-2.135 2.883-1.864 6.514-1.695l1.372-.872.404.153.215.996.948.522c.949-.264.647-.112 1.378-.69l.963.012.596-.481-1.111-1.653z"/>
      <path fill="#f1cb94" d="m1128.519-164.207-.8-.045c-1.708.195-1.968-.085-2.735.812.116.507.239 1.012.368 1.517 1.78.296 1.718.29 3.063-.302.559-1.26.503-.623.104-1.982z"/>
      <path fill="#edbf7b" d="M1153.538-175.665c-1.44 1.088-2.763 1.962-3.901 3.316l-1.882 3.695 1.502.435c2.353-1.545 3.818-.918 5.78-3.014l1.061-1.086c-.951-1.742-1.022-2.098-2.56-3.346z"/>
      <path fill="#eec588" d="M1153.538-175.665c-1.44 1.088-2.763 1.962-3.901 3.316 1.95-.377 2.789-.817 4.425-.148l.974 1.264 1.062-1.086c-.951-1.742-1.022-2.098-2.56-3.346z"/>
      <path fill="#e5d4bf" d="M1138.76-165.729c-3.09.232-7.093.406-9.942 1.385 4.164.084 5.05 4.571 8.657 1.783 1.099-1.387 1.1-1.431 1.285-3.168z"/>
      <path fill="#f1cb94" d="M1127.623-164.956c1.747-1.497 1.676-1.005 2.091-2.763-.53-1.252-.087-.814-1.298-1.423-3.007.035-3.467 1.474-3.944 3.814z"/>
      <path fill="#f2d3a5" d="M1099-162.674c.623-.97.606-.939.9-2.033-.373-1.305.008-.82-1.047-1.585-2.954-.303-3.675 1.166-4.663 3.324 1.51.078 3.338.124 4.81.294z"/>
      <path fill="#f1cb94" d="M1024.287-170.484c.582-1.355.697-1.72.525-3.105-.756-1.082-.254-.676-1.626-1.183-1.729.28-.984-.045-2.318 1.014-.5 1.405-.51.732-.038 2.09 1.436.344 2.085.628 3.457 1.184z"/>
      <path fill="#f2d3a5" d="M1158.814-174.014c-1.036.059-.704.12-1.607-.237-1.571-2.13-1.242-2.148-3.669-1.414 1.538 1.248 1.609 1.604 2.56 3.346 1.461.127 1.584.636 2.836.669l.832-1.65z"/>
      <path fill="#eec588" d="M1177.127-184.404c-1.092-1.54-.626-1.426-2.11-1.825-1.853.71-2.008 1.942-1.48 3.642 1.952.52 2.834-.232 3.59-1.817z"/>
      <path fill="#f2d6af" d="M1043.792-166.855c.694-.817.555-.367.421-1.4-1.971-1.367-3.54-.77-5.32.502 2.182 1.027 2.531 1.406 4.9.898z"/>
      <path fill="#f2d3a5" d="M1064.67-164.54c1.114-.96.73-.37.956-1.95-.63-1.28-.145-.832-1.438-1.447l-.938.285c-1 1.033-.95 1.261-1.165 2.604.929.154 1.684.244 2.586.508z"/>
      <path fill="#f2d6af" d="M1166.097-180.392c.404-1.355.67-1.737.109-3.035-2.795-2.224-6.246.738-7.63 3.102.489 1.535.744 2.06 2.349 2.623 2.421-.185 3.39-1.194 5.172-2.69z"/>
      <path fill="#f6dfc0" d="M1166.097-180.392a87.766 87.766 0 0 0-7.52.067c.488 1.535.743 2.06 2.348 2.623 2.421-.185 3.39-1.194 5.172-2.69z"/>
      <path fill="#f2d3a5" d="M1041.679-176.798c-2.616-.032-5.549.437-5.768 3.344.681 1.234.722 1.161 2 1.786 2.474-.329 4.743-.555 5.484-3.053-.482-1.405-.332-.967-1.716-2.077zM1006.84-180.798c-.598-2.008-.954-3.923-3.69-3.447-1.31 1.13-1.31 2.097-1.281 3.63.99 1.704 1.544 2.702 3.793 2.25 1.013-.99.914-1.116 1.177-2.433z"/>
      <path fill="#f2d6af" d="m1006.84-180.798-4.971.182c.99 1.705 1.544 2.703 3.793 2.252 1.013-.99.914-1.117 1.177-2.434zM1138.129-173.339a2.174 2.174 0 0 0-2.03.245c-.582.413-.877 1.082-.773 1.749.105.666.593 1.228 1.276 1.468 1.032.363 2.193-.104 2.609-1.048.417-.945-.065-2.02-1.082-2.414z"/>
      <path fill="#f2d3a5" d="M984.195-190.147c-1.407.82-1.705.651-2.043 1.752l.876 1.27c.577.016.967-.041 1.543-.093.527-1.093.08-1.432-.376-2.93z"/>
      <path fill="#f6dfc0" d="M1147.608-150.031c-1.868-.3-2.14-.2-3.97.327-.842.929-1.303.942-2.557 1.295-1.29 1.048-3.247.723-5.174 1.285-3.134.364-5.333 1.273-7.086-1.423l-.536.433c-3.268 2.676-2.172 2.446-7.224 2.251l-.825.335c-.19.811-.329 1.487-.469 2.305 9.106-.469 15.85-1.368 24.647-3.373l-.217-.927c.627-1.37 1.812-1.668 3.41-2.508z"/>
      <path fill="#f2d6af" d="m1045.66-151.303-2.788.45.112.486c-.624.324-.993.51-1.647.798l6.817 1.232.693-2.293c-1.005-.43-2.057-.495-3.188-.673z"/>
    </g>
    <path d="M1029-260.621c.369 4.062 4.396 7.006 9.055 2.88 1.676-1.484 3.076 9.028 11.358 1.172" style="fill:none;fill-opacity:1;stroke:#3e2514;stroke-width:4.5;stroke-linecap:round;stroke-linejoin:round;stroke-dasharray:none;stroke-opacity:1;paint-order:stroke fill markers"/>
    <ellipse cx="277.234" cy="-205.08" rx="6.574" ry="5.372" style="display:inline;fill:#f3bdb0;fill-opacity:1;stroke:none;stroke-width:5.54736;stroke-linecap:round;stroke-dasharray:none;stroke-opacity:1;filter:url(#e)" transform="matrix(-1.5539 .04252 .3231 1.4838 1583.348 43.356)"/>
    <ellipse cx="277.234" cy="-205.08" rx="6.574" ry="5.372" style="display:inline;fill:#f3bdb0;fill-opacity:1;stroke:none;stroke-width:5.54736;stroke-linecap:round;stroke-dasharray:none;stroke-opacity:1;filter:url(#e)" transform="matrix(-1.5539 .04252 .3231 1.4838 1495.896 31.886)"/>
    <ellipse cx="-1029.857" cy="-138.527" rx="7.833" ry="10.058" style="display:inline;fill:#38210d;fill-opacity:1;stroke:none;stroke-width:4.56902;stroke-linecap:round;stroke-dasharray:none;stroke-opacity:1" transform="matrix(-.99123 .13212 .04916 .9988 0 0)"/>
    <ellipse cx="-1087.709" cy="-102.223" rx="6.907" ry="10.056" style="display:inline;fill:#38210d;fill-opacity:1;stroke:none;stroke-width:4.28978;stroke-linecap:round;stroke-dasharray:none;stroke-opacity:1" transform="matrix(-.98871 .14984 .04325 .99906 0 0)"/>
    <path d="M1024.712-288.06c-3.914-3.295-7.861-5.745-10.697-10.08M1066.016-281.747c2.976-.358 11.298-1.87 15.134-3.955" style="display:inline;fill:none;fill-opacity:1;stroke:#3e2514;stroke-width:3.7;stroke-linecap:round;stroke-dasharray:none;stroke-opacity:1"/>
    <g style="display:inline">
      <path d="M1024.123-646.616c3.373-2.876 48.79-6.39 49.54-4.147.798 2.388 1.205 76.588-1.481 81.294-2.007 3.514-49.369 6.129-50.338 4.296-.538-1.016-.936-78.702 2.28-81.443z" style="fill:#55514e;fill-opacity:1;stroke:#3e2514;stroke-width:2.05069;stroke-linecap:round;stroke-linejoin:round;paint-order:stroke fill markers" transform="matrix(.93938 .34287 -.2305 .97307 0 0)"/>
      <path d="m1127.526-270.822 13.656 3.845" style="fill:none;fill-opacity:1;stroke:#261a13;stroke-width:1.4;stroke-linecap:round;stroke-linejoin:round;stroke-miterlimit:4;stroke-dasharray:none;stroke-opacity:1;paint-order:stroke fill markers"/>
      <circle cx="1115.903" cy="-198.241" r="4.093" style="fill:#52514f;fill-opacity:1;stroke:#261a13;stroke-width:.815463;stroke-linecap:round;stroke-linejoin:round;stroke-miterlimit:4;stroke-dasharray:none;stroke-opacity:1;paint-order:stroke fill markers"/>
      <path d="M1114.228-268.9c12.665 1.875 25.106 5.28 37.324 10.218-3.401 19.391-7.32 38.713-13.963 57.67-14.428-2.025-27.828-5.506-40.2-10.442 5.097-19.224 9.228-38.59 16.839-57.446z" style="fill:#e1d993;stroke-width:2.5;stroke-linecap:round;stroke-linejoin:round;paint-order:stroke fill markers"/>
      <path d="m1099.576-213.234 19.489-8.297c.797 15.526.684 12.305 5.73 18.4-9.254-2.084-18.476-4.351-27.406-8.323z" style="fill:#e6e2a5;stroke-width:2.5;stroke-linecap:round;stroke-linejoin:round;paint-order:stroke fill markers"/>
      <path d="M1125.4-250.072s.729-1.708 1.6-2.263c1.104-.703 2.605-.72 3.843-.296 1.054.36 1.82 1.386 2.28 2.402.419.929.139 2.417-.28 3.346-.959 2.127-2.867 1.206-4.521 2.852-.685.682-1.471 2.72-1.471 2.72" style="fill:none;fill-opacity:1;stroke:#40250f;stroke-width:2.5;stroke-linecap:round;stroke-linejoin:round;stroke-miterlimit:4;stroke-dasharray:none;stroke-opacity:1;paint-order:stroke fill markers;filter:url(#f)"/>
      <circle cx="1125.781" cy="-237.094" r="1.906" style="fill:#40250f;fill-opacity:1;stroke:none;stroke-width:4.23611;stroke-linecap:round;stroke-linejoin:round;stroke-miterlimit:4;stroke-dasharray:none;stroke-opacity:1;paint-order:stroke fill markers;filter:url(#g)"/>
      <ellipse cx="867.201" cy="-728.842" rx="1.768" ry="1.99" style="fill:#e6e6d3;fill-opacity:1;stroke:none;stroke-width:2.86873;stroke-linecap:round;stroke-linejoin:round;stroke-miterlimit:4;stroke-dasharray:none;stroke-opacity:1;paint-order:stroke fill markers;filter:url(#h)" transform="rotate(28.133)"/>
      <path d="m1108.41-251.14 2.992-9.673 26.187 59.801-7.812-1.156zM1134.354-264.438l6.274 1.75 7.689 21.92-2.228 9.68z" style="fill:#f8f8f1;stroke-width:2.5;stroke-linecap:round;stroke-linejoin:round;paint-order:stroke fill markers"/>
      <path d="m1097.389-211.454 2.462-9.287 47.998-18.562-2.266 7.1z" style="fill:#f8f8f1;stroke-width:2.5;stroke-linecap:round;stroke-linejoin:round;paint-order:stroke fill markers"/>
      <path d="M1114.228-268.9c2.973-1.175 37.135 8.993 37.324 10.218.32 2.078-11.074 56-13.963 57.67-2.386 1.379-40.449-9.063-40.2-10.442.144-.8 14.097-56.362 16.839-57.446z" style="fill:none;stroke:#3e2514;stroke-width:1.74662;stroke-linecap:round;stroke-linejoin:round;paint-order:stroke fill markers"/>
    </g>
    <g style="display:inline">
      <path d="M211.983-149.975c-3.2 10.797-7.28 17.466-11.546 23.253" style="fill:none;fill-opacity:1;stroke:#3e2514;stroke-width:5;stroke-linecap:round;stroke-dasharray:none;stroke-opacity:1" transform="scale(-1 1) rotate(-16.642 -396.123 4109.64)"/>
      <path d="M214.115-122.485c-.844 1.71-5.099 2.086-9.503.839-4.405-1.248-7.291-3.647-6.448-5.358.844-1.71 6.39-2.652 10.795-1.404 4.405 1.248 6 4.212 5.156 5.923z" style="fill:#3e2514;stroke-width:4.61898;stroke-linecap:round" transform="scale(-1 1) rotate(-16.642 -396.123 4109.64)"/>
    </g>
    <g style="display:inline">
      <path d="M211.983-149.975c-3.2 10.797-7.28 17.466-11.546 23.253" style="fill:none;fill-opacity:1;stroke:#3e2514;stroke-width:5;stroke-linecap:round;stroke-dasharray:none;stroke-opacity:1" transform="scale(-1 1) rotate(8.269 -535.928 -9267.342)"/>
      <path d="M214.115-122.485c-.844 1.71-5.099 2.086-9.503.839-4.405-1.248-7.291-3.647-6.448-5.358.844-1.71 6.39-2.652 10.795-1.404 4.405 1.248 6 4.212 5.156 5.923z" style="fill:#3e2514;stroke-width:4.61898;stroke-linecap:round" transform="scale(-1 1) rotate(8.269 -535.928 -9267.342)"/>
    </g>
    <g style="display:inline" transform="matrix(-1 0 0 1 1378.094 -13.379)">
      <path d="M208.887-211.365c20.515 14.305 24.038 13.06 31.149 14.457" style="fill:none;stroke:#3e2514;stroke-width:5;stroke-linecap:round;stroke-dasharray:none;stroke-opacity:1"/>
      <circle cx="241.11" cy="-198.076" r="7.287" style="fill:#3e2514;fill-opacity:1;stroke:#3e2514;stroke-width:4;stroke-linecap:round;stroke-dasharray:none;stroke-opacity:1"/>
    </g>
    <g style="display:inline">
      <path d="M208.887-211.365c11.12 7.302 14.989 8.004 21.425 9.533" style="fill:none;stroke:#3e2514;stroke-width:5;stroke-linecap:round;stroke-dasharray:none;stroke-opacity:1" transform="scale(-1 1) rotate(-48.013 -398.602 1087.48)"/>
      <path d="M236.117-205.484c-1.089 1.921-.406 2.102 4.438 4.948 2.978 1.75 7.919 5.864 1.954 8.52-3.173 1.412-9.814-2.964-11.118-4.19-1.414-1.329-3.57-4.097-3.438-6.187.226-3.574 5.474-7.89 9.793-8.531 3.25-.483-.755 3.899-1.629 5.44z" style="fill:#3e2514;stroke:#3e2514;stroke-width:4;stroke-linecap:round" transform="scale(-1 1) rotate(-48.013 -398.602 1087.48)"/>
    </g>
    <g style="display:inline">
      <path d="m1029.139-336.475 11.87-4.836L1166.168-306l16.188 16.568c-58.712-13.098-101.853-27.733-153.218-47.043z" style="fill:#e0d1bc;stroke-width:0;stroke-linecap:round;stroke-linejoin:round;paint-order:stroke fill markers"/>
      <path d="M1054.12-333.975c-8.603 5.641-10.482 8.98-14.098 13.832" style="fill:none;fill-opacity:1;stroke:#e0c8ac;stroke-width:5.5;stroke-linecap:round;stroke-linejoin:round;stroke-miterlimit:4;stroke-dasharray:none;stroke-opacity:1;paint-order:stroke fill markers;filter:url(#i)"/>
      <path d="m1051.164-335.516-5.76 5.094 5.379 1.969 6.34-5.096c.397-1.472-4.39-3.215-5.959-1.967z" style="baseline-shift:baseline;display:inline;overflow:visible;opacity:1;vector-effect:none;fill:#d6b893;stroke-linecap:round;stroke-linejoin:round;paint-order:stroke fill markers;enable-background:accumulate;stop-color:#000;stop-opacity:1"/>
      <path d="M1072.109-328.33c-5.185 8.885-5.629 16.374-6.702 22.33" style="fill:none;fill-opacity:1;stroke:#e0c8ac;stroke-width:5.5;stroke-linecap:round;stroke-linejoin:round;stroke-miterlimit:4;stroke-dasharray:none;stroke-opacity:1;paint-order:stroke fill markers;filter:url(#j)"/>
      <path d="M1070.218-329.911c-1.326 2.367-2.441 4.761-3.535 7.158l4.664 1.633c1.091-2.445 2.212-4.854 3.448-7.123.398-1.472-3.009-2.917-4.577-1.668z" style="baseline-shift:baseline;display:inline;overflow:visible;opacity:1;vector-effect:none;fill:#d6b893;stroke-linecap:round;stroke-linejoin:round;paint-order:stroke fill markers;enable-background:accumulate;stop-color:#000;stop-opacity:1"/>
      <path d="M1095.62-324.635c1.03 4.44 1.706 7.582 2.028 9.428" style="fill:none;fill-opacity:1;stroke:#d4b38c;stroke-width:4.883;stroke-linecap:round;stroke-linejoin:round;stroke-miterlimit:4;stroke-dasharray:none;stroke-opacity:1;paint-order:stroke fill markers;filter:url(#k)"/>
      <path d="M1121.637-317.165c2.126 4.25 3.54 4.25 5.189 6.231" style="fill:none;fill-opacity:1;stroke:#cfa576;stroke-width:2.783;stroke-linecap:round;stroke-linejoin:round;stroke-miterlimit:4;stroke-dasharray:none;stroke-opacity:1;paint-order:stroke fill markers;filter:url(#l)"/>
      <path d="m1029.139-336.475 11.87-4.836L1166.168-306l16.188 16.568c-58.712-13.098-101.853-27.733-153.218-47.043z" style="display:inline;fill:#e0d1bc;fill-opacity:.223724;stroke-width:0;stroke-linecap:round;stroke-linejoin:round;paint-order:stroke fill markers"/>
    </g>
    <path d="m1041.008-341.31-15.068 5.26c.465.244-14.51-9.63-20.373-20.035zM1168.137-306l12.429 12.79c-.465.244 13.379-1.088 30.554-3.806z" style="fill:#824f26;stroke:#392517;stroke-width:5.5;stroke-linecap:round;stroke-linejoin:round;stroke-opacity:1;paint-order:stroke fill markers"/>
    <path d="M961.152-250.118c-6.786 42.747-1.043 80.856 72.632 101.02 22.456 6.147 62.726 9.934 87.876 8.775 50.283-2.315 81.814-34.526 84.017-67.463 3.362-50.276-19.147-81.384-39.508-98.214-43.452-10.768-86.574-22.538-125.16-35.31-28.688 7.304-72.197 42.935-79.857 91.192z" style="display:inline;fill:none;stroke:#3e2514;stroke-width:5.508;stroke-linecap:round;stroke-dasharray:none;stroke-opacity:1"/>
    <path d="m1141.843-326.445 32.161 5.25c16.504 7.95 28.09 15.735 34.76 23.353-29.558-6.098-59.235-11.871-88.257-19.43 6.532-2.595 16.137-4.207 21.336-9.173z" style="display:inline;fill:#7e4b25;stroke-width:5.5;stroke-linecap:round;stroke-linejoin:round;paint-order:stroke fill markers"/>
    <path d="M1059.23-352.493c25.297 9.607 51.346 17.405 82.613 26.048-1.515 6.045-12.519 7.86-20.9 9.275-42.761-9.889-73.26-20.723-105.041-34.607 13.571.714 25.54 2.495 43.328-.716z" style="display:inline;fill:#a57348;stroke-width:5.5;stroke-linecap:round;stroke-linejoin:round;paint-order:stroke fill markers"/>
    <path d="m1052.438-357.188 7.605 4.695c-10.123 3.324-26.594 2.02-39.419 2.246l-15.687-6.565c16.088-.953 32.072-1.566 47.5-.375z" style="display:inline;fill:#d9b492;stroke-width:5.5;stroke-linecap:round;stroke-linejoin:round;paint-order:stroke fill markers"/>
    <path d="m1149.54-342.606 25.649 4.98-2.252 14.662-45.442-9.125c8.073-1.573 12.296-2.464 22.045-10.517z" style="display:inline;fill:#2e2826;stroke-width:5.5;stroke-linecap:round;stroke-linejoin:round;paint-order:stroke fill markers"/>
    <path d="m1059.23-369.246 91.736 25.68c-3.91 6.418-11.079 10.263-19.283 12.318-26.907-5.873-52.04-12.156-78.847-26.367z" style="display:inline;fill:#373634;stroke-width:5.5;stroke-linecap:round;stroke-linejoin:round;paint-order:stroke fill markers"/>
    <path d="M1108.625-404.719c10.94 12.154 27.486 12.837 44.6 12.049 15.913 37.782 5.615 39.651-4.95 47.376l-80.717-23.952c7.21-13.686 6.618-33.158 41.067-35.473z" style="display:inline;fill:#9b6840;fill-opacity:1;stroke-width:5.5;stroke-linecap:round;stroke-linejoin:round;paint-order:stroke fill markers"/>
    <path d="M1153.224-392.67c8.331 2.923 17.426 2.626 22.628 18.738l2.097 17.575-2.64 17.3-27.035-6.237c11.432-11.078 13.082-26.87 4.95-47.376z" style="display:inline;fill:#7c4721;fill-opacity:1;stroke-width:5.5;stroke-linecap:round;stroke-linejoin:round;paint-order:stroke fill markers"/>
    <ellipse cx="1151.851" cy="-373.739" rx="9.416" ry="9.933" style="display:inline;fill:#7c4721;fill-opacity:1;stroke:none;stroke-width:6.33551;stroke-linecap:round;stroke-linejoin:round;stroke-miterlimit:4;stroke-dasharray:none;stroke-opacity:1;paint-order:stroke fill markers"/>
    <path d="M1108.625-404.719c8.473 6.846 17.664 12.29 29.773 12.031.199.587-17.086 5.829-23.376 2.375-4.085-2.243-6.397-14.406-6.397-14.406z" style="display:inline;fill:#844f25;stroke-width:5.5;stroke-linecap:round;stroke-linejoin:round;paint-order:stroke fill markers"/>
    <path d="M1088.947-407.925c7.651-2.22 23.468 2.822 19.723 3.434-22.16.867-32.097 15.14-40.494 35.245l-7.867-2.298c0-.107 14.196-32.188 28.638-36.38z" style="display:inline;fill:#d09e79;stroke-width:5.5;stroke-linecap:round;stroke-linejoin:round;paint-order:stroke fill markers"/>
    <path d="M1060.5-369.795c38.66 10.342 74.43 23.35 115.477 30.86" style="display:inline;fill:none;fill-opacity:1;stroke:#392517;stroke-width:4.3;stroke-linecap:round;stroke-linejoin:round;stroke-miterlimit:4;stroke-dasharray:none;stroke-opacity:1;paint-order:stroke fill markers"/>
    <path d="M1174.328-321.12c-42.777-8.164-84.943-17.538-122.665-36.444 0 0-49.544-.47-46.638 1.177 60.305 34.154 211.04 62.804 206.683 59.041-10.489-9.061-23.91-16.734-37.38-23.774 0 0 5.438-30.288 2.999-46.487-1.531-10.165-3.62-17.087-12.545-22.186-9.934-5.674-25.624-2.48-37.956-3.889-6.64-.758-22.388-20.314-37.75-14.053-17.83 7.267-37.639 50.171-37.413 50.171v0" style="fill:none;fill-opacity:1;stroke:#392517;stroke-width:4.3;stroke-linecap:round;stroke-linejoin:round;stroke-miterlimit:4;stroke-dasharray:none;stroke-opacity:1;paint-order:stroke fill markers"/>
  </g>
  <g style="display:inline;filter:url(#m)" transform="matrix(-.94904 0 0 .94904 99.847 410.397)">
    <path d="M73.107-315.164c-5.361.197-9.95 5.208-9.768 10.554-.045 5.29 4.51 10.227 9.847 10.37 4.609.219 9.187-2.932 10.435-7.41 1.421-4.608-.721-10.106-5.067-12.306a10.673 10.673 0 0 0-5.447-1.208z" style="display:inline;fill:#fafdf9;fill-opacity:1;stroke:none;stroke-width:17.4216;stroke-linecap:round;stroke-linejoin:round;paint-order:stroke fill markers;filter:url(#n)"/>
    <path d="M72.5-311.066c-2.838.525-5.055 3.16-5.149 6.035-.19 2.902 1.805 5.781 4.625 6.55 2.754.832 5.941-.519 7.27-3.068 1.471-2.55.894-6.049-1.317-7.995-1.445-1.325-3.505-1.89-5.429-1.522z" style="display:inline;fill:#f0cb84;fill-opacity:1;stroke:none;stroke-width:17.4216;stroke-linecap:round;stroke-linejoin:round;paint-order:stroke fill markers;filter:url(#n)" transform="matrix(.86059 0 0 .83967 10.275 -48.853)"/>
  </g>
  <g style="display:inline;filter:url(#m)" transform="matrix(-.94904 0 0 .94904 191.805 302.283)">
    <path d="M73.107-315.164c-5.361.197-9.95 5.208-9.768 10.554-.045 5.29 4.51 10.227 9.847 10.37 4.609.219 9.187-2.932 10.435-7.41 1.421-4.608-.721-10.106-5.067-12.306a10.673 10.673 0 0 0-5.447-1.208z" style="display:inline;fill:#fafdf9;fill-opacity:1;stroke:none;stroke-width:17.4216;stroke-linecap:round;stroke-linejoin:round;paint-order:stroke fill markers;filter:url(#n)"/>
    <path d="M72.5-311.066c-2.838.525-5.055 3.16-5.149 6.035-.19 2.902 1.805 5.781 4.625 6.55 2.754.832 5.941-.519 7.27-3.068 1.471-2.55.894-6.049-1.317-7.995-1.445-1.325-3.505-1.89-5.429-1.522z" style="display:inline;fill:#f0cb84;fill-opacity:1;stroke:none;stroke-width:17.4216;stroke-linecap:round;stroke-linejoin:round;paint-order:stroke fill markers;filter:url(#n)" transform="matrix(.86059 0 0 .83967 10.275 -48.853)"/>
  </g>
  <g style="display:inline" transform="rotate(5.736 -3802.738 -414.702)">
    <path d="M123.62-355.22c-3.563.12-6.633 3.276-6.766 6.816-.184 2.89 1.561 5.743 4.205 6.915 3.007 1.464 6.938.387 8.8-2.387 2.053-2.752 1.686-6.953-.834-9.29-1.417-1.388-3.417-2.181-5.406-2.055z" style="display:inline;fill:#f8f6f8;fill-opacity:1;stroke:none;stroke-width:8.20389;stroke-linecap:round;stroke-linejoin:round;paint-order:stroke fill markers;filter:url(#o)"/>
    <path d="M110.568-371.846c-5.067.06-9.77 4.654-9.485 9.805.043 2.788 1.452 5.824 4.203 6.84 4.986.515 4.792-4.387 3.967-6.333-1.21-2.854 4.154-3.425 3.524.44-.216 1.332-.74 3.097-.189 5.68.369 1.721 1.663 3.425 3.547 4.74 1.641.676 3.782.74 5.065-.676 1.52-1.444 1.198-3.578.105-5.485-2.61-1.81-.892-2.873-.682-5.144.162-4.907-3.944-9.565-8.88-9.845-.391-.036-.783-.023-1.175-.022z" style="display:inline;fill:none;fill-opacity:1;stroke:#f8f6f8;stroke-width:5.508;stroke-linecap:round;stroke-linejoin:round;stroke-opacity:1;paint-order:stroke fill markers;filter:url(#p)"/>
    <ellipse cx="124.02" cy="-348.033" rx="3.19" ry="3.212" style="display:inline;fill:#e9be79;fill-opacity:1;stroke:none;stroke-width:8.20389;stroke-linecap:round;stroke-linejoin:round;paint-order:stroke fill markers;filter:url(#o)"/>
    <path d="M105.956-359.254c-3.305-5.773 3.285-10.536 7.878-7.81 1.944 1.154 2.935 3.362 2.772 5.39-.097 1.217-1.271 3.807-.569 5.231l2.36 2.403" style="display:inline;fill:none;fill-opacity:1;stroke:#ebbc68;stroke-width:5.508;stroke-linecap:round;stroke-linejoin:round;stroke-opacity:1;paint-order:stroke fill markers;filter:url(#p)"/>
  </g>
  <g style="display:inline" transform="scale(-1 1) rotate(31.603 -749.057 -780.752)">
    <path d="M304.313-421.227c-6.98.124-13.369 5.847-14.239 12.778-.962 6.249 2.48 12.937 8.24 15.62 5.462 2.683 12.587 1.68 16.887-2.7 3.739-3.603 5.443-9.209 4.157-14.263-1.407-5.947-6.748-10.81-12.885-11.34-.718-.08-1.439-.11-2.16-.095z" style="display:inline;fill:#fbfcfc;fill-opacity:1;stroke:none;stroke-width:8.68847;stroke-linecap:round;stroke-linejoin:round;stroke-opacity:1;paint-order:stroke fill markers;filter:url(#q)"/>
    <ellipse cx="304.847" cy="-406.281" rx="8.938" ry="8.969" style="display:inline;fill:#ea9970;fill-opacity:1;stroke:none;stroke-width:8.68847;stroke-linecap:round;stroke-linejoin:round;stroke-opacity:1;paint-order:stroke fill markers;filter:url(#q)"/>
    <path d="M296.428-398.412c-4.1.067-7.6 4.157-6.983 8.226.43 3.6 3.815 6.626 7.48 6.427 3.127-.072 6.109-2.274 6.904-5.332.85-2.997-.375-6.497-3.078-8.125-1.272-.829-2.803-1.269-4.323-1.196z" style="display:inline;fill:#fbfcfc;fill-opacity:1;stroke:none;stroke-width:26.6352;stroke-linecap:round;stroke-linejoin:round;stroke-opacity:1;paint-order:stroke fill markers;filter:url(#r)"/>
    <ellipse cx="296.753" cy="-391.085" rx="3.37" ry="3.348" style="display:inline;fill:#e5a37f;fill-opacity:1;stroke:none;stroke-width:26.6352;stroke-linecap:round;stroke-linejoin:round;stroke-opacity:1;paint-order:stroke fill markers;filter:url(#r)"/>
    <ellipse cx="301.922" cy="-407.344" rx="1.453" ry="1.563" style="display:inline;fill:#efd0c6;fill-opacity:.818318;stroke:none;stroke-width:7.83256;stroke-linecap:round;stroke-linejoin:round;stroke-opacity:1;paint-order:stroke fill markers;filter:url(#s)"/>
    <ellipse cx="306.078" cy="-408.906" rx="1.453" ry="1.563" style="display:inline;fill:#efd0c6;fill-opacity:.833333;stroke:none;stroke-width:7.83256;stroke-linecap:round;stroke-linejoin:round;stroke-opacity:1;paint-order:stroke fill markers;filter:url(#s)" transform="matrix(.89333 0 0 .89161 32.654 -44.503)"/>
    <ellipse cx="306.078" cy="-408.906" rx="1.453" ry="1.563" style="display:inline;fill:#efd0c6;fill-opacity:.797297;stroke:none;stroke-width:7.83256;stroke-linecap:round;stroke-linejoin:round;stroke-opacity:1;paint-order:stroke fill markers;filter:url(#s)" transform="matrix(1.08534 0 0 .84419 -24.539 -59.264)"/>
    <ellipse cx="306.078" cy="-408.906" rx="1.453" ry="1.563" style="display:inline;fill:#efd0c6;fill-opacity:.795796;stroke:none;stroke-width:7.83256;stroke-linecap:round;stroke-linejoin:round;stroke-opacity:1;paint-order:stroke fill markers;filter:url(#s)" transform="matrix(1.22894 0 0 .8715 -72.55 -46.527)"/>
  </g>
  <g transform="translate(-910.36 425.284)">
    <path d="M1212.598-338.541c-3.783.122-6.71 4.443-5.33 7.99 1.09 3.272 5.273 5.11 8.359 3.455 3.017-1.365 4.42-5.473 2.654-8.33-1.085-2.029-3.4-3.256-5.683-3.115z" style="fill:#fafcfa;fill-opacity:1;stroke:none;stroke-width:19.2113;stroke-linecap:round;stroke-linejoin:round;stroke-miterlimit:4;stroke-dasharray:none;stroke-opacity:1;paint-order:stroke fill markers;filter:url(#t)" transform="matrix(1.27446 0 0 1.26778 -333.234 88.941)"/>
    <ellipse cx="1213" cy="-332.517" rx="2.919" ry="2.895" style="fill:#edc87b;fill-opacity:1;stroke:none;stroke-width:19.2113;stroke-linecap:round;stroke-linejoin:round;stroke-miterlimit:4;stroke-dasharray:none;stroke-opacity:1;paint-order:stroke fill markers;filter:url(#t)" transform="matrix(1.06937 0 0 1.06376 -84.462 21.103)"/>
    <path d="M1227.186-359.46c-3.083.011-5.53 2.179-7.694 4.122-2.375 2.24-4.614 4.721-6.111 7.643-1.466 3.69-1.49 8.263 1.047 11.504 2.905 3.761 8.296 4.861 12.695 3.459 3.523-1.09 6.133-3.892 8.475-6.6 2.09-2.55 4.162-5.388 4.627-8.738.317-3.45-1.964-6.542-4.642-8.462-2.412-1.79-5.358-2.999-8.397-2.929z" style="fill:#fafcfa;fill-opacity:1;stroke-width:12.9381;stroke-linecap:round;stroke-linejoin:round;paint-order:stroke fill markers;filter:url(#u)"/>
    <path d="M1217.082-346.232c1.681-2.89 5.077-6.597 8.271-8.66 3.379-2.183 10.788 2.269 10.911 6.073.101 3.14-6.225 10.579-9.495 11.971-5.078 2.162-12.79-.591-9.687-9.384z" style="fill:#f2d68e;stroke-width:12.9381;stroke-linecap:round;stroke-linejoin:round;paint-order:stroke fill markers;filter:url(#v)"/>
    <path d="M1217.082-346.232c1.681-2.89 5.077-6.597 8.271-8.66 3.379-2.183 10.788 2.269 10.911 6.073.101 3.14-6.225 10.579-9.495 11.971-5.078 2.162-12.79-.591-9.687-9.384z" clip-path="url(#x)" style="display:inline;fill:#eac076;fill-opacity:1;stroke-width:12.9381;stroke-linecap:round;stroke-linejoin:round;paint-order:stroke fill markers;filter:url(#w)"/>
    <path d="M1217.082-346.232c1.681-2.89 5.077-6.597 8.271-8.66 3.379-2.183 10.788 2.269 10.911 6.073.101 3.14-6.225 10.579-9.495 11.971-5.078 2.162-12.79-.591-9.687-9.384z" clip-path="url(#z)" style="fill:#e9b15e;fill-opacity:1;stroke-width:12.9381;stroke-linecap:round;stroke-linejoin:round;paint-order:stroke fill markers;filter:url(#y)"/>
    <path d="M1217.082-346.232c1.681-2.89 5.077-6.597 8.271-8.66 3.379-2.183 10.788 2.269 10.911 6.073.101 3.14-6.225 10.579-9.495 11.971-5.078 2.162-12.79-.591-9.687-9.384z" clip-path="url(#B)" style="fill:#e9b15e;fill-opacity:1;stroke-width:12.9381;stroke-linecap:round;stroke-linejoin:round;paint-order:stroke fill markers;filter:url(#A)"/>
  </g>
  <g transform="translate(-910.36 425.284)">
    <path d="M1245.352-309.809c-12.141.259-23.793 8.46-27.832 19.963-3.87 10.392-1.354 22.918 6.44 30.855a31.382 31.382 0 0 0 6.487 5.192c.362.675 1.11 1.24.89 2.08a224.134 224.134 0 0 0-2.648 13.442c-.143.96-.349 2.183-.491 3.162-.338 2.476-.737 4.946-.995 7.43-.086 1.83.15 3.845 1.329 5.318 1.236 1.53 3.252 2.01 5.128 2.098 2.463.185 5.061.078 7.337-.963 1.33-.647 2.12-1.965 2.531-3.336.8-2.431 1.117-4.987 1.692-7.475a351.842 351.842 0 0 0 2.383-13.357c.24-.835.532-1.647.597-2.515.265-1.164 1.446-1.837 2.583-1.802 9.81-1.399 18.881-7.755 23.149-16.758 4.22-8.55 4.066-19.165-.638-27.494-4.618-8.463-13.444-14.51-23.045-15.59a33.953 33.953 0 0 0-4.897-.25z" style="display:inline;fill:#f8f6f8;fill-opacity:1;stroke-width:2.5;stroke-linecap:round;stroke-linejoin:round;paint-order:stroke fill markers;filter:url(#C)"/>
    <path d="M1240.344-228.531c-.15 1.599-.383 2.885-1.546 3.52-2.757 1.505-8.001 1.041-7.645-2.139.526-4.699 2.528-16.38 3.732-20.895.246-.922 1.12-.329 1.71-.329 1.575 0 7.133-.32 7.067 1.628-.137 4.047-3.024 15.062-3.318 18.215z" style="display:inline;fill:#c89a67;stroke-width:2.5;stroke-linecap:round;stroke-linejoin:round;paint-order:stroke fill markers;filter:url(#C)"/>
    <path d="m1236.469-256.031 8.16 1.406-.535 7.375-8.969-1.344z" style="display:inline;fill:#55514f;stroke-width:2.5;stroke-linecap:round;stroke-linejoin:round;paint-order:stroke fill markers;filter:url(#D)"/>
    <path d="M1245.37-305.809c-10.306.269-20.214 7.063-23.878 16.75-3.19 8.063-2.03 17.739 3.184 24.704 5.005 6.89 13.443 11.16 21.974 10.96 8.57-.086 17.067-4.449 21.827-11.63a26.103 26.103 0 0 0 2.558-4.778c.104-.273.38-.964.527-1.402 2.041-5.85 1.904-12.435-.498-18.158-2.9-7.104-9.013-12.844-16.36-15.125a27.553 27.553 0 0 0-9.335-1.32z" style="fill:#29160b;fill-opacity:1;stroke:none;stroke-width:2.75359;stroke-linecap:round;stroke-linejoin:round;stroke-miterlimit:4;stroke-dasharray:none;stroke-opacity:1;paint-order:stroke fill markers;filter:url(#E)"/>
    <path d="M1245.352-303.807c-8.236.272-16.209 4.933-20.348 12.081-3.734 6.3-4.352 14.34-1.544 21.115 2.868 7.091 9.26 12.606 16.682 14.442 7.597 1.968 16.085.123 22.104-4.937 5.762-4.748 9.15-12.266 8.708-19.74-.375-7.892-4.945-15.421-11.758-19.42-4.14-2.496-9.017-3.723-13.844-3.54z" style="fill:#584c49;fill-opacity:1;stroke:none;stroke-width:2.75359;stroke-linecap:round;stroke-linejoin:round;stroke-miterlimit:4;stroke-dasharray:none;stroke-opacity:1;paint-order:stroke fill markers;filter:url(#E)"/>
    <path d="M1244.147-299.723c-2.998.34-5.921 1.29-8.52 2.83a20.84 20.84 0 0 0-6.605 6.278 20.37 20.37 0 0 0-3.163 8.48c-.373 3.01-.062 6.098.915 8.973 1 2.874 2.65 5.51 4.79 7.674 2.618 2.606 5.932 4.516 9.518 5.422 3.108.821 6.403.874 9.55.238 3.66-.773 7.123-2.52 9.866-5.072a20.157 20.157 0 0 0 5.458-8.407 19.84 19.84 0 0 0 .624-10.262c-.652-3.27-2.174-6.35-4.309-8.905-2.283-2.69-5.253-4.796-8.567-6.017-3.002-1.145-6.271-1.53-9.467-1.237z" style="fill:#221912;fill-opacity:1;stroke:none;stroke-width:2.75359;stroke-linecap:round;stroke-linejoin:round;stroke-miterlimit:4;stroke-dasharray:none;stroke-opacity:1;paint-order:stroke fill markers;filter:url(#E)"/>
    <ellipse cx="1246.344" cy="-279.608" rx="18.656" ry="18.233" style="fill:#e7e9ef;fill-opacity:1;stroke:none;stroke-width:2.75359;stroke-linecap:round;stroke-linejoin:round;stroke-miterlimit:4;stroke-dasharray:none;stroke-opacity:1;paint-order:stroke fill markers;filter:url(#F)"/>
    <path d="M1242.652-284.677c1.956-6.2 10.66-4.63 9.214 1.57-.619 2.651-5.096 3.118-6.165 5.48-.393.866-.53 3.137-.53 3.137" style="fill:none;fill-opacity:1;stroke:#322723;stroke-width:3;stroke-linecap:round;stroke-linejoin:round;stroke-miterlimit:4;stroke-dasharray:none;stroke-opacity:1;paint-order:stroke fill markers;filter:url(#G)"/>
    <circle cx="1244.784" cy="-270.913" r="2.022" style="fill:#322723;fill-opacity:1;stroke:none;stroke-width:5.773;stroke-linecap:round;stroke-linejoin:round;stroke-miterlimit:4;stroke-dasharray:none;stroke-opacity:1;paint-order:stroke fill markers;filter:url(#H)" transform="matrix(1.06186 0 0 1.06186 -77.132 17.384)"/>
    <path d="M1235.156-248.719c2.83.945 5.595.892 8.304.953" style="fill:none;fill-opacity:1;stroke:#28150b;stroke-width:1.7;stroke-linecap:round;stroke-linejoin:round;stroke-miterlimit:4;stroke-dasharray:none;stroke-opacity:1;paint-order:stroke fill markers;filter:url(#I)"/>
    <path d="M1236.553-256.238s-5.398 20.688-5.082 31.069c.043 1.421 7.64 1.155 7.959.132 2.84-9.108 5.299-29.756 5.299-29.756" style="fill:none;fill-opacity:1;stroke:#28150b;stroke-width:1.7;stroke-linecap:round;stroke-linejoin:round;stroke-miterlimit:4;stroke-dasharray:none;stroke-opacity:1;paint-order:stroke fill markers;filter:url(#J)"/>
  </g>
</svg>
