<?xml version="1.0" encoding="UTF-8" standalone="no"?>
<!-- Created with Inkscape (http://www.inkscape.org/) -->

<svg
   version="1.1"
   id="svg1"
   width="500.6373"
   height="327.74509"
   viewBox="0 0 500.6373 327.74509"
   xml:space="preserve"
   xmlns="http://www.w3.org/2000/svg"
   xmlns:svg="http://www.w3.org/2000/svg"><defs
     id="defs1"><filter
       style="color-interpolation-filters:sRGB"
       id="filter43"
       x="-0.079407505"
       y="-0.16876924"
       width="1.158815"
       height="1.3375385"><feGaussianBlur
         stdDeviation="0.47416359"
         id="feGaussianBlur43" /></filter></defs><path
     id="path97"
     style="display:inline;fill:#f8f6f8;fill-opacity:1"
     d="m 436.62101,175.77349 c -1.39185,0.0308 -2.39189,1.1292 -3.78711,3.3867 -1.2154,1.9665 -5.11692,7.254 -8.66992,11.75 -3.5531,4.496 -7.04577,9.2988 -7.75977,10.6738 -2.7027,5.2046 -1.25892,16.6753 2.42187,19.2481 3.6135,2.5258 6.67303,1.6715 13.98633,-3.9004 3.9192,-2.986 7.56386,-5.158 8.09766,-4.8281 1.555,0.961 1.12575,3.0284 -1.03125,4.9804 -3.5751,3.2354 -2.11048,3.5088 2.41992,0.4512 2.4302,-1.6401 8.32963,-4.7245 13.11133,-6.8535 4.7817,-2.129 10.68157,-5.2712 13.10937,-6.9824 l 4.41407,-3.1113 -1.55078,-2.9981 c -0.8932,-1.7273 -3.13085,-3.6765 -5.27735,-4.5976 -3.5937,-1.5423 -4.05526,-1.4919 -12.97656,1.4082 -9.4055,3.0575 -10.75474,2.8272 -7.89844,-1.3438 3.8502,-5.6222 2.62265,-10.8999 -3.47265,-14.9336 -2.37647,-1.5727 -3.90862,-2.3768 -5.13672,-2.3496 z m -209.28321,22.8398 c -0.8165,-0.045 -1.69674,0.5502 -2.42773,1.9161 -1.771,3.3092 -2.90697,20.0452 -4.04297,59.5546 -1.0929,38.0122 -1.20748,39.6157 -3.17578,44.75 -1.3854,3.6137 -5.38802,3.66952 -11.38281,0.1563 -2.43046,-1.42436 -6.89031,-4.12497 -7.31295,-3.69528 -0.42181,0.42885 3.18933,3.9846 5.05513,5.97068 3.19666,3.40274 1.60714,3.845 -2.22656,0.6191 0,0 -3.12227,-2.98577 -3.30664,-2.7832 -0.1559,0.17129 1.88867,2.9922 1.88867,2.9922 1.0385,1.6453 2.91859,4.2637 4.17969,5.8184 1.261,1.5547 2.29297,3.4356 2.29297,4.1816 0,1.8474 8.21735,8.4514 11.68945,9.3945 2.6701,0.7252 5.81445,-0.0881 9.31055,-2.4082 3.3191,-2.2026 8.72822,-10.2849 10.01562,-14.9648 2.2167,-8.058 1.65512,-36.9569 -1.02148,-52.5313 -1.91619,-11.1497 -3.26446,-24.8432 -3.72266,-37.8183 -0.3592,-10.1684 -0.80209,-13.4472 -1.87109,-13.8574 -0.7701,-0.2955 -1.40039,-1.3515 -1.40039,-2.3477 0,-3.0194 -1.18017,-4.8722 -2.54102,-4.9473 z m -69.44336,0.1993 c -2.03121,0.004 -4.38442,0.2491 -7.67187,0.7382 -10.4738,1.5582 -10.72951,2.7945 -2.25391,10.8848 0,0 5.96311,5.06569 6.08789,5.8106 0.0728,0.43453 -3.83789,5.2968 -3.83789,5.2968 -2.1111,2.9134 -6.42734,8.608 -9.58984,12.6543 -3.1625,4.0464 -5.75,7.6304 -5.75,7.9649 0,0.008 0.002,0.0157 0.004,0.0215 4.6e-4,9e-4 0.003,0.005 0.004,0.006 l 0.002,0.002 c 6.7e-4,7e-4 0.003,0.003 0.004,0.004 l 0.002,0.002 0.002,0.002 c 0.22263,0.123 2.32934,-1.3934 4.87109,-3.5215 8.2658,-6.9205 7.66793,-4.7496 -1.38867,5.041 -6.6261,7.1632 -11.84696,11.0534 -13.81836,10.2969 -2.3799,-0.9132 -4.96377,5.9247 -4.35938,11.5371 0.34191,3.1745 1.22459,5.105 3.05079,6.6758 l 2.57031,2.2109 8.4707,-2.8808 c 4.6588,-1.5846 10.6348,-3.9696 13.2793,-5.2989 9.4852,-4.7677 11.37721,-4.3909 7.22851,1.4356 -1.8305,2.5706 -10.80608,8.129 -9.36718,5.8008 0.8216,-1.3294 -0.91768,-1.1148 -2.73438,0.3378 -1.8907,1.5119 -3.82031,7.0041 -3.82031,10.877 0,1.8985 0.80788,3.3562 2.45508,4.4355 2.2563,1.4784 2.90839,1.4752 8.11718,-0.039 7.59761,-2.2087 8.05058,-1.70462 8.23438,4.2168 0,0 0.2678,4.20601 -0.30664,4.7597 -0.51306,0.49453 -7.48438,2.5254 -7.48438,2.5254 -5.8991,1.9903 -7.66916,3.0506 -8.35546,5.002 -1.1173,3.1769 0.63938,9.8418 3.36328,12.7656 2.6169,2.8089 3.50004,2.7723 10.49414,-0.4297 10.1257,-4.6357 27.00453,-22.1253 37.83594,-39.207 0.033,-0.052 0.0445,-0.0913 0.0371,-0.1152 -0.002,-0.004 -0.005,-0.0107 -0.008,-0.0137 -0.23708,-0.2122 -3.73239,1.8475 -8.29883,4.918 -12.6159,8.483 -12.08398,8.4293 -12.08398,1.2109 0,0 -0.17342,-5.71665 0,-6.0606 0.20285,-0.40231 4.60937,-3.1699 4.60937,-3.1699 2.5352,-1.7442 4.2227,-3.4541 3.75,-3.7988 -0.4727,-0.3447 -0.85937,-1.752 -0.85937,-3.127 0,-1.9973 -0.9551,-2.9566 -4.75,-4.7695 -3.7361,-1.785 -4.75,-2.7867 -4.75,-4.6933 0,-3.035 2.65598,-4.9249 10.64648,-7.584 5.5688,-1.8532 6.36566,-2.4602 7.41016,-5.625 1.0192,-3.0883 0.91698,-3.8881 -0.79492,-6.1875 -3.6579,-4.9132 -19.27381,-12.5278 -19.25781,-9.3907 0.002,0.4125 0.9318,2.2739 2.0664,4.1348 1.1345,1.861 1.6952,3.7121 1.2461,4.1152 -0.8757,0.786 -24.82284,10 -25.99024,10 -1.1148,0 4.50892,-5.671 13.32422,-13.4355 4.8096,-4.2362 9.85977,-7.742 12.32227,-8.5547 5.1519,-1.7003 8.02734,-5.1903 8.02734,-9.7422 0,-7.9063 -6.68085,-15.031 -16.24805,-17.3261 -1.9966,-0.4789 -3.70511,-0.7169 -5.73633,-0.7129 z m 221.72071,1.9082 c -1.55122,-0.0478 -2.16126,0.7048 -2.91602,2.3613 -0.949,2.083 -0.67884,3.6658 1.62695,9.543 l 2.76368,7.0449 -2.60547,3.9355 c -1.4327,2.165 -2.60547,4.1781 -2.60547,4.4727 0,0.2946 1.6875,-0.5761 3.75,-1.9336 2.8349,-1.8659 5.0388,-2.456 9.0293,-2.418 9.4872,0.0903 12.54335,-4.4448 8.59765,-12.7597 -1.9519,-4.1135 -5.21148,-6.5254 -11.80469,-8.7325 -2.85368,-0.9552 -4.62943,-1.4765 -5.83593,-1.5136 z m -80.00196,13.2089 c -2.23883,-0.0583 -3.40059,0.3753 -4.83789,1.5391 -1.9703,1.5954 -2.30665,2.6454 -2.00195,6.2656 0.6885,8.1796 0.51982,17.3496 -0.55078,29.8496 -0.9977,11.6481 -0.56781,22.8799 1.11719,29.168 1.0481,3.9118 0.13156,4.3228 -20.96094,9.3887 -11.843,2.8444 -12.5,2.8933 -12.5,0.9433 0,-3.1553 -3.11249,-1.3501 -5.80469,3.3653 -1.1638,2.0384 -0.95797,2.8285 1.89063,7.2676 3.4382,5.3579 8.58446,9.8671 11.25976,9.8671 0.9106,0 1.6543,0.4221 1.6543,0.9375 h 0.002 c 0,1.2766 4.9366,0.5052 22,-3.4394 7.975,-1.8436 15.625,-3.5843 17,-3.8672 0.2793,-0.0575 0.42605,-0.1059 0.45508,-0.1445 l 0.002,-0.002 0.002,-0.002 v -0.002 l 0.002,-0.002 v -0.002 -0.002 -0.002 -0.002 -0.002 l -0.002,-0.002 v -0.002 c -0.0937,-0.1262 -1.77774,-0.1227 -4.45899,0.0351 0,0 -6.25333,0.79448 -6.5,0.3829 -0.24752,-0.41299 4.5,-1.4512 4.5,-1.4512 2.475,-0.7981 11.025,-2.3719 19,-3.4961 7.975,-1.1242 15.2875,-2.2744 16.25,-2.5566 3.4081,-0.999 1.6935,1.7472 -2,3.2031 -3.85882,1.5212 -8.45634,3.7376 -8.4414,3.9883 2.7e-4,0.001 0.001,0.005 0.002,0.006 7e-4,9e-4 0.003,0.005 0.004,0.006 0.0448,0.0296 0.26367,-0.0121 0.68554,-0.1465 1.1,-0.3503 8.85628,-0.9582 17.23828,-1.3516 14.1231,-0.6629 15.4241,-0.8891 17.75,-3.0742 1.3805,-1.2969 2.51172,-2.8866 2.51172,-3.5332 0,-2.5093 -5.99526,-9.2702 -10.13086,-11.4258 -4.0315,-2.1013 -5.51159,-2.2553 -20.52929,-2.1269 -11.9874,0.1025 -16.38524,-0.1863 -16.95704,-1.1114 -0.42459,-0.687 -0.96592,-6.3178 -1.20312,-12.5136 -0.4774,-12.4725 -0.89999,-11.68 6.82031,-12.7637 4.1745,-0.586 4.3553,-0.5205 2.5,0.8867 -2.5154,1.908 5.51605,-0.8949 12.93555,-4.5136 6.3927,-3.118 7.26638,-4.6203 5.70898,-9.8184 -1.0326,-3.4465 -2.02731,-4.5027 -6.25781,-6.6465 -2.71433,-1.37549 -3.99772,-2.72649 -5.0293,-2.5469 -2.97707,0.51827 -8.42968,2.4278 -8.42968,2.4278 l -8.42774,2.4297 -0.0371,-3.127 c -0.2014,-17.5943 -2.14063,-20.7453 -13.58203,-22.0684 -1.0358,-0.1197 -1.90216,-0.1934 -2.64844,-0.2129 z m 159.27344,5.7032 c -0.91206,0.004 -2.02072,0.0805 -3.45117,0.1953 -6.7712,0.5435 -14.60267,4.001 -18.48047,8.1582 -2.6929,2.8869 -4.07617,3.3005 -4.07617,1.2207 0,-0.7577 -0.58192,-1.8613 -1.29492,-2.4531 -1.0125,-0.8403 -2.77141,1.7429 -8.03321,11.7968 -3.7054,7.08 -7.55076,15.2713 -8.54296,18.2032 -1.8959,5.6026 -2.99723,6.3735 -11.82813,8.2773 -3.1396,0.6769 -3.1846,0.6373 -2.375,-2.1855 0.4538,-1.5822 1.61453,-4.4255 2.57813,-6.3184 l 1.75195,-3.4434 -2.71875,2.5 c -1.4953,1.375 -5.20318,5.7956 -8.23828,9.8223 -3.035,4.0267 -7.88218,9.8608 -10.77149,12.9649 0,0 -4.80728,5.71678 -5.25195,5.6445 -0.29836,-0.0485 -1.75977,-3.4024 -1.75977,-3.4024 -2.2541,-4.3589 -1.58289,-13.6514 1.31641,-18.2304 1.6952,-2.6775 2.69637,-3.2243 6.23828,-3.4063 2.3498,-0.1208 5.37312,-1.088 6.82422,-2.1836 2.1973,-1.6591 2.59325,-2.7204 2.53125,-6.7675 -0.0678,-4.3933 -0.45799,-5.1425 -4.62109,-8.8692 -2.5012,-2.239 -6.74278,-4.9442 -9.42578,-6.0098 -2.6831,-1.0656 -5.44111,-2.6406 -6.12891,-3.5 -1.1121,-1.3894 -1.4722,-1.3003 -3.25,0.7989 -3.5177,4.1536 -2.42818,9.074 3.82422,17.2734 0,0 3.80463,4.46931 3.83008,5.0235 0.0456,0.99309 -2.21875,7.6718 -2.21875,7.6718 -1.2208,4.2193 -3.01112,11.7897 -3.97852,16.8242 0,0 -1.88398,8.45106 -1.75977,9.1543 0.0909,0.51455 2.55079,4.3457 2.55079,4.3457 4.5798,7.8045 7.1016,9.8457 12.16211,9.8457 0,0 4.07472,0.23433 4.50586,0 0.56402,-0.30655 2.11523,-7.25 2.11523,-7.25 1.1635,-3.9875 3.46619,-11.6025 5.11719,-16.9238 2.9996,-9.6681 3.00374,-9.6739 4.99804,-7.6797 1.4123,1.4124 3.07168,1.9168 5.67578,1.7246 2.7977,-0.2065 3.59418,0.0764 3.32618,1.1797 -1.2507,5.1474 -1.73748,12.8507 -0.98438,15.5782 0.487,1.7639 2.42028,4.5554 4.29688,6.2031 3.2894,2.888 3.69386,2.981 11.22656,2.5625 4.2975,-0.2387 12.0875,-1.0423 17.3125,-1.7852 5.225,-0.7429 9.6541,-1.2174 9.8418,-1.0547 0.6937,0.6013 -0.90623,4.0326 -3.23243,6.9317 -2.3283,2.9018 -2.51845,2.9535 -6.75195,1.8183 -2.3959,-0.6424 -5.25742,-1.4961 -6.35742,-1.8964 -1.7829,-0.649 -1.73542,-0.4399 0.42578,1.9316 2.9224,3.2066 2.00573,3.3993 -2.60937,0.5469 -1.8814,-1.1627 -3.60659,-1.9286 -3.83399,-1.7012 -0.2273,0.2274 3.50894,4.5578 8.30274,9.623 4.7938,5.0652 9.06368,9.2012 9.48828,9.2012 1.9954,-0.0229 13.52167,-5.998 15.89258,-8.2383 3.25,-3.0709 6.08481,-8.6055 7.82421,-15.2715 0.7175,-2.75 1.57671,-5.2954 1.90821,-5.6582 0.3314,-0.3629 3.46147,-0.9377 6.95508,-1.2773 7.60099,-0.7389 12.81946,-3.0494 11.22656,-4.9688 -0.5842,-0.7038 -0.77072,-1.569 -0.41602,-1.9238 0.3548,-0.3547 -1.89123,-1.7662 -4.99023,-3.1367 -3.9933,-1.7664 -6.54799,-2.3099 -8.77149,-1.8652 l -3.13672,0.6289 0.72852,-9.3985 c 0.4013,-5.1692 0.79314,-9.4725 0.86914,-9.5625 0.0761,-0.0898 4.63672,-0.4463 10.13672,-0.7929 11.9444,-0.7528 13.5,-1.1473 13.5,-3.4121 0,-0.9529 0.5215,-2.252 1.1582,-2.8887 1.8672,-1.8673 -0.54083,-3.8339 -8.36133,-6.8223 -6.7197,-2.5677 -7.19263,-2.6177 -9.83203,-1.0586 -1.5249,0.9008 -3.88168,1.6367 -5.23828,1.6367 -2.2777,0 -2.5195,-0.4676 -3.1582,-6.1132 -0.3804,-3.3625 -1.07708,-6.85 -1.54688,-7.75 -0.4697,-0.8999 -1.39684,-3.1007 -2.06054,-4.8907 -0.6636,-1.79 -2.80452,-4.6579 -4.75782,-6.373 -2.50065,-2.1956 -3.45911,-2.8355 -6.19531,-2.8242 z m -3.8789,8.9492 c 3.4095,0.006 4.37109,2.9585 4.37109,13.4062 v 10.0957 l -3.25,0.3145 c -3.4748,0.335 -4.18317,-0.7934 -1.75977,-2.8047 3.6453,-3.0253 -2.17393,-11.3923 -9.24023,-13.2851 -2.3375,-0.6261 -4.25,-1.4279 -4.25,-1.7813 0,-0.8662 12.07931,-5.9453 14.12891,-5.9453 z m -247.97071,3.5019 -2.02929,2.5 c -2.0062,2.472 -2.04386,2.4776 -3.50586,0.5 -1.7377,-2.3504 -1.51319,-2.8383 -4.61329,10 -4.0475,16.7617 -3.61709,25.6522 1.50391,31.0821 1.7732,1.8801 3.70201,3.4179 4.28711,3.4179 0.5851,0 1.99346,-1.3068 3.13086,-2.9043 1.8241,-2.5615 2.06836,-4.3695 2.06836,-15.332 0,-6.8359 -0.28356,-12.7132 -0.63086,-13.0605 -0.3472,-0.3472 -0.80317,-2.3341 -1.01367,-4.416 -0.2106,-2.082 -0.43314,-4.2372 -0.49414,-4.7872 -0.0612,-0.55 0.20625,-2.35 0.59375,-4 z m 228.97071,10.5 c 1.2478,0 2.74671,3.3638 3.44531,7.7325 0.574,3.5898 0.40455,4.0429 -1.71875,4.6113 -2.8721,0.7689 -5.85547,0.8415 -5.85547,0.1426 0,-1.9489 3.48441,-12.4864 4.12891,-12.4864 z m 23.50976,19.8868 -0.87891,7.8066 c -0.4835,4.294 -1.29177,9.3946 -1.79687,11.334 l -0.91797,3.5254 -10.79687,0.2832 c -5.9383,0.1551 -11.01641,0.0637 -11.28321,-0.2031 -0.2668,-0.2668 -2.50521,-0.7096 -4.97461,-0.9825 -2.4694,-0.2729 -4.79821,-0.52994 -5.17578,-0.5722 -1.13133,-0.12664 2.88027,-13.2709 4.32227,-14.1621 1.8676,-1.1542 6.04952,2.928 5.32812,5.2011 -0.7545,2.3771 4.19239,7.6857 8.21289,8.8125 2.4952,0.6994 3.4868,0.5336 4.6211,-0.7695 4.2971,-4.9364 4.33578,-9.2751 0.11719,-13.2383 -2.95901,-2.7798 -3.06071,-3.9219 -0.34961,-3.9219 1.1361,0 2.8236,-0.3966 3.75,-0.8828 0.9263,-0.4861 3.5159,-1.1862 5.7539,-1.5566 z" /><g
     id="g3204"
     transform="translate(-229.75034,-282.24104)"
     style="display:inline"><path
       style="display:inline;fill:#f8f6f8;fill-opacity:1;stroke-width:2;stroke-linecap:round;stroke-linejoin:round;paint-order:stroke fill markers"
       d="m 497.75,347.25 -4,5.5 c -32.03918,6.19103 -43.32561,48.23929 -23.875,60.625 31.06634,14.82274 51.58546,11.52829 71.28125,3.21875 13.54152,-16.05758 19.20315,-33.02083 0.59375,-53.71875 -7.65514,-5.11908 -13.80244,-5.73236 -21.125,-16.4375 -6.79662,1.01465 -6.23288,-2.56826 -7.531,-2.25072 -2.38643,0.58376 -4.7544,1.18932 -6.90516,-0.28816 -1.47747,3.17449 -3.88916,4.90976 -8.43884,3.35138 z"
       id="path740" /><path
       id="path38"
       style="display:inline;fill:#27304e;fill-opacity:1"
       d="m 519.54118,357.27753 c -0.0653,0.002 -0.11746,0.0179 -0.15235,0.0527 -0.3721,0.3721 1.19854,2.5521 3.49024,4.8438 2.2917,2.2916 4.47175,3.8622 4.84375,3.4902 0.3721,-0.3721 -1.19854,-2.552 -3.49024,-4.8437 -2.07676,-2.0769 -4.06059,-3.5598 -4.6914,-3.543 z m -22.86914,0.2832 c -0.52129,0.0259 -1.41865,0.3466 -2.70117,1.0098 -2.8572,1.4775 -4.97266,4.2389 -4.97266,6.4902 0,0.6246 1.97874,-0.5827 4.39844,-2.6836 3.47702,-3.0189 4.60756,-4.8825 3.27539,-4.8164 z m 15.89062,1.8125 c -0.87086,-0.002 -0.65924,3.1145 0.53321,6.5352 0.6038,1.7321 1.55046,3.1484 2.10546,3.1484 0.5551,0 0.70639,-0.7875 0.33399,-1.75 -0.3724,-0.9625 -0.92873,-2.9976 -1.23633,-4.5215 -0.3075,-1.5239 -0.95079,-3.0126 -1.42969,-3.3086 -0.11334,-0.07 -0.21655,-0.1033 -0.30664,-0.1035 z m -8.57422,0.211 c -0.5268,-0.003 -1.74311,1.9216 -2.81054,4.4902 -1.1387,2.7398 -1.66036,4.9824 -1.16016,4.9824 1.709,0 5.41621,-8.611 4.06641,-9.4453 -0.0288,-0.0178 -0.0606,-0.0271 -0.0957,-0.0273 z" /><path
       style="display:inline;opacity:1;mix-blend-mode:normal;fill:#d68938;fill-opacity:1;stroke:none;stroke-width:3;stroke-linecap:round;stroke-linejoin:round;stroke-dasharray:none;stroke-opacity:1;paint-order:stroke fill markers;filter:url(#filter43)"
       d="m 506.59027,351.07998 c -0.72348,0.0653 -0.87315,1.10285 -1.66495,1.24749 -1.026,0.18743 -2.28274,-0.47706 -2.56942,0.003 -0.32076,0.53658 -0.51011,1.2949 0.18594,1.68096 0.49452,0.27428 1.68022,0.36748 1.79843,1.10029 0.10847,0.67236 6.01716,0.73952 7.30688,0.12978 0.56949,-0.26923 -0.0115,-0.91102 0.63062,-1.06733 1.29018,-0.31408 2.41607,0.35611 2.71875,-0.0937 0.24295,-0.36103 -0.10103,-0.94696 1,-1.09375 0.88837,-0.11844 0.13253,-2.39068 -0.60937,-2.98437 -0.97598,-0.781 -0.28503,-1.14032 -1.4375,-1.07813 -0.74289,0.0401 -0.37223,1.10879 -1.07812,1.34375 -0.38999,0.12981 -2.12548,0.42543 -2.42188,0.14063 -0.31379,-0.30147 -0.20778,-0.85235 -0.54688,-1.125 -0.34106,-0.27421 -0.87626,-0.3996 -1.25,-0.17193 -0.76039,0.46321 -0.27817,0.83032 -1.09375,1.1875 -0.43275,0.18952 -0.49823,0.7388 -0.96875,0.7813 z"
       id="path42" /><path
       style="display:inline;opacity:1;fill:none;fill-opacity:1;stroke:#000000;stroke-width:3;stroke-linecap:round;stroke-linejoin:round;stroke-dasharray:none;stroke-opacity:0;paint-order:stroke fill markers"
       d="m 498.75,346.625 c -2.51093,0.51617 -2.92662,4.74065 -5.375,5.5 -37.65439,11.67824 -41.16218,54.85371 -19.64905,63.36612 19.54726,7.73453 54.97224,13.98119 68.8033,-1.12761 24.95591,-27.26137 2.38083,-52.78693 -17.00282,-61.41659 -3.03644,-1.35183 -1.37047,-5.96066 -4.58893,-6.79067 -1.24932,-0.32219 -2.32038,1.64519 -3.59375,1.4375 -1.87452,-0.30574 -2.4639,-3.4164 -4.34375,-3.6875 -1.29701,-0.18705 -2.28739,1.69694 -3.59375,1.59375 -1.33647,-0.10557 -2.06115,-2.45414 -3.375,-2.1875 -1.94802,0.39534 -1.4402,4.36518 -3.34375,4.9375 -1.35975,0.40882 -2.5467,-1.9109 -3.9375,-1.625 z"
       id="path36" /></g><path
     id="path101"
     style="display:inline;fill:#f8f6f8;fill-opacity:1"
     d="m 77.216869,0.02588326 c -14.1082,-0.34584 -30.9079,2.77834004 -47.4024,9.16797004 -16.3734,6.3427297 -15.6289,6.2199597 -15.6289,2.5956997 0,-3.6267297 -0.4299,-3.7141097 -4.9043,-0.98633 -6.8434,4.17203 -9.26019997,8.61233 -9.281199970035,17.03906 C -0.01793097,35.058123 3.455269,40.704993 9.798869,43.775883 c 0,0 3.77247,2.044 4.3945,2.12695 0.79997,0.10667 7.7461,-3.92578 7.7461,-3.92578 4.2603,-2.15993 9.6265,-5.0081 11.9258,-6.32812 2.2994,-1.32002 4.4492,-2.13291 4.7754,-1.80665 0.3263,0.32626 -0.9552,8.42026 -2.8457,17.98633 -1.8906,9.56608 -3.9174,21.44258 -4.5059,26.39258 -0.5885,4.95 -1.4129,11.925 -1.832,15.5 -0.4191,3.575 -0.6787,14.708517 -0.5762,24.742187 0.1783,17.45606 0.3025,18.50255 2.8809,24.24805 2.217,4.93998 3.6009,6.56698 7.8086,9.17382 3.2975,2.04289 6.5962,3.23537 9.2832,3.35743 4.1612,0.18903 4.1683,0.18232 5.3359,-4.41602 0,0 0.93845,-4.72091 1.17,-4.60547 0.31381,0.15645 1.2871,3 1.2871,3 0,0 1.10559,3.10766 1.2851,3 0.25292,-0.1517 0.6563,-2.5 0.6563,-2.5 0.3607,-1.375 0.5964,-5.875 0.5254,-10 -0.071,-4.125 -0.109,-15.9375 -0.084,-26.25 0,0 -0.26338,-17.931227 0.045,-18.749997 0.12343,-0.32771 3.8965,0 3.8965,0 2.1431,0 6.1067,-0.69375 8.8066,-1.54101 2.6999,-0.84726 6.9332,-1.94553 9.4082,-2.44141 2.475,-0.49588 6.075,-1.29593 8,-1.77734 4.1045,-1.02647 14.440501,0.96703 20.253901,3.90625 0,0 3.43243,1.5131 3.7539,1.89843 0.31095,0.37273 -1.5507,3.72657 -1.5507,3.72657 -3.1328,7.527317 -17.318601,18.942017 -33.886801,27.267567 -6.1482,3.08946 -9.1716,5.36503 -12.1543,9.14649 -1.6705,2.11791 -2.448,10.12948 -1.3515,13.91601 0.6177,2.1327 2.54,4.58057 5.1621,6.57032 4.0362,3.06281 4.2831,3.11761 7.2266,1.63476 2.0976,-1.05668 2.6572,-1.1253 1.7968,-0.2207 -0.6875,0.72283 -1.25,1.67328 -1.25,2.11328 0,1.40596 4.3852,0.7777 8,-1.14648 1.925,-1.02468 3.3413,-2.21662 3.1465,-2.64844 -0.1948,-0.43182 3.8552,-3.05368 9,-5.82617 7.422401,-3.99989 11.464401,-7.12399 19.578101,-15.13282 9.0487,-8.93181 10.7446,-11.17827 14.7305,-19.51953 4.8239,-10.09471 5.8792,-10.62543 2.4121,-1.21289 -3.1703,8.60665 -9.9859,18.26549 -18.498,26.21485 -4.1646,3.88925 -7.2928,7.07226 -6.9512,7.07226 1.8308,0 8.7956,-5.46527 13.6016,-10.67383 7.4578,-8.08264 10.6298,-12.90238 13.0996,-19.90039 1.9192,-5.43787 1.9879,-6.50302 0.8379,-12.92578 -2.4822,-13.863017 -9.7977,-22.976277 -23.8418,-29.697257 -4.7381,-2.2675 -8.7907,-4.26427 -9.0059,-4.4375 v 0 -0.002 c -0.1851,-0.20807 1.4266,-2.70907 3.6055,-5.58789 14.2669,-18.85083 17.0858,-31.1118 9.666,-42.03906 -4.2061,-6.19437 -13.3289,-15.0627997 -17.505901,-17.0175797 -5.8781,-2.75087 -13.3749,-4.20656004 -21.8398,-4.41406004 z m -1.7285,20.96483974 c 7.3639,-0.19149 16.6263,1.90601 19.8613,4.73047 2.7498,2.40086 3.0345,3.1317 2.4414,6.29297 -0.827,4.40862 -7.5809,13.74424 -14.1719,19.58984 -2.7134,2.40663 -8.738,6.84268 -13.3886,9.85743 -10.0153,6.49199 -10.8978,6.88453 -11.4532,5.11328 -0.2334,-0.74457 -0.6814,-7.17206 -0.9961,-14.28321 -0.5146,-11.62744 -0.8216,-13.28891 -3.0527,-16.5 -1.3645,-1.96385 -3.3948,-4.13596 -4.5117,-4.82812 -1.1169,-0.69216 -2.0313,-1.63175 -2.0313,-2.08789 0,-1.10817 18.2508,-6.86329 24.2871,-7.65821 0.9514,-0.12527 1.9637,-0.1992 3.0157,-0.22656 z m 98.574201,29.0586 c -5.1898,0.12685 -10.6187,2.30253 -18.0684,6.72265 -5.9249,3.51545 -7.0495,4.69264 -9.7969,10.27344 -2.4699,5.01697 -2.9104,6.80173 -2.1582,8.74023 1.1211,2.88883 6.0218,7.68397 8.1465,7.97071 3.0508,0.4117 4.0967,-0.14033 9.4629,-5 6.5086,-5.89425 11.9687,-8.85768 17.7949,-9.65625 6.1678,-0.84539 8.8382,1.56584 9.5137,8.5957 0.4396,4.57538 0.2881,5.26208 -1.0566,4.74609 -10.6756,-4.09663 -25.6641,2.10147 -35.7364,14.7793 -6.8552,8.628447 -9.352,16.555827 -7.9433,25.210937 0.7102,4.36397 1.9024,6.68795 6.0586,11.81055 6.0463,7.45218 9.7166,9.48713 17.0586,9.45703 6.9954,-0.0287 12.546,-2.63511 19.375,-9.09375 l 5.498,-5.19727 5.4453,6.01758 c 6.2037,6.85528 9.9337,8.81765 14.9688,7.87305 4.7222,-0.88588 7.5605,-4.69834 7.5605,-10.1543 0,-2.36837 -0.4141,-4.56318 -0.9218,-4.87695 -0.5077,-0.31376 -1.2201,-1.91814 -1.5821,-3.56641 -0.362,-1.64827 -1.5209,-3.45866 -2.5761,-4.02344 -1.0555,-0.56477 -1.92,-1.6646 -1.92,-2.07938 0,-0.0163 -1.9861,-15.09933 -1.9861,-15.09933 l -0.048,-2.63573 c -0.1042,-7.728717 -5.5104,-19.519547 -5.6953,-20.642577 -2.1382,-12.98784 -8.1028,-21.46555 -18.8829,-26.84375 -4.5824,-2.28617 -8.4732,-3.42679 -12.5097,-3.32812 z m 11.834,43.7207 c 1.4404,0.0104 2.289,0.61956 2.289,1.91406 0,6.559257 -8.2253,20.198827 -14.748,24.455077 -2.0632,1.34623 -5.5076,2.76532 -7.6543,3.1543 l -3.9043,0.70703 0.6582,-3.38867 c 0.3616,-1.8645 1.9282,-5.97939 3.4824,-9.14258 3.6169,-7.36132 0.4749,-4.93887 -3.4199,2.63672 -1.3886,2.70081 -2.0346,3.87525 -2.2188,3.77343 -0.1246,-0.0832 -0.026,-0.79175 0.1993,-2.04296 0.8991,-4.99225 4.219,-9.76083 9.9863,-14.3418 6.1312,-4.869997 12.1611,-7.747447 15.3301,-7.724607 z M 99.859469,116.12158 c 0.038,-10e-4 0.065,0.004 0.08,0.0195 0.782301,0.78232 -6.3568,7.01598 -13.7715,12.02344 -7.0936,4.79072 -13.6265,7.27645 -11.1171,4.23047 1.8574,-2.2546 23.2078,-16.22091 24.8086,-16.27344 z m 1.826101,33.5 -3.250001,1.57617 c -1.7875,0.86633 -3.25,1.78796 -3.25,2.04883 0,1.07854 1.9267,0.34608 4.1387,-1.57422 z" /></svg>
