<?xml version="1.0" encoding="UTF-8" standalone="no"?>
<svg
   version="1.1"
   width="295.57397"
   height="302.47131"
   id="svg976"
   xml:space="preserve"
   xmlns:xlink="http://www.w3.org/1999/xlink"
   xmlns="http://www.w3.org/2000/svg"
   xmlns:svg="http://www.w3.org/2000/svg"><defs
     id="defs976"><filter
       style="color-interpolation-filters:sRGB"
       id="filter993"
       x="-0.41218824"
       y="-0.50439736"
       width="1.8243765"
       height="2.0087947"><feGaussianBlur
         stdDeviation="1.129"
         result="blur"
         id="feGaussianBlur992" /><feComposite
         in="SourceGraphic"
         in2="blur"
         operator="in"
         result="composite1"
         id="feComposite992" /><feComposite
         in="composite1"
         in2="composite1"
         operator="in"
         result="fbSourceGraphic"
         id="feComposite993" /><feColorMatrix
         result="fbSourceGraphicAlpha"
         in="fbSourceGraphic"
         values="0 0 0 -1 0 0 0 0 -1 0 0 0 0 -1 0 0 0 0 1 0"
         id="feColorMatrix997" /><feGaussianBlur
         id="feGaussianBlur997"
         stdDeviation="1.129"
         result="blur"
         in="fbSourceGraphic" /><feComposite
         id="feComposite997"
         in="fbSourceGraphic"
         in2="blur"
         operator="in"
         result="composite1" /><feComposite
         id="feComposite998"
         in="composite1"
         in2="composite1"
         operator="in"
         result="composite2" /></filter><linearGradient
       id="paint1_linear_3_1244-5"
       x1="128.267"
       y1="301.45901"
       x2="115.462"
       y2="311.79099"
       gradientUnits="userSpaceOnUse"><stop
         stop-color="#F5E2CD"
         id="stop207-6" /><stop
         offset="1"
         stop-color="#F9FAEF"
         id="stop208-4" /></linearGradient><linearGradient
       id="paint2_linear_3_1244-8"
       x1="98.683701"
       y1="288.745"
       x2="86.998299"
       y2="294.94699"
       gradientUnits="userSpaceOnUse"><stop
         stop-color="#F7DFC9"
         id="stop209-2" /><stop
         offset="1"
         stop-color="#F9F6E2"
         id="stop210-1" /></linearGradient><linearGradient
       xlink:href="#paint1_linear_3_1244-5"
       id="linearGradient1755"
       gradientUnits="userSpaceOnUse"
       x1="128.267"
       y1="301.45901"
       x2="115.462"
       y2="311.79099" /><linearGradient
       xlink:href="#paint2_linear_3_1244-8"
       id="linearGradient1756"
       gradientUnits="userSpaceOnUse"
       x1="98.683701"
       y1="288.745"
       x2="86.998299"
       y2="294.94699" /><filter
       style="color-interpolation-filters:sRGB"
       id="filter1961"
       x="-0.21043498"
       y="-0.18691787"
       width="1.42087"
       height="1.3738357"><feGaussianBlur
         stdDeviation="0.31"
         result="blur"
         id="feGaussianBlur1959" /><feComposite
         in="SourceGraphic"
         in2="blur"
         operator="atop"
         result="composite1"
         id="feComposite1959" /><feComposite
         in2="composite1"
         operator="in"
         result="composite2"
         id="feComposite1960" /><feComposite
         in2="composite2"
         operator="in"
         result="composite3"
         id="feComposite1961" /></filter><filter
       style="color-interpolation-filters:sRGB"
       id="filter1967"
       x="-0.22116404"
       y="-0.15210983"
       width="1.4484181"
       height="1.3032777"><feGaussianBlur
         stdDeviation="0.21"
         result="blur"
         id="feGaussianBlur1965" /><feComposite
         in="SourceGraphic"
         in2="blur"
         operator="atop"
         result="composite1"
         id="feComposite1965" /><feComposite
         in2="composite1"
         operator="in"
         result="composite2"
         id="feComposite1966" /><feComposite
         in2="composite2"
         operator="in"
         result="composite3"
         id="feComposite1967" /></filter><filter
       style="color-interpolation-filters:sRGB"
       id="filter1970"
       x="-0.13219672"
       y="-0.13219672"
       width="1.2643934"
       height="1.2643934"><feGaussianBlur
         stdDeviation="0.21"
         result="blur"
         id="feGaussianBlur1967" /><feComposite
         in="SourceGraphic"
         in2="blur"
         operator="atop"
         result="composite1"
         id="feComposite1968" /><feComposite
         in2="composite1"
         operator="in"
         result="composite2"
         id="feComposite1969" /><feComposite
         in2="composite2"
         operator="in"
         result="composite3"
         id="feComposite1970" /></filter><filter
       style="color-interpolation-filters:sRGB"
       id="filter1976"
       x="-0.36527084"
       y="-0.3041916"
       width="1.7305417"
       height="1.6083832"><feGaussianBlur
         stdDeviation="0.21"
         result="blur"
         id="feGaussianBlur1974" /><feComposite
         in="SourceGraphic"
         in2="blur"
         operator="atop"
         result="composite1"
         id="feComposite1974" /><feComposite
         in2="composite1"
         operator="in"
         result="composite2"
         id="feComposite1975" /><feComposite
         in2="composite2"
         operator="in"
         result="composite3"
         id="feComposite1976" /></filter><filter
       style="color-interpolation-filters:sRGB"
       id="filter1979"
       x="-1.4525594"
       y="-0.31241613"
       width="3.9051188"
       height="1.6248323"><feGaussianBlur
         stdDeviation="0.21"
         result="blur"
         id="feGaussianBlur1976" /><feComposite
         in="SourceGraphic"
         in2="blur"
         operator="atop"
         result="composite1"
         id="feComposite1977" /><feComposite
         in2="composite1"
         operator="in"
         result="composite2"
         id="feComposite1978" /><feComposite
         in2="composite2"
         operator="in"
         result="composite3"
         id="feComposite1979" /></filter><filter
       style="color-interpolation-filters:sRGB"
       id="filter1982"
       x="-0.48559192"
       y="-0.14572141"
       width="1.9711838"
       height="1.2914428"><feGaussianBlur
         stdDeviation="0.21"
         result="blur"
         id="feGaussianBlur1979" /><feComposite
         in="SourceGraphic"
         in2="blur"
         operator="atop"
         result="composite1"
         id="feComposite1980" /><feComposite
         in2="composite1"
         operator="in"
         result="composite2"
         id="feComposite1981" /><feComposite
         in2="composite2"
         operator="in"
         result="composite3"
         id="feComposite1982" /></filter><filter
       style="color-interpolation-filters:sRGB"
       id="filter1985"
       x="-0.23081452"
       y="-0.23523832"
       width="1.461629"
       height="1.4704766"><feGaussianBlur
         stdDeviation="0.21"
         result="blur"
         id="feGaussianBlur1982" /><feComposite
         in="SourceGraphic"
         in2="blur"
         operator="atop"
         result="composite1"
         id="feComposite1983" /><feComposite
         in2="composite1"
         operator="in"
         result="composite2"
         id="feComposite1984" /><feComposite
         in2="composite2"
         operator="in"
         result="composite3"
         id="feComposite1985" /></filter></defs><g
     id="g1999"
     style="display:inline"
     transform="translate(-918.38416,411.12033)"><path
       id="path1932"
       style="display:inline;fill:#f8f6f8;fill-opacity:1;stroke:none;stroke-width:5.508;stroke-linecap:round;stroke-dasharray:none;stroke-opacity:1"
       d="m 958.49868,-236.25469 c 1.03321,39.54709 7.82071,78.45433 102.57372,94.18213 63.7797,10.58662 132.9044,2.70921 143.335,-60.09499 7.2847,-43.86233 -11.7015,-90.47936 -38.4936,-103.83245 -3.5221,-1.75538 -40.5927,-10.29661 -61.9385,-16.20169 -21.6802,-5.99761 -37.223,-11.08519 -62.3619,-19.7478 -3.4541,-1.19025 -25.8645,9.90548 -41.3428,23.13891 -23.29593,19.91737 -42.36664,59.79262 -41.77192,82.55589 z" /><path
       d="m 1196.8697,-258.11997 c 2.169,3.2534 2.9598,5.92896 4,9.6875 0.33,1.17949 0.66,2.35898 1,3.57422 0.33,1.23363 0.66,2.46726 1,3.73828 0.5472,1.73443 0.5472,1.73443 1.1055,3.50391 1.4266,5.79395 1.2293,11.75242 1.2102,17.68505 0,2.04304 0.02,4.08459 0.046,6.12745 0.097,19.95837 -6.655,37.88134 -20.1856,52.5586 -12.5033,12.21152 -29.4751,17.58546 -46.1758,21.125 -0.8471,0.18836 -1.6941,0.37673 -2.5669,0.5708 -9.6006,1.88929 -19.1914,1.73806 -28.9331,1.6792 -0.8908,-0.003 -1.7817,-0.006 -2.6995,-0.008 -12.6892,-0.0468 -25.2387,-0.28966 -37.8005,-2.242 -0.811,-0.12311 -1.6219,-0.24621 -2.4575,-0.37305 -6.8756,-1.06001 -13.7271,-2.22652 -20.5425,-3.62695 0.426,-1.44097 0.8663,-2.87769 1.3125,-4.3125 0.2437,-0.80051 0.4873,-1.60102 0.7383,-2.42578 1.0186,-2.42705 1.8485,-3.68618 3.9492,-5.26172 3.6875,-0.1875 3.6875,-0.1875 7,0 0,-0.99 0,-1.98 0,-3 1.32,0.33 2.64,0.66 4,1 0,1.65 0,3.3 0,5 0.99,0 1.98,0 3,0 0.33,-0.66 0.66,-1.32 1,-2 3.63,0.33 7.26,0.66 11,1 0.66,-1.32 1.32,-2.64 2,-4 0.99,-1.485 0.99,-1.485 2,-3 6,0.66667 12,1.33333 18,2 0.495,-1.98 0.495,-1.98 1,-4 1.98,-0.495 1.98,-0.495 4,-1 0,1.65 0,3.3 0,5 3.4597,-0.27709 6.9174,-0.57414 10.375,-0.875 0.9849,-0.0786 1.9697,-0.15727 2.9844,-0.23828 0.941,-0.0838 1.882,-0.16758 2.8516,-0.25391 1.3039,-0.10997 1.3039,-0.10997 2.6342,-0.22217 2.3594,-0.24038 2.3594,-0.24038 4.1548,-2.41064 0.99,0 1.98,0 3,0 0.495,-1.98 0.495,-1.98 1,-4 0.99,0 1.98,0 3,0 0,1.65 0,3.3 0,5 1.0364,-0.23977 2.0728,-0.47953 3.1406,-0.72656 1.3697,-0.3002 2.7395,-0.59964 4.1094,-0.89844 0.6819,-0.15984 1.3639,-0.31969 2.0664,-0.48438 3.0745,-0.65667 5.1749,-1.07778 8.168,0.0234 0.5002,0.35836 1.0003,0.71672 1.5156,1.08594 -0.082,-1.05187 -0.165,-2.10375 -0.25,-3.1875 0.2886,-4.40114 0.9847,-5.90022 4.25,-8.8125 2.75,-0.3125 2.75,-0.3125 5,0 0.4641,-1.42312 0.4641,-1.42312 0.9375,-2.87501 1.0625,-3.125 1.0625,-3.125 2.0625,-5.125 1.65,0 3.3,0 5,0 0.33,1.32 0.66,2.64 1,4 2.475,-0.495 2.475,-0.495 5,-1 0.1238,-0.80438 0.2475,-1.60875 0.375,-2.4375 0.2063,-0.84563 0.4125,-1.69125 0.625,-2.5625 2.7088,-1.3544 5.0094,-1.06502 8,-1 0.097,-0.69094 0.1934,-1.38188 0.293,-2.09375 0.85,-3.49406 2.3222,-6.23686 4.0195,-9.40625 6.034,-11.6446 8.838,-23.17058 8.7852,-36.28125 0,-0.69895 0,-1.39791 0,-2.11804 -0.01,-2.20028 -0.018,-4.40046 -0.031,-6.60071 0,-1.50521 -0.01,-3.01042 -0.014,-4.51563 -0.011,-3.66149 -0.028,-7.32292 -0.049,-10.98437 z"
       fill="#ebdcc3"
       id="path1756"
       style="display:inline" /><g
       id="g1755"
       style="display:inline;fill:none"
       transform="matrix(-0.77556854,0.02130769,0.01960577,0.71362126,1243.6628,-372.94435)"><path
         d="m 252.739,287.452 2.562,1.634 2.604,1.988 c -1.186,0.767 -2.031,1.488 -3.412,1.683 -2.256,-0.763 -1.809,-0.241 -2.961,-1.867 0.457,-1.064 0.835,-2.326 1.207,-3.438 z"
         fill="#f6dfc0"
         id="path1589" /><path
         d="m 68.64,239.79 2.653,4.878 c 1.395,0.777 3.681,1.837 4.582,3.031 2.25,1.854 3.538,2.926 6.226,4.252 0.19,1.592 0.061,1.931 -0.163,3.497 0.816,-0.265 1.568,-0.559 2.319,-0.976 3.583,1.16 3.934,3.748 8.142,6.971 1.03,2.191 2.193,3.21 4.689,2.407 1.179,1.991 4.147,1.697 5.07,2.422 1.914,1.505 -0.954,1.881 3.079,4.301 3.439,2.062 8.044,2.631 11.124,4.714 l -1.201,1.038 1.13,2.277 c 1.612,-0.094 1.752,-0.811 3.63,-1.045 l 1.407,1.479 c 2.601,2.859 4.466,1.925 7.552,3.998 l 1.92,-0.667 c 2.27,0.517 3.964,0.906 6.204,1.623 2.211,1.044 3.146,1.503 5.489,2.127 0.299,2.425 0.303,2.487 1.768,4.386 l -0.528,0.424 -1.374,2.357 0.786,0.651 -1.815,2.499 c 2.009,2.539 1.769,3.092 1.578,6.398 l 0.036,1.785 -0.653,0.279 -0.862,-0.48 c -0.669,3.182 0.523,3.05 -1.313,6.042 -1.629,-0.445 -2.223,-0.446 -3.341,-1.714 -2.375,-0.669 -2.73,-0.798 -5.126,-0.306 2.09,1.115 3.627,1.488 4.484,3.381 l -0.247,1.306 c -11.104,-2.169 -19.549,-5.235 -29.723,-9.901 -9.934,-4.557 -19.343,-11.761 -26.777,-19.73 -9.112,-9.665 -13.511,-21.437 -17.854,-33.627 2.208,-3.404 4.723,-6.778 7.109,-10.077 z"
         fill="#f6dfc0"
         id="path1590" /><path
         d="m 130.799,282.367 c 2.27,0.517 3.964,0.906 6.204,1.623 2.211,1.044 3.146,1.503 5.489,2.127 0.299,2.425 0.303,2.487 1.768,4.386 l -0.528,0.424 -1.374,2.357 0.786,0.651 -1.815,2.499 c 2.009,2.539 1.769,3.092 1.578,6.398 l 0.036,1.785 -0.653,0.279 -0.862,-0.48 c -0.669,3.182 0.523,3.05 -1.313,6.042 -1.629,-0.445 -2.223,-0.446 -3.341,-1.714 -2.375,-0.669 -2.73,-0.798 -5.126,-0.306 2.09,1.115 3.627,1.488 4.484,3.381 l -0.247,1.306 c -11.104,-2.169 -19.549,-5.235 -29.723,-9.901 0.1,-1.291 0.086,-1.071 0.437,-2.32 l 1.171,-0.654 c 1.28,0.021 1.912,0.049 3.184,-0.134 l 0.869,-0.13 0.055,-0.728 -2.176,-1.524 c 1.909,-1.547 3.827,-1.552 4.702,-3.265 l -0.117,-0.73 c 0.369,-1.489 0.619,-1.716 1.346,-3.072 l 1.155,-0.4 0.7,-0.021 1.745,2.15 -0.774,1.504 c 2.301,0.195 3.236,0.226 5.534,0.059 1.7,-1.088 1.105,-0.386 1.973,-2.072 l 1.745,-2.948 c 0.262,-0.707 0.666,-3.179 0.829,-4.06 l -0.272,-0.646 0.611,-1.199 z"
         fill="#f6dfc0"
         id="path1591" /><path
         d="m 130.799,282.367 c 2.27,0.517 3.964,0.906 6.204,1.623 2.211,1.044 3.146,1.503 5.489,2.127 0.299,2.425 0.303,2.487 1.768,4.386 l -0.528,0.424 -1.374,2.357 0.786,0.651 -1.815,2.499 c 2.009,2.539 1.769,3.092 1.578,6.398 l 0.036,1.785 -0.653,0.279 -0.862,-0.48 c -0.669,3.182 0.523,3.05 -1.313,6.042 -1.629,-0.445 -2.223,-0.446 -3.341,-1.714 -0.316,-1.91 -1.101,-2.797 -0.683,-4.799 -0.164,-0.472 -0.605,-1.32 -0.836,-1.801 l 0.496,-0.781 c -0.722,-0.934 -0.917,-1.292 -1.527,-2.307 0.204,-1.989 0.109,-1.342 1.47,-3.158 l -0.038,-0.349 c -2.128,-2.251 -1.616,0.069 -2.414,-3.313 -1.911,-1.975 -2.452,-2.075 -2.178,-4.844 -0.444,-1.301 -1.36,-1.703 -2.524,-2.513 l -0.272,-0.646 0.611,-1.199 z"
         fill="#f1cb94"
         id="path1592" /><path
         d="m 135.751,301.363 c 1.2,-0.11 4.084,-0.805 4.486,-1.946 l -2.205,-1.285 c -0.192,-1.627 -0.367,-0.904 0.497,-2.254 1.845,-0.375 0.929,-0.454 2.8,0.556 2.009,2.539 1.769,3.092 1.578,6.398 l 0.036,1.785 -0.653,0.279 -0.862,-0.48 c -0.669,3.182 0.523,3.05 -1.313,6.042 -1.629,-0.445 -2.223,-0.446 -3.341,-1.714 -0.316,-1.91 -1.101,-2.797 -0.683,-4.799 -0.164,-0.472 -0.605,-1.32 -0.836,-1.801 z"
         fill="#f2d3a5"
         id="path1593" /><path
         d="m 136.091,303.945 c 3.73,1.009 2.85,-1.566 4.945,-0.509 l 0.392,0.98 c -0.669,3.182 0.523,3.05 -1.313,6.042 -1.629,-0.445 -2.223,-0.446 -3.341,-1.714 -0.316,-1.91 -1.101,-2.797 -0.683,-4.799 z"
         fill="#e0b37b"
         id="path1594" /><path
         d="m 130.799,282.367 c 2.27,0.517 3.964,0.906 6.204,1.623 l -1.348,2.127 c -1.535,0.475 -3.013,0.995 -4.591,1.275 -0.444,-1.301 -1.36,-1.703 -2.524,-2.513 l -0.272,-0.646 0.611,-1.199 z"
         fill="#e5d4bf"
         id="path1595" /><path
         d="m 135.655,286.117 c 0.289,1.204 0.542,2.174 0.697,3.413 -1.683,1.073 -1.995,1.008 -3.11,2.706 -1.911,-1.975 -2.452,-2.075 -2.178,-4.844 1.578,-0.28 3.056,-0.8 4.591,-1.275 z"
         fill="#f2d3a5"
         id="path1596" /><path
         d="m 137.884,294.155 c 1.53,-1.684 2.868,-3.613 4.92,-4.107 l 0.928,0.879 -1.374,2.357 c -1.155,0.289 -1.632,0.788 -2.543,1.533 l -1.271,0.156 c -0.22,-0.273 -0.44,-0.546 -0.66,-0.818 z"
         fill="#eec588"
         id="path1597" /><path
         d="m 106.162,303.224 c 0.1,-1.291 0.086,-1.071 0.437,-2.32 l 1.171,-0.654 c 1.28,0.021 1.912,0.049 3.184,-0.134 l 0.869,-0.13 c 0.61,0.312 4.07,2.662 3.799,2.583 2.005,0.584 3.644,-0.28 5.917,0.58 0.501,0.677 1.277,1.097 2.118,1.147 0.841,0.05 1.661,-0.275 2.239,-0.888 0.915,1.119 0.95,1.067 1.44,2.404 0.857,1.565 2.158,1.796 3.874,2.257 l 0.438,0.369 c 2.09,1.115 3.627,1.488 4.484,3.381 l -0.247,1.306 c -11.104,-2.169 -19.549,-5.235 -29.723,-9.901 z"
         fill="url(#paint1_linear_3_1244)"
         id="path1598"
         style="fill:url(#linearGradient1755)" /><path
         d="m 128.862,298.824 3.671,1.124 -0.22,2.479 2.942,-0.283 c 0.231,0.481 0.672,1.329 0.836,1.801 -0.418,2.002 0.367,2.889 0.683,4.799 -2.375,-0.669 -2.73,-0.798 -5.126,-0.306 l -0.438,-0.369 c -1.716,-0.461 -3.017,-0.692 -3.874,-2.257 -0.49,-1.337 -0.525,-1.285 -1.44,-2.404 0.431,-0.457 0.699,-1.044 0.761,-1.669 0.745,-1.309 1.239,-1.77 2.205,-2.915 z"
         fill="#f6dfc0"
         id="path1599" /><path
         d="m 132.313,302.427 2.942,-0.283 c 0.231,0.481 0.672,1.329 0.836,1.801 -0.418,2.002 0.367,2.889 0.683,4.799 -2.375,-0.669 -2.73,-0.798 -5.126,-0.306 l -0.438,-0.369 c -0.006,-2.354 0.13,-2.806 0.657,-5.145 z"
         fill="#edbf7b"
         id="path1600" /><path
         d="m 127.336,305.812 c 1.801,-1.869 2.056,-1.874 4.531,-2.888 -0.527,2.339 -0.663,2.791 -0.657,5.145 -1.716,-0.461 -3.017,-0.692 -3.874,-2.257 z"
         fill="#f1cb94"
         id="path1601" /><path
         d="m 116.788,290.267 0.7,-0.021 1.745,2.15 -0.774,1.504 c 2.301,0.195 3.236,0.226 5.534,0.059 l -0.07,0.294 -0.759,0.45 c -2.958,1.769 -5.36,4.708 -7.474,5.771 -1.791,-0.255 -2.2,-0.508 -3.812,-1.216 l -2.176,-1.524 c 1.909,-1.547 3.827,-1.552 4.702,-3.265 l -0.117,-0.73 c 0.369,-1.489 0.619,-1.716 1.346,-3.072 z"
         fill="#eec588"
         id="path1602" /><path
         d="m 116.788,290.267 0.7,-0.021 1.745,2.15 -0.774,1.504 c -1.669,0.83 -1.891,1.128 -4.055,0.569 l -0.117,-0.73 c 0.369,-1.489 0.619,-1.716 1.346,-3.072 z"
         fill="#e0b37b"
         id="path1603" /><path
         d="m 121.539,303.149 c -0.757,-1.021 -0.744,-2.421 0.03,-3.429 0.775,-1.008 2.125,-1.379 3.306,-0.91 1.182,0.469 1.909,1.664 1.782,2.929 -0.062,0.625 -0.33,1.212 -0.761,1.669 -0.578,0.613 -1.398,0.938 -2.239,0.888 -0.841,-0.05 -1.617,-0.47 -2.118,-1.147 z"
         fill="#eec588"
         id="path1604" /><path
         d="m 125.966,291.887 c 1.561,1.464 2.54,2.905 2.121,5.164 l -0.64,0.385 c -3.951,-1.219 -1.745,-1.108 -3.524,-3.183 l 0.07,-0.294 c 1.7,-1.088 1.105,-0.386 1.973,-2.072 z"
         fill="#f2d3a5"
         id="path1605" /><path
         d="m 128.862,298.824 c -0.021,-1.678 -0.235,-0.895 0.861,-2.367 l 1.302,-0.32 c 1.758,1.122 1.517,1.604 1.508,3.811 z"
         fill="#eec588"
         id="path1606" /><path
         d="m 104.658,279.084 c 3.658,-2.503 6.798,0.193 8.475,3.584 l 2.102,-0.464 c 0.507,1.898 0.754,3.667 2.129,5.046 l -1.417,1.905 c 0.516,0.972 0.185,0.646 0.841,1.112 l -1.155,0.4 c -0.727,1.356 -0.977,1.583 -1.346,3.072 l 0.117,0.73 c -0.875,1.713 -2.793,1.718 -4.702,3.265 -1.496,1.426 -2.04,1.661 -4.037,1.953 -1.467,-0.459 -1.395,-0.377 -2.465,-1.463 -1.357,-1.189 -1.602,-1.027 -2.147,-2.519 l 0.912,-1.427 c 0.645,-1.756 0.897,-1.501 0.397,-2.867 l -1.44,-0.237 0.102,-0.625 c 2.564,0.25 3.987,-0.559 4.902,-2.884 -2.07,-0.905 -2.211,-1.246 -3.773,-2.988 2.01,-0.698 2.774,-0.751 4.091,-2.293 z"
         fill="#edbf7b"
         id="path1607" /><path
         d="m 106.244,282.384 c 0.993,3.834 3.889,1.246 6.175,7.153 l -0.128,0.572 -1.388,-0.535 -3.466,-1.133 c -0.78,-0.872 -0.287,-0.594 -1.511,-0.776 -2.07,-0.905 -2.211,-1.246 -3.773,-2.988 2.01,-0.698 2.774,-0.751 4.091,-2.293 z"
         fill="#f2d3a5"
         id="path1608" /><path
         d="m 105.475,296.86 c 2.386,-1.633 5.045,-2.581 7.615,-3.866 l 1.197,0.745 0.117,0.73 c -0.875,1.713 -2.793,1.718 -4.702,3.265 -1.496,1.426 -2.04,1.661 -4.037,1.953 -1.467,-0.459 -1.395,-0.377 -2.465,-1.463 l 2.142,-0.57 z"
         fill="#f1cb94"
         id="path1609" /><path
         d="m 105.926,287.665 c 1.224,0.182 0.731,-0.096 1.511,0.776 -0.814,2.353 -0.811,2.398 0.134,4.785 l -0.556,0.666 c -2.495,-0.987 -2.609,-1.438 -5.05,0.386 0.645,-1.756 0.897,-1.501 0.397,-2.867 l -1.44,-0.237 0.102,-0.625 c 2.564,0.25 3.987,-0.559 4.902,-2.884 z"
         fill="#f1cb94"
         id="path1610" /><path
         d="m 113.133,282.668 2.102,-0.464 c 0.507,1.898 0.754,3.667 2.129,5.046 l -1.417,1.905 c 0.516,0.972 0.185,0.646 0.841,1.112 l -1.155,0.4 c -2.86,-3.639 -0.021,-4.983 -2.5,-7.999 z"
         fill="#f1cb94"
         id="path1611" /><path
         d="m 107.437,288.441 3.466,1.133 c -0.991,1.219 -1.595,1.989 -2.453,3.299 l -0.879,0.353 c -0.945,-2.387 -0.948,-2.432 -0.134,-4.785 z"
         fill="#e1b260"
         id="path1612" /><path
         d="m 79.385,283.494 c 1.514,-1.848 2.216,-1.432 4.325,-1.32 1.662,1.927 3.755,4.723 6.044,5.656 1.778,1.378 2.619,2.498 4.604,2.594 l 1.414,-1.201 c 0.551,1.559 0.601,2.078 1.828,3.214 1.926,0.255 1.699,0.138 3.322,-1.263 l 1.44,0.237 c 0.5,1.366 0.248,1.111 -0.397,2.867 l -0.912,1.427 c 0.545,1.492 0.79,1.33 2.147,2.519 1.07,1.086 0.998,1.004 2.465,1.463 1.997,-0.292 2.541,-0.527 4.037,-1.953 l 2.176,1.524 -0.055,0.728 -0.869,0.13 c -1.272,0.183 -1.904,0.155 -3.184,0.134 l -1.171,0.654 c -0.351,1.249 -0.337,1.029 -0.437,2.32 -9.934,-4.557 -19.343,-11.761 -26.777,-19.73 z"
         fill="url(#paint2_linear_3_1244)"
         id="path1613"
         style="fill:url(#linearGradient1756)" /><path
         d="m 100.899,277.904 c 0.183,2.366 -0.187,2.176 0.96,3.874 1.543,-0.395 1.559,-1.065 2.799,-2.694 l 1.586,3.3 c -1.317,1.542 -2.081,1.595 -4.091,2.293 1.562,1.742 1.703,2.083 3.773,2.988 -0.915,2.325 -2.338,3.134 -4.902,2.884 l -0.102,0.625 c -1.623,1.401 -1.396,1.518 -3.322,1.263 -1.227,-1.136 -1.277,-1.655 -1.828,-3.214 l -1.414,1.201 c -1.985,-0.096 -2.826,-1.216 -4.604,-2.594 -0.36,-2.092 -0.557,-1.518 0.113,-3.268 1.269,-0.633 2.062,-1.091 3.219,-1.956 l 1.913,-0.097 c 3.342,-1.202 4.642,-1.117 5.9,-4.605 z"
         fill="#eec588"
         id="path1614" /><path
         d="m 100.899,277.904 c 0.183,2.366 -0.187,2.176 0.96,3.874 1.543,-0.395 1.559,-1.065 2.799,-2.694 l 1.586,3.3 c -1.317,1.542 -2.081,1.595 -4.091,2.293 -1.337,-0.144 -2.548,-0.678 -3.822,-1.142 -1.162,0.369 -3.224,1.212 -4.136,1.452 l -0.269,-1.372 1.073,-1.106 c 3.342,-1.202 4.642,-1.117 5.9,-4.605 z"
         fill="#f2d6af"
         id="path1615" /><path
         d="m 93.086,282.606 1.913,-0.097 -1.073,1.106 0.269,1.372 0.242,0.348 c -1.732,0.926 -1.712,0.587 -2.64,2.019 1.198,1.057 2.089,1.005 3.753,1.014 l 0.222,0.855 -1.414,1.201 c -1.985,-0.096 -2.826,-1.216 -4.604,-2.594 -0.36,-2.092 -0.557,-1.518 0.113,-3.268 1.269,-0.633 2.062,-1.091 3.219,-1.956 z"
         fill="#f1cb94"
         id="path1616" /><path
         d="m 94.1951,284.987 c 0.912,-0.24 2.974,-1.083 4.136,-1.452 0.5,1.428 1.027,2.366 0.699,3.81 l -0.75,0.422 c -4.653,-1.627 -0.967,-1.399 -3.843,-2.432 z"
         fill="#f2d3a5"
         id="path1617" /><path
         d="m 115.16,276.325 1.13,2.277 c 1.612,-0.094 1.752,-0.811 3.63,-1.045 l 1.407,1.479 c 2.601,2.859 4.466,1.925 7.552,3.998 l -0.611,1.199 0.272,0.646 c -0.163,0.881 -0.567,3.353 -0.829,4.06 l -1.745,2.948 c -0.868,1.686 -0.273,0.984 -1.973,2.072 -2.298,0.167 -3.233,0.136 -5.534,-0.059 l 0.774,-1.504 -1.745,-2.15 -0.7,0.021 c -0.656,-0.466 -0.325,-0.14 -0.841,-1.112 l 1.417,-1.905 c -1.375,-1.379 -1.622,-3.148 -2.129,-5.046 l 2.683,0.416 c 0.772,-0.243 1.111,-0.254 1.913,-0.372 1.699,1.042 1.697,1.481 2.48,3.59 l 0.332,0.903 c 1.095,-2.264 1.536,-2.776 0.426,-5.119 -1.862,-1.324 -4.62,-2.163 -6.887,-2.164 -1.208,-1.19 -0.817,-0.935 -1.022,-3.133 z"
         fill="#f2d6af"
         id="path1618" /><path
         d="m 117.488,290.246 c 2.237,-1.424 3.082,-2.156 5.691,-2.762 l 1.655,1.453 2.877,0.002 -1.745,2.948 c -0.868,1.686 -0.273,0.984 -1.973,2.072 -2.298,0.167 -3.233,0.136 -5.534,-0.059 l 0.774,-1.504 z"
         fill="#edbf7b"
         id="path1619" /><path
         d="m 117.488,290.246 c 2.237,-1.424 3.082,-2.156 5.691,-2.762 l 1.655,1.453 c -2.112,1.516 -3.19,2.414 -5.601,3.459 z"
         fill="#eec588"
         id="path1620" /><path
         d="m 123.179,287.484 c 1.361,-2.363 2.454,-4.113 5.089,-3.251 l 0.272,0.646 c -0.163,0.881 -0.567,3.353 -0.829,4.06 l -2.877,-0.002 z"
         fill="#f2d3a5"
         id="path1621" /><path
         d="m 115.235,282.204 2.683,0.416 c 1.775,1.161 1.983,0.899 2.806,2.514 -1.044,1.61 -1.158,1.225 -3.36,2.116 -1.375,-1.379 -1.622,-3.148 -2.129,-5.046 z"
         fill="#edbf7b"
         id="path1622" /><path
         d="m 83.712,273.886 c 0.464,0.119 1.738,0.414 2.124,0.587 0.918,1.648 1.986,2.477 2.771,3.855 l -0.086,0.492 c -1.035,0.635 -3.281,1.623 -3.796,2.006 l -0.391,-0.054 -0.595,0.564 c -2.909,-0.107 -3.204,-0.458 -5.077,-2.521 1.336,-2.473 1.657,-3.068 3.52,-5.144 z"
         fill="#e1b260"
         id="path1623" /><path
         d="m 83.712,273.886 c 0.464,0.119 1.738,0.414 2.124,0.587 0.918,1.648 1.986,2.477 2.771,3.855 l -0.086,0.492 c -1.035,0.635 -3.281,1.623 -3.796,2.006 l -0.391,-0.054 c -1.179,-3.418 -1.551,-3.209 -0.622,-6.886 z"
         fill="#edbf7b"
         id="path1624" /><path
         d="m 88.607,278.328 2.113,-0.582 c 0.571,2.179 1.165,2.898 2.366,4.86 -1.157,0.865 -1.95,1.323 -3.219,1.956 -0.67,1.75 -0.473,1.176 -0.113,3.268 -2.289,-0.933 -4.382,-3.729 -6.044,-5.656 l 0.029,-0.838 0.595,-0.564 0.391,0.054 c 0.515,-0.383 2.761,-1.371 3.796,-2.006 z"
         fill="#f2d3a5"
         id="path1625" /><path
         d="m 88.5211,278.82 1.008,0.527 c 0.188,1.727 0.281,0.876 -0.51,2.607 -2.306,1.281 -2.304,0.661 -4.294,-1.128 0.515,-0.383 2.761,-1.371 3.796,-2.006 z"
         fill="#f1cb94"
         id="path1626" /><path
         d="m 90.72,277.746 c 4.009,-1.119 6.95,-3.12 10.179,0.158 -1.258,3.488 -2.558,3.403 -5.9,4.605 l -1.913,0.097 c -1.201,-1.962 -1.795,-2.681 -2.366,-4.86 z"
         fill="#edbf7b"
         id="path1627" /><path
         d="m 81.938,255.448 c -4.704,1.553 -9.748,-4.076 -7.85,-7.535 l 1.787,-0.214 c 2.25,1.854 3.538,2.926 6.226,4.252 0.19,1.592 0.061,1.931 -0.163,3.497 z"
         fill="#edbf7b"
         id="path1628" /><path
         d="m 75.6451,268.276 c 2.061,-0.018 2.145,0.055 4.079,0.89 l 0.82,0.722 c 0.548,1.39 0.971,2.423 1.638,3.783 -1.863,2.076 -2.184,2.671 -3.52,5.144 -2.532,-4.05 -3.384,-5.835 -3.017,-10.539 z"
         fill="#f1cb94"
         id="path1629" /><path
         d="m 84.821,265.322 c 2.182,2.597 2.143,3.011 2.027,6.481 -0.362,0.907 -0.712,1.738 -1.012,2.67 -0.386,-0.173 -1.66,-0.468 -2.124,-0.587 l -1.53,-0.215 c -0.667,-1.36 -1.09,-2.393 -1.638,-3.783 l -0.82,-0.722 c 0.403,-0.375 1.362,-1.588 1.769,-2.072 1.403,0.481 2.349,-0.901 3.328,-1.772 z"
         fill="#f2d3a5"
         id="path1630" /><path
         d="m 80.5439,269.888 c 2.755,-0.206 3.606,1.371 6.304,1.915 -0.362,0.907 -0.712,1.738 -1.012,2.67 -0.386,-0.173 -1.66,-0.468 -2.124,-0.587 l -1.53,-0.215 c -0.667,-1.36 -1.09,-2.393 -1.638,-3.783 z"
         fill="#f6dfc0"
         id="path1631" /><path
         d="m 78.423,260.71 c 2.687,0.745 3.274,1.868 6.615,2.877 l -0.217,1.735 c -0.979,0.871 -1.925,2.253 -3.328,1.772 -2.916,-2.165 -2.999,-2.141 -3.929,-5.618 z"
         fill="#eec588"
         id="path1632" /><path
         d="m 75.645,268.276 c -0.66,-1.209 -0.596,-4.371 0.003,-5.61 0.48,-0.994 0.815,-0.775 1.916,-1.19 0.93,3.477 1.013,3.453 3.929,5.618 -0.407,0.484 -1.366,1.697 -1.769,2.072 -1.934,-0.835 -2.018,-0.908 -4.079,-0.89 z"
         fill="#f2d6af"
         id="path1633" /><path
         d="m 78.4231,260.71 c 2.194,-2.635 3.769,-2.406 6.036,-0.013 0.463,1.404 0.536,1.437 0.579,2.89 -3.341,-1.009 -3.928,-2.132 -6.615,-2.877 z"
         fill="#f2d6af"
         id="path1634" /><path
         d="m 92.9171,267.731 c 2.269,0.184 3.227,0.323 4.653,2.2 0.003,2.096 0.0109,1.432 -1.3461,3.489 -2.295,-0.561 -3.1769,-0.395 -4.7619,-1.86 -0.188,-1.59 0.589,-2.416 1.455,-3.829 z"
         fill="#edbf7b"
         id="path1635" /><path
         d="m 319.446,266.656 c 1.328,-1.466 3.052,-2.102 4.763,-3.844 l -0.432,-0.923 c 0.523,-2.311 2.134,-3.895 4.606,-3.53 l 0.717,1.324 1.225,0.912 1.968,-0.981 c 0.284,0.673 1.027,2.568 1.335,3.105 l 0.967,1.961 c 2.078,-1.098 1.254,-0.804 3.763,-0.746 1.117,1.112 2.214,2.185 3.275,3.353 l -2.334,2.322 -4.281,3.85 c -0.482,0.44 -1.76,1.668 -2.233,1.955 -2.75,2.082 -5.26,4.129 -8.323,5.724 -6.477,5.531 -23.406,13.053 -31.233,16.092 l -7.489,2.796 c -5.638,1.703 -11.455,3.56 -17.156,4.971 -0.853,-0.379 -1.335,-0.624 -2.15,-1.054 l 0.127,-0.684 c -0.215,-1.576 -0.727,-3.069 -1.174,-4.605 0.38,-0.617 0.189,-1.056 0.178,-2.043 -0.196,-0.335 -0.398,-0.666 -0.607,-0.994 -1.581,-2.446 -2.342,-2.51 -5.116,-3.082 l -1.937,-1.461 -2.604,-1.988 -2.562,-1.634 -0.674,-0.678 c -1.443,-0.549 -2.595,0.069 -4.148,0.552 -1.564,-0.831 -7.602,-1.366 -9.549,-1.429 l -0.377,-0.965 c 1.152,-0.404 2.122,-0.56 3.313,-0.811 0.7,0.517 14.248,-0.313 16.839,-0.163 3.372,-2.103 3.514,-0.635 6.311,-1.691 l 0.355,-1.38 c 3.069,0.62 3.505,0.076 6.28,-1.446 1.851,1.74 8.785,-3.384 15.324,-1.552 2.169,-0.729 2.101,-0.716 3.954,-2.086 l -0.556,-0.748 c 1.748,-0.831 2.574,-1.254 4.412,-1.791 0.204,0.203 0.777,0.868 0.982,0.884 7.149,-0.971 13.808,-5.917 20.792,-6.808 1.984,-0.253 1.339,0.105 3.449,-0.684 z"
         fill="#f6dfc0"
         id="path1636" /><path
         d="m 241.304,284.121 c 0.7,0.517 14.248,-0.313 16.839,-0.163 1.12,0.584 3.213,1.828 4.315,1.971 3.093,3.56 4.289,5.138 9.196,3.334 1.67,-0.427 2.165,-0.649 3.919,-0.503 0.788,0.573 1.51,1.096 2.28,1.693 -0.729,1.66 -0.16,1.064 -1.718,1.892 -2.472,-0.725 -2.149,-1.069 -4.12,-0.391 l -1.299,1.518 c -1.807,2.746 -1.793,4.154 -5.151,3.139 -0.196,-0.335 -0.398,-0.666 -0.607,-0.994 -1.581,-2.446 -2.342,-2.51 -5.116,-3.082 l -1.937,-1.461 -2.604,-1.988 -2.562,-1.634 -0.674,-0.678 c -1.443,-0.549 -2.595,0.069 -4.148,0.552 -1.564,-0.831 -7.602,-1.366 -9.549,-1.429 l -0.377,-0.965 c 1.152,-0.404 2.122,-0.56 3.313,-0.811 z"
         fill="#e5d4bf"
         id="path1637" /><path
         d="m 255.301,289.086 c 2.708,0.835 3.223,1.051 6.024,0.92 7.66,6.801 1.244,4.438 9.391,3.466 -1.807,2.746 -1.793,4.154 -5.151,3.139 -0.196,-0.335 -0.398,-0.666 -0.607,-0.994 -1.581,-2.446 -2.342,-2.51 -5.116,-3.082 l -1.937,-1.461 z"
         fill="#f6dfc0"
         id="path1638" /><path
         d="m 270.716,293.472 1.299,-1.518 c 1.971,-0.678 1.648,-0.334 4.12,0.391 l 0.478,0.457 c 2.662,1.889 2.68,2.879 4.118,5.671 0.461,-2.116 0.659,-1.894 2.121,-3.074 1.509,-0.437 0.987,-0.499 2.39,-0.265 0.152,1.339 0.249,2.78 0.57,4.07 l -0.072,0.822 c -5.638,1.703 -11.455,3.56 -17.156,4.971 -0.853,-0.379 -1.335,-0.624 -2.15,-1.054 l 0.127,-0.684 c -0.215,-1.576 -0.727,-3.069 -1.174,-4.605 0.38,-0.617 0.189,-1.056 0.178,-2.043 3.358,1.015 3.344,-0.393 5.151,-3.139 z"
         fill="#f4e6d4"
         id="path1639" /><path
         d="m 270.716,293.472 1.299,-1.518 c 1.971,-0.678 1.648,-0.334 4.12,0.391 l 0.478,0.457 c -1.97,1.256 -2.188,1.436 -3.256,3.507 -2.047,0.433 -1.701,0.049 -3.002,1.291 -0.235,2.246 0.045,3.208 -1.182,4.791 l -2.612,0.868 c -0.215,-1.576 -0.727,-3.069 -1.174,-4.605 0.38,-0.617 0.189,-1.056 0.178,-2.043 3.358,1.015 3.344,-0.393 5.151,-3.139 z"
         fill="#f2d3a5"
         id="path1640" /><path
         d="m 273.357,296.309 c 1.068,-2.071 1.286,-2.251 3.256,-3.507 2.662,1.889 2.68,2.879 4.118,5.671 -2.587,-0.171 -5.105,-0.91 -7.374,-2.164 z"
         fill="#eec588"
         id="path1641" /><path
         d="m 319.446,266.656 c 1.328,-1.466 3.052,-2.102 4.763,-3.844 l -0.432,-0.923 c 0.523,-2.311 2.134,-3.895 4.606,-3.53 l 0.717,1.324 1.225,0.912 1.968,-0.981 c 0.284,0.673 1.027,2.568 1.335,3.105 l 0.967,1.961 -1.601,1.69 c -1.46,0.965 -1.404,0.903 -2.485,2.275 -0.508,-1.468 -0.132,-0.778 -1.659,-1.852 l -5.421,4.601 c -2.563,-1.353 -3.126,-1.98 -3.983,-4.738 z"
         fill="#f2d6af"
         id="path1642" /><path
         d="m 330.325,260.595 1.968,-0.981 c 0.284,0.673 1.027,2.568 1.335,3.105 l 0.967,1.961 -1.601,1.69 c -1.46,0.965 -1.404,0.903 -2.485,2.275 -0.508,-1.468 -0.132,-0.778 -1.659,-1.852 l 0.05,-0.375 c -1.302,-0.381 -1.481,-0.338 -2.566,-1.106 -1.417,-3.342 -0.417,-4.365 2.766,-5.629 z"
         fill="#eec588"
         id="path1643" /><path
         d="m 330.325,260.595 1.968,-0.981 c 0.284,0.673 1.027,2.568 1.335,3.105 l 0.967,1.961 -1.601,1.69 c -1.46,0.965 -1.404,0.903 -2.485,2.275 -0.508,-1.468 -0.132,-0.778 -1.659,-1.852 l 0.05,-0.375 1.015,-0.522 c 0.97,-1.465 0.546,-3.444 0.41,-5.301 z"
         fill="#f6dfc0"
         id="path1644" /><path
         d="m 277.853,290.453 c 2.311,-1.738 3.602,-2.665 6.417,-3.134 2.161,0.538 1.429,-0.046 2.602,1.352 -0.213,1.579 -0.41,1.745 -1.134,3.137 l 0.214,0.696 c 1.903,0.722 2.071,-0.344 4.005,0.832 l 0.018,0.634 c -0.545,1.792 -2.656,4.292 -4.163,5.234 -0.321,-1.29 -0.418,-2.731 -0.57,-4.07 -1.403,-0.234 -0.881,-0.172 -2.39,0.265 -1.462,1.18 -1.66,0.958 -2.121,3.074 -1.438,-2.792 -1.456,-3.782 -4.118,-5.671 l -0.478,-0.457 c 1.558,-0.828 0.989,-0.232 1.718,-1.892 z"
         fill="#edbf7b"
         id="path1645" /><path
         d="m 277.853,290.453 c 2.311,-1.738 3.602,-2.665 6.417,-3.134 -2.161,2.158 -2.586,1.035 -4.578,4.064 -0.283,2.493 0.595,3.504 3.16,4.016 -1.462,1.18 -1.66,0.958 -2.121,3.074 -1.438,-2.792 -1.456,-3.782 -4.118,-5.671 l -0.478,-0.457 c 1.558,-0.828 0.989,-0.232 1.718,-1.892 z"
         fill="#f2d6af"
         id="path1646" /><path
         d="m 334.595,264.68 c 2.078,-1.098 1.254,-0.804 3.763,-0.746 1.117,1.112 2.214,2.185 3.275,3.353 l -2.334,2.322 -4.281,3.85 c -0.482,0.44 -1.76,1.668 -2.233,1.955 -1.925,-1.972 -2.993,-0.595 -4.172,-2.806 l 0.823,-1.398 1.073,-2.565 c 1.081,-1.372 1.025,-1.31 2.485,-2.275 z"
         fill="#f2d3a5"
         id="path1647" /><path
         d="m 334.595,264.68 c 2.078,-1.098 1.254,-0.804 3.763,-0.746 1.117,1.112 2.214,2.185 3.275,3.353 l -2.334,2.322 c -2.122,-1.498 -4.459,-1.556 -6.305,-3.239 z"
         fill="#eec588"
         id="path1648" /><path
         d="m 329.436,271.21 c 3.724,-0.831 3.323,-1.175 5.582,2.249 -0.482,0.44 -1.76,1.668 -2.233,1.955 -1.925,-1.972 -2.993,-0.595 -4.172,-2.806 z"
         fill="#edbf7b"
         id="path1649" /><path
         d="m 328.85,266.793 c 1.527,1.074 1.151,0.384 1.659,1.852 l -1.073,2.565 -0.823,1.398 c 1.179,2.211 2.247,0.834 4.172,2.806 -2.75,2.082 -5.26,4.129 -8.323,5.724 -0.192,-1.336 -0.141,-0.829 0.413,-2.269 -0.701,-1.941 -0.918,-2.099 -2.245,-3.745 l -0.687,-0.051 c -0.044,-1.426 0.503,-2.28 0.379,-3.416 l 1.107,-0.263 z"
         fill="#f4e6d4"
         id="path1650" /><path
         d="m 262.458,285.929 c 2.032,-3.552 7.26,-4.792 9.39,-0.934 0.134,2.052 0.105,2.215 -0.194,4.268 -4.907,1.804 -6.103,0.226 -9.196,-3.334 z"
         fill="#f2d3a5"
         id="path1651" /><path
         d="m 290.675,285.951 c 2.673,-0.481 2.059,-0.791 4.076,0.172 1.132,1.669 0.976,3.302 0.18,5.14 l -0.051,0.814 c -2.042,1.59 -2.055,1.152 -4.462,0.108 l -0.14,-0.101 0.105,-0.773 c -0.976,-1.276 -1.035,-1.197 -1.403,-2.729 0.421,-1.928 0.022,-1.007 1.695,-2.631 z"
         fill="#edbf7b"
         id="path1652" /><path
         d="m 290.367,275.803 c 2.02,-0.305 1.787,-0.608 3.249,0.146 0.382,1.549 0.199,1.699 -0.234,3.22 -1.459,0.845 -1.441,0.863 -3.061,1.288 -1.669,-0.335 -1.88,-0.388 -3.259,-1.55 l -0.435,0.386 -0.214,-1.404 c 2.169,-0.729 2.101,-0.716 3.954,-2.086 z"
         fill="#f1cb94"
         id="path1653" /><path
         d="m 294.88,292.077 0.079,1.276 -2.228,1.647 c -0.179,1.553 -0.316,0.83 0.498,2.23 l -7.489,2.796 0.072,-0.822 c 1.507,-0.942 3.618,-3.442 4.163,-5.234 l 0.636,1.051 1.011,-0.219 0.249,-1.232 -1.453,-1.385 c 2.407,1.044 2.42,1.482 4.462,-0.108 z"
         fill="#f2d6af"
         id="path1654" /><path
         d="m 289.811,275.055 c 1.748,-0.831 2.574,-1.254 4.412,-1.791 0.204,0.203 0.777,0.868 0.982,0.884 1.197,1.192 1.678,1.475 2.126,3.118 -0.599,1.548 -0.109,0.903 -1.712,1.834 -0.416,0.009 -1.924,0.014 -2.237,0.069 0.433,-1.521 0.616,-1.671 0.234,-3.22 -1.462,-0.754 -1.229,-0.451 -3.249,-0.146 z"
         fill="#f2d6af"
         id="path1655" /><path
         d="m 322.63,275.124 c 1.327,1.646 1.544,1.804 2.245,3.745 -1.501,0.566 -2.081,0.904 -3.706,0.876 l -0.593,-0.681 c 0.305,-1.752 1.027,-2.492 2.054,-3.94 z"
         fill="#f2d6af"
         id="path1656" /><path
         d="m 277.661,281.278 c 2.553,-0.79 1.633,-0.886 3.934,-0.189 1.219,1.321 0.77,0.545 1.104,2.546 l -0.351,0.724 c -1.301,2.018 -1.48,2.55 -3.497,3.39 l -0.762,-0.48 c -1.277,-2.745 -0.327,-2.367 -0.399,-5.092 z"
         fill="#f1cb94"
         id="path1657" /><path
         d="m 277.661,281.278 c 2.553,-0.79 1.633,-0.886 3.934,-0.189 1.219,1.321 0.77,0.545 1.104,2.546 l -0.351,0.724 c -2.866,-0.509 -3.184,-0.527 -4.687,-3.081 z"
         fill="#eec588"
         id="path1658" /><path
         d="m 303.194,286.382 c 1.435,-0.753 1.587,-1.056 2.488,-2.321 2.808,-0.37 -0.434,0.941 4.004,-0.274 -0.185,2.479 -3.898,4.821 -5.81,6.03 -0.362,-1.396 -0.491,-2.008 -0.682,-3.435 z"
         fill="#f2d3a5"
         id="path1659" /><path
         d="m 303.876,289.817 c -1.911,0.848 -2.574,1.538 -4.481,0.589 -0.939,-2.331 -0.515,-4.133 1.93,-5.206 l 1.869,1.182 c 0.191,1.427 0.32,2.039 0.682,3.435 z"
         fill="#edbf7b"
         id="path1660" /><path
         d="m 313.745,275.83 0.658,0.148 c 1.654,2.208 -1.436,4.596 -3.182,5.818 -1.617,-1.676 -1.515,-1.058 -1.726,-2.938 0.805,-1.376 2.765,-2.206 4.25,-3.028 z"
         fill="#edbf7b"
         id="path1661" /><path
         d="m 225.833,287.833 c 4.329,-1.143 8.042,-2.204 12.535,-1.936 1.947,0.063 7.985,0.598 9.549,1.429 1.553,-0.483 2.705,-1.101 4.148,-0.552 l 0.674,0.678 c -0.372,1.112 -0.75,2.374 -1.207,3.438 1.152,1.626 0.705,1.104 2.961,1.867 1.381,-0.195 2.226,-0.916 3.412,-1.683 l 1.937,1.461 c 2.774,0.572 3.535,0.636 5.116,3.082 0.209,0.328 0.411,0.659 0.607,0.994 0.011,0.987 0.202,1.426 -0.178,2.043 0.447,1.536 0.959,3.029 1.174,4.605 l -3.607,-0.523 c -1.45,0.292 -2.803,0.424 -4.083,1.065 l 0.974,3.183 -3.491,0.734 c -0.752,0.146 -2.717,0.581 -3.374,0.632 l -5.727,1.333 -5.421,0.882 c -7.016,1.374 -15.129,2.734 -22.251,3.529 -4.829,0.578 -9.473,1.142 -14.332,1.504 -0.788,-0.326 -0.36,-0.096 -1.233,-0.781 0.972,-1.162 1.15,-1.479 1.632,-2.915 l 0.048,-0.585 2.571,-1.476 c 0.177,-1.915 1.085,-2.067 2.518,-3.027 -0.572,-1.754 -0.377,-1.197 -2.109,-2.533 1.087,-0.65 1.155,-0.558 1.703,-1.667 -0.919,-0.039 -0.726,-0.139 -0.94,0.043 -6.877,-1.368 -4.73,-5.718 -6.647,-11.325 l 0.827,-2.414 c 2.048,-0.045 2.185,-0.042 3.824,-1.263 2.116,0.19 2.774,0.819 4.659,1.964 1.965,0.136 2.978,-0.123 4.891,-0.796 l 0.284,-0.44 c 3.712,-2.55 4.681,-3.424 8.556,-0.55 z"
         fill="#f6dfc0"
         id="path1662" /><path
         d="m 254.493,292.757 c 1.381,-0.195 2.226,-0.916 3.412,-1.683 l 1.937,1.461 c 2.774,0.572 3.535,0.636 5.116,3.082 0.209,0.328 0.411,0.659 0.607,0.994 0.011,0.987 0.202,1.426 -0.178,2.043 0.447,1.536 0.959,3.029 1.174,4.605 l -3.607,-0.523 c -1.45,0.292 -2.803,0.424 -4.083,1.065 l 0.974,3.183 -3.491,0.734 c -0.752,0.146 -2.717,0.581 -3.374,0.632 -1.159,-1.79 -2.342,-1.638 -2.727,-3.99 l -0.395,-2.074 c -1.93,0.162 -1.901,0.271 -3.651,-0.74 -1.129,-1.585 -0.902,-0.738 -0.801,-2.602 l 1.361,-0.726 c 3.152,-0.348 6.436,-2.519 7.726,-5.461 z"
         fill="#f1cb94"
         id="path1663" /><path
         d="m 259.842,292.535 c 2.774,0.572 3.535,0.636 5.116,3.082 0.209,0.328 0.411,0.659 0.607,0.994 0.011,0.987 0.202,1.426 -0.178,2.043 0.447,1.536 0.959,3.029 1.174,4.605 l -3.607,-0.523 -1.921,-0.82 c -0.659,-0.439 -1.203,-0.878 -1.829,-1.361 -0.023,-1.663 -1.051,-6.457 -0.834,-7.276 z"
         fill="#e1b260"
         id="path1664" /><path
         d="m 261.033,301.916 c 1.912,-1.032 2.689,-1.824 4.354,-3.262 0.447,1.536 0.959,3.029 1.174,4.605 l -3.607,-0.523 z"
         fill="#e0b37b"
         id="path1665" /><path
         d="m 252.602,301.315 c 1.726,0.163 2.483,0.048 3.795,1.164 l 0.93,-0.264 c 1.374,0.886 0.991,0.285 1.544,1.586 l 0.974,3.183 -3.491,0.734 c -0.752,0.146 -2.717,0.581 -3.374,0.632 -1.159,-1.79 -2.342,-1.638 -2.727,-3.99 l -0.395,-2.074 z"
         fill="#eec588"
         id="path1666" /><path
         d="m 256.397,302.479 0.93,-0.264 c 1.374,0.886 0.991,0.285 1.544,1.586 l 0.974,3.183 -3.491,0.734 c -0.832,-1.105 -1.634,-1.785 -2.626,-2.746 l 0.062,-0.851 z"
         fill="#edbf7b"
         id="path1667" /><path
         d="m 246.767,298.218 c 2.023,-0.07 4.235,-0.371 5.791,0.894 0.266,0.726 0.533,1.483 0.044,2.203 l -2.744,0.971 c -1.93,0.162 -1.901,0.271 -3.651,-0.74 -1.129,-1.585 -0.902,-0.738 -0.801,-2.602 z"
         fill="#edbf7b"
         id="path1668" /><path
         d="m 233.961,297.231 1.741,-2.849 3.433,0.989 0.859,0.058 c 1.37,0.804 0.958,0.222 1.499,1.583 l 3.065,-0.625 0.304,2.299 0.544,0.258 c -0.101,1.864 -0.328,1.017 0.801,2.602 1.75,1.011 1.721,0.902 3.651,0.74 l 0.395,2.074 c 0.385,2.352 1.568,2.2 2.727,3.99 l -5.727,1.333 -5.421,0.882 -0.296,-1.161 c -1.767,-0.765 -2.377,-0.835 -3.368,-2.484 l -0.387,-0.004 0.038,-0.444 -1.35,-3.269 -1.09,-2.857 -0.761,-0.558 z"
         fill="#f1cb94"
         id="path1669" /><path
         d="m 236.469,303.203 c 0.942,-1.527 3.026,-1.477 4.477,-0.801 l 1.231,0.544 2.263,0.302 c 1.282,2.044 1.721,1.969 1.671,3.942 -0.377,0.207 -0.934,0.548 -1.316,0.68 -0.685,0.237 -1.533,0.326 -2.275,0.451 -0.915,-0.534 -1.746,-1.143 -2.582,-1.794 l -1.77,0.393 -0.387,-0.004 0.038,-0.444 z"
         fill="#eec588"
         id="path1670" /><path
         d="m 236.469,303.203 c 0.942,-1.527 3.026,-1.477 4.477,-0.801 -0.819,1.331 -1.854,3.432 -3.127,4.07 z"
         fill="#edbf7b"
         id="path1671" /><path
         d="m 244.44,303.248 c 1.282,2.044 1.721,1.969 1.671,3.942 -0.377,0.207 -0.934,0.548 -1.316,0.68 -1.359,-0.233 -0.821,0.109 -1.751,-0.828 -0.109,-1.699 0.5,-2.325 1.396,-3.794 z"
         fill="#e1b260"
         id="path1672" /><path
         d="m 247.253,309.683 c 0.066,-2.064 0.177,-4.567 1.912,-5.949 l 1.088,0.626 c 0.385,2.352 1.568,2.2 2.727,3.99 z"
         fill="#f2d6af"
         id="path1673" /><path
         d="m 233.961,297.231 1.741,-2.849 3.433,0.989 c -1.601,1.145 -2.339,1.437 -3.066,3.263 l 0.06,1.537 -0.75,0.175 -0.761,-0.558 z"
         fill="#edbf7b"
         id="path1674" /><path
         d="m 239.135,295.371 0.859,0.058 c 0.166,2.22 0.454,1.644 -0.534,3.21 -1.14,0.563 -2.132,1.109 -3.331,1.532 l -0.06,-1.537 c 0.727,-1.826 1.465,-2.118 3.066,-3.263 z"
         fill="#e1b260"
         id="path1675" /><path
         d="m 239.994,295.429 c 1.37,0.804 0.958,0.222 1.499,1.583 1.578,1.647 2.376,1.644 1.39,3.86 -1.779,-1.186 -0.847,-1.531 -3.423,-2.233 0.988,-1.566 0.7,-0.99 0.534,-3.21 z"
         fill="#edbf7b"
         id="path1676" /><path
         d="m 228.873,304.831 c 1.901,0.36 1.294,0.226 2.952,1.584 1.611,1.191 0.865,1.113 2.417,1.135 l 0.933,-1.532 c 0.849,0.39 1.706,0.653 2.606,0.898 l 0.387,0.004 c 0.991,1.649 1.601,1.719 3.368,2.484 l 0.296,1.161 c -7.016,1.374 -15.129,2.734 -22.251,3.529 -0.143,-2.329 -0.725,-3.907 -1.091,-6.196 0.855,-0.256 2.041,-0.753 2.908,-1.082 l 0.936,1.55 0.276,-2.469 c 2.453,0.612 3.907,1.117 6.454,1.072 z"
         fill="#e5d4bf"
         id="path1677" /><path
         d="m 222.61,305.897 c 2.453,0.612 3.907,1.117 6.454,1.072 0.061,2.299 0.389,1.692 -0.752,3.186 -2.498,1.241 -4.438,0.354 -5.978,-1.789 z"
         fill="#f1cb94"
         id="path1678" /><path
         d="m 217.067,307.674 1.423,0.224 c 0.366,2.289 0.948,3.867 1.091,6.196 -4.829,0.578 -9.473,1.142 -14.332,1.504 -0.788,-0.326 -0.36,-0.096 -1.233,-0.781 0.972,-1.162 1.15,-1.479 1.632,-2.915 l 0.048,-0.585 2.571,-1.476 1.596,-0.861 c 2.009,1.071 2.202,1.227 4.391,1.66 1.654,-0.648 1.885,-1.425 2.813,-2.966 z"
         fill="#eec588"
         id="path1679" /><path
         d="m 231.09,298.357 c 2.159,-0.327 1.265,0.101 2.871,-1.126 l 0.657,2.557 0.761,0.558 1.09,2.857 1.35,3.269 -0.038,0.444 c -0.9,-0.245 -1.757,-0.508 -2.606,-0.898 l -0.933,1.532 c -1.552,-0.022 -0.806,0.056 -2.417,-1.135 -1.658,-1.358 -1.051,-1.224 -2.952,-1.584 0.477,-0.359 0.745,-0.931 0.717,-1.527 -0.029,-0.596 -0.349,-1.14 -0.857,-1.454 l 1.19,-1.33 -0.097,-1.388 z"
         fill="#f2d3a5"
         id="path1680" /><path
         d="m 234.618,299.788 0.761,0.558 1.09,2.857 1.35,3.269 -0.038,0.444 c -0.9,-0.245 -1.757,-0.508 -2.606,-0.898 l -0.933,1.532 c -1.552,-0.022 -0.806,0.056 -2.417,-1.135 0.624,-1.72 0.922,-2.12 1.871,-3.621 -0.524,-1.728 -0.659,-1.101 -0.349,-2.574 z"
         fill="#f2d6af"
         id="path1681" /><path
         d="m 233.696,302.794 c 0.755,2.178 0.772,2.459 0.546,4.756 -1.552,-0.022 -0.806,0.056 -2.417,-1.135 0.624,-1.72 0.922,-2.12 1.871,-3.621 z"
         fill="#eec588"
         id="path1682" /><path
         d="m 210.379,302.614 c 2.011,-0.971 3.866,-1.182 6.063,-1.606 -0.058,2.231 -0.154,2.318 -1.214,4.348 l 1.542,1.903 0.297,0.415 c -0.928,1.541 -1.159,2.318 -2.813,2.966 -2.189,-0.433 -2.382,-0.589 -4.391,-1.66 l -1.596,0.861 c 0.177,-1.915 1.085,-2.067 2.518,-3.027 -0.572,-1.754 -0.377,-1.197 -2.109,-2.533 1.087,-0.65 1.155,-0.558 1.703,-1.667 z"
         fill="#edbf7b"
         id="path1683" /><path
         d="m 210.379,302.614 c 2.011,-0.971 3.866,-1.182 6.063,-1.606 -0.058,2.231 -0.154,2.318 -1.214,4.348 -2.274,1.004 -2.696,0.824 -4.443,1.458 -0.572,-1.754 -0.377,-1.197 -2.109,-2.533 1.087,-0.65 1.155,-0.558 1.703,-1.667 z"
         fill="#e0b37b"
         id="path1684" /><path
         d="m 216.442,301.008 c 2.065,-0.625 2.002,-0.692 4.101,-0.502 3.162,2.449 1.354,3.426 2.067,5.391 l -0.276,2.469 -0.936,-1.55 c -0.867,0.329 -2.053,0.826 -2.908,1.082 l -1.423,-0.224 -0.297,-0.415 -1.542,-1.903 c 1.06,-2.03 1.156,-2.117 1.214,-4.348 z"
         fill="#f1cb94"
         id="path1685" /><path
         d="m 216.77,307.259 0.739,-0.59 c 0.93,-0.754 1.047,-0.897 1.757,-1.908 1.407,-0.546 0.743,-0.604 2.046,-0.075 0.198,1.229 0.298,0.985 0.086,2.13 -0.867,0.329 -2.053,0.826 -2.908,1.082 l -1.423,-0.224 z"
         fill="#eec588"
         id="path1686" /><path
         d="m 217.277,288.383 c 3.712,-2.55 4.681,-3.424 8.556,-0.55 -0.853,1.36 -2.583,4.409 -3.647,5.355 -3.662,-2.415 -4.16,0.433 -4.909,-4.805 z"
         fill="#edbf7b"
         id="path1687" /><path
         d="m 229.826,299.132 c -1.114,-0.377 -2.224,-0.77 -3.327,-1.177 -1.97,-0.74 -2.381,-0.96 -3.19,-2.733 l 0.624,-0.927 c 1.998,-0.857 2.216,-0.814 4.434,-0.975 1.131,0.808 1.275,2.436 2.241,4.181 l 0.482,0.856 z"
         fill="#f1cb94"
         id="path1688" /><path
         d="m 251.532,290.89 c 1.152,1.626 0.705,1.104 2.961,1.867 -1.29,2.942 -4.574,5.113 -7.726,5.461 l -1.361,0.726 -0.544,-0.258 0.538,-0.755 c 2.572,-0.81 2.827,-1.562 4.671,-3.649 0.094,-0.135 0.189,-0.269 0.284,-0.404 0.14,-0.152 0.279,-0.303 0.419,-0.455 l -1.294,-1.394 c 0.54,-0.363 1.452,-0.815 2.052,-1.139 z"
         fill="#f2d6af"
         id="path1689" /><path
         d="m 235.702,294.382 c 2.564,-1.705 7.622,-1.581 9.489,0.718 -0.255,0.658 -0.211,0.756 -0.633,1.287 l -3.065,0.625 c -0.541,-1.361 -0.129,-0.779 -1.499,-1.583 l -0.859,-0.058 z"
         fill="#eec588"
         id="path1690" /><path
         d="m 247.917,287.326 c 1.553,-0.483 2.705,-1.101 4.148,-0.552 l 0.674,0.678 c -0.372,1.112 -0.75,2.374 -1.207,3.438 -0.6,0.324 -1.512,0.776 -2.052,1.139 -1.863,-1.928 -2.02,-2.058 -1.563,-4.703 z"
         fill="#f1cb94"
         id="path1691" /><path
         d="m 217.277,288.383 c 0.749,5.238 1.247,2.39 4.909,4.805 -1.588,0.716 -3.314,1.542 -5.014,0.861 -0.95,-1.867 -0.5,-3.001 -0.179,-5.226 z"
         fill="#f1cb94"
         id="path1692" /><path
         d="m 228.873,304.831 c -0.727,0.55 -1.751,0.472 -2.386,-0.183 -0.635,-0.654 -0.684,-1.679 -0.113,-2.391 0.571,-0.711 1.582,-0.885 2.359,-0.407 0.508,0.314 0.828,0.858 0.857,1.454 0.028,0.596 -0.24,1.168 -0.717,1.527 z"
         fill="#f1cb94"
         id="path1693" /><path
         d="m 208.734,295.351 c 0.867,0.047 1.741,0.154 2.606,0.243 1.567,1.167 1.133,0.43 1.535,2.166 -0.49,1.791 -1.096,2.075 -2.51,3.282 -1.934,0.311 -2.289,0.254 -3.304,-1.206 0.061,-2.037 0.626,-2.638 1.673,-4.485 z"
         fill="#edbf7b"
         id="path1694" /><path
         d="m 200.014,288.268 3.605,0.65 -0.827,2.414 c 1.917,5.607 -0.23,9.957 6.647,11.325 0.214,-0.182 0.021,-0.082 0.94,-0.043 -0.548,1.109 -0.616,1.017 -1.703,1.667 1.732,1.336 1.537,0.779 2.109,2.533 -1.433,0.96 -2.341,1.112 -2.518,3.027 l -2.571,1.476 -0.048,0.585 c -0.482,1.436 -0.66,1.753 -1.632,2.915 0.873,0.685 0.445,0.455 1.233,0.781 -2.858,0.417 -5.594,0.586 -8.469,0.801 l -2.776,0.01 c -3.565,0.252 -6.624,0.46 -10.194,0.452 l -4.172,0.066 -0.754,-2.825 0.095,-0.336 1.885,-2.215 1.755,-1.47 -0.059,-0.708 -2.13,-0.908 0.232,-0.964 c 1.701,-0.853 1.856,-0.908 2.785,-2.562 1.067,-0.781 1.679,-1.635 2.523,-2.647 l -0.435,-0.278 -1.179,-0.243 c -1,-1.441 -1.786,-1.693 -3,-3.081 -2.33,-2.664 -1.196,-6.274 -1.691,-10.387 l -0.063,-0.491 c 0.487,0.404 1.085,0.902 1.794,1.492 3.422,0.047 7.679,-0.074 11.043,0.317 l 1.388,-0.756 c 1.891,-0.294 4.244,-0.429 6.187,-0.597 z"
         fill="#f2d6af"
         id="path1695" /><path
         d="m 200.309,302.343 c 2.065,0.217 2.311,0.222 3.953,1.651 1.914,1.161 1.489,0.888 4.414,0.287 1.732,1.336 1.537,0.779 2.109,2.533 -1.433,0.96 -2.341,1.112 -2.518,3.027 l -2.571,1.476 -0.048,0.585 c -0.482,1.436 -0.66,1.753 -1.632,2.915 0.873,0.685 0.445,0.455 1.233,0.781 -2.858,0.417 -5.594,0.586 -8.469,0.801 l -2.776,0.01 c -3.565,0.252 -6.624,0.46 -10.194,0.452 l -4.172,0.066 -0.754,-2.825 0.095,-0.336 1.885,-2.215 1.755,-1.47 -0.059,-0.708 -2.13,-0.908 0.232,-0.964 c 1.701,-0.853 1.856,-0.908 2.785,-2.562 1.067,-0.781 1.679,-1.635 2.523,-2.647 1.419,0.467 1.668,0.482 2.953,1.307 -1.387,0.425 -1.795,0.375 -2.682,1.494 l 0.097,1.058 0.691,0.561 c 0.092,-1.457 -0.182,-0.811 0.633,-2.03 5.766,0.998 8.603,2.812 12.647,-2.339 z"
         fill="#e1b260"
         id="path1696" /><path
         d="m 185.97,302.292 c 1.419,0.467 1.668,0.482 2.953,1.307 -1.387,0.425 -1.795,0.375 -2.682,1.494 l 0.097,1.058 0.691,0.561 0.952,0.725 c 2.694,3.211 -0.681,2.356 3.722,4.715 l 2.367,-2.163 2.137,1.881 -1.91,3.424 -0.293,1.115 c -3.565,0.252 -6.624,0.46 -10.194,0.452 l -4.172,0.066 -0.754,-2.825 0.095,-0.336 1.885,-2.215 1.755,-1.47 -0.059,-0.708 -2.13,-0.908 0.232,-0.964 c 1.701,-0.853 1.856,-0.908 2.785,-2.562 1.067,-0.781 1.679,-1.635 2.523,-2.647 z"
         fill="#f1cb94"
         id="path1697" /><path
         d="m 185.97,302.292 c 1.419,0.467 1.668,0.482 2.953,1.307 -1.387,0.425 -1.795,0.375 -2.682,1.494 l 0.097,1.058 0.691,0.561 0.952,0.725 c -0.45,2.413 -0.355,2.874 0.579,5.142 l -0.455,0.467 c -1.54,-0.099 -1.006,0.101 -2.282,-0.666 -1.547,-1.119 -0.749,-0.959 -2.374,-0.852 l -1.272,1.04 -1.313,-1.017 1.755,-1.47 -0.059,-0.708 -2.13,-0.908 0.232,-0.964 c 1.701,-0.853 1.856,-0.908 2.785,-2.562 1.067,-0.781 1.679,-1.635 2.523,-2.647 z"
         fill="#f2d3a5"
         id="path1698" /><path
         d="m 180.864,311.551 1.313,1.017 c 0.324,0.897 0.815,2.426 1.221,3.223 l 0.412,1.07 -4.172,0.066 -0.754,-2.825 0.095,-0.336 z"
         fill="#f2d6af"
         id="path1699" /><path
         d="m 194.07,309.989 2.137,1.881 -1.91,3.424 -1.218,0.137 c -1.36,-1.042 -0.943,-1.018 -1.376,-3.279 z"
         fill="#f2d3a5"
         id="path1700" /><path
         d="m 182.177,312.568 1.272,-1.04 c 1.625,-0.107 0.827,-0.267 2.374,0.852 l 0.691,1.882 c -0.827,1.184 -1.357,0.982 -3.116,1.529 -0.406,-0.797 -0.897,-2.326 -1.221,-3.223 z"
         fill="#edbf7b"
         id="path1701" /><path
         d="m 194.07,309.989 c 2.358,0.261 4.336,0.687 6.54,-0.283 l 0.507,0.784 c 0.925,1.903 0.504,1.845 1.99,2.531 0.952,-0.391 1.614,-0.662 2.541,-1.119 -0.482,1.436 -0.66,1.753 -1.632,2.915 0.873,0.685 0.445,0.455 1.233,0.781 -2.858,0.417 -5.594,0.586 -8.469,0.801 l -2.776,0.01 0.293,-1.115 1.91,-3.424 z"
         fill="#edbf7b"
         id="path1702" /><path
         d="m 196.207,311.87 c 1.34,-0.418 2.018,-0.782 3.383,-0.471 0.472,1.725 -1.557,3.879 -2.81,5 l -2.776,0.01 0.293,-1.115 z"
         fill="#eec588"
         id="path1703" /><path
         d="m 204.262,303.994 c 1.914,1.161 1.489,0.888 4.414,0.287 1.732,1.336 1.537,0.779 2.109,2.533 -1.433,0.96 -2.341,1.112 -2.518,3.027 l -2.571,1.476 c 0.043,-1.932 0.436,-2.573 -0.475,-3.757 l -3.103,-0.359 c 0.336,-1.7 0.894,-2.002 2.144,-3.207 z"
         fill="#e1b260"
         id="path1704" /><path
         d="m 179.602,287.812 c 0.487,0.404 1.085,0.902 1.794,1.492 3.422,0.047 7.679,-0.074 11.043,0.317 1.103,0.209 2.087,0.375 3.198,0.534 -4.995,1.286 -1.144,3.235 -6.846,3.202 0.747,0.849 0.329,0.461 1.26,1.162 -0.158,2.004 -0.787,2.512 -2.758,3.249 0.266,1.394 0.465,2.163 0.848,3.498 -1.093,0.37 -1.491,0.568 -2.606,0.748 l -1.179,-0.243 c -1,-1.441 -1.786,-1.693 -3,-3.081 -2.33,-2.664 -1.196,-6.274 -1.691,-10.387 z"
         fill="#e5d4bf"
         id="path1705" /><path
         d="m 187.293,297.768 c -1.832,-0.635 -2.87,-0.678 -4.011,-1.978 2.949,-2.816 2.17,-0.709 2.663,-4.988 l 0.591,-0.051 2.255,2.606 c 0.747,0.849 0.329,0.461 1.26,1.162 -0.158,2.004 -0.787,2.512 -2.758,3.249 z"
         fill="#f1cb94"
         id="path1706" /><path
         d="m 189.923,299.237 1.202,-0.094 c 2.57,-2.963 5.867,-3.348 9.674,-3.383 -0.264,2.495 -1.748,4.223 -1.578,5.962 l 1.088,0.621 c -4.044,5.151 -6.881,3.337 -12.647,2.339 -0.815,1.219 -0.541,0.573 -0.633,2.03 l -0.691,-0.561 -0.097,-1.058 c 0.887,-1.119 1.295,-1.069 2.682,-1.494 1.662,-0.383 1.185,0.076 1.887,-0.993 l -1.237,-2.068 z"
         fill="#eec588"
         id="path1707" /><path
         d="m 193.569,301.415 c 1.961,0.038 2.427,-0.329 3.588,0.647 l -0.098,1.973 -1.708,-0.212 c -1.573,-1.193 -0.95,-0.458 -1.782,-2.408 z"
         fill="#edbf7b"
         id="path1708" /><path
         d="m 200.799,295.76 c 4.801,3.93 1.033,8.133 8.64,6.897 0.214,-0.182 0.021,-0.082 0.94,-0.043 -0.548,1.109 -0.616,1.017 -1.703,1.667 -2.925,0.601 -2.5,0.874 -4.414,-0.287 -1.642,-1.429 -1.888,-1.434 -3.953,-1.651 l -1.088,-0.621 c -0.17,-1.739 1.314,-3.467 1.578,-5.962 z"
         fill="#f1cb94"
         id="path1709" /><path
         d="m 200.014,288.268 3.605,0.65 -0.827,2.414 c -1.867,-0.622 -5.101,-0.915 -7.155,-1.177 -1.111,-0.159 -2.095,-0.325 -3.198,-0.534 l 1.388,-0.756 c 1.891,-0.294 4.244,-0.429 6.187,-0.597 z"
         fill="#f4e6d4"
         id="path1710" /><path
         d="m 143.144,293.935 1.24,-0.054 c 0.962,0.781 0.568,0.58 1.8,0.914 l 1.203,-0.768 0.241,-1.403 0.515,-0.23 1.799,1.168 c 4.672,-0.376 4.728,-0.757 8.453,2.124 l 1.085,0.927 0.16,1.247 c 2.208,0.003 6.324,-0.32 7.832,0.976 l -0.305,0.604 c 0.762,2.216 0.972,2.501 2.416,4.36 l 0.645,0.366 c 2.374,-0.397 6.427,0.803 10.35,0.836 l 0.415,-0.26 2.454,0.197 c -0.929,1.654 -1.084,1.709 -2.785,2.562 l -0.232,0.964 2.13,0.908 0.059,0.708 -1.755,1.47 -1.885,2.215 -0.095,0.336 0.754,2.825 c -2.904,0.072 -5.905,0.053 -8.817,0.07 l -3.062,-0.097 c -0.209,-1.14 -0.412,-2.081 -0.685,-3.209 l -1.075,-0.437 c -6.502,0.467 -5.082,0.747 -9.387,-2.874 l -0.706,-0.587 c -2.164,3.843 -5.029,2.655 -9.079,2.266 -2.503,-0.713 -5.014,-0.182 -6.712,-1.601 1.836,-2.992 0.644,-2.86 1.313,-6.042 l 0.862,0.48 0.653,-0.279 -0.036,-1.785 c 0.191,-3.306 0.431,-3.859 -1.578,-6.398 z"
         fill="#e0b37b"
         id="path1711" /><path
         d="m 159.866,307.684 c -1.476,-1.657 -1.792,-1.817 -2.295,-3.886 l 0.47,-0.697 c 3.315,-0.455 7.497,2.762 9.847,0.937 0.021,-1.975 -1.158,-0.645 -1.791,-3.267 l 1.07,-1.331 c 0.762,2.216 0.972,2.501 2.416,4.36 l 0.645,0.366 c 2.374,-0.397 6.427,0.803 10.35,0.836 l 0.415,-0.26 2.454,0.197 c -0.929,1.654 -1.084,1.709 -2.785,2.562 l -0.232,0.964 2.13,0.908 0.059,0.708 -1.755,1.47 -1.885,2.215 -0.095,0.336 0.754,2.825 c -2.904,0.072 -5.905,0.053 -8.817,0.07 l -3.062,-0.097 c -0.209,-1.14 -0.412,-2.081 -0.685,-3.209 l -1.075,-0.437 c -6.502,0.467 -5.082,0.747 -9.387,-2.874 l -0.706,-0.587 c 0.071,-0.734 0.195,-0.715 0.597,-1.435 l 2.21,0.986 z"
         fill="#edbf7b"
         id="path1712" /><path
         d="m 169.622,313.468 c 1.427,-2.869 3.356,-5.652 6.747,-6.236 -0.502,4.015 -0.499,3.521 2.61,6.534 l -0.095,0.336 0.754,2.825 c -2.904,0.072 -5.905,0.053 -8.817,0.07 l -3.062,-0.097 c -0.209,-1.14 -0.412,-2.081 -0.685,-3.209 l -1.075,-0.437 0.327,-0.481 c 1.559,-0.415 1.396,-0.097 3.296,0.695 z"
         fill="#f2d3a5"
         id="path1713" /><path
         d="m 171.535,314.888 c 1.908,-2.011 1.458,-2.254 3.446,-2.325 l 0.396,0.231 c 1.629,0.929 1.706,0.984 3.507,1.308 l 0.754,2.825 c -2.904,0.072 -5.905,0.053 -8.817,0.07 z"
         fill="#eec588"
         id="path1714" /><path
         d="m 159.866,307.684 c 1.324,-1.687 4.47,-2.672 6.416,-1.389 l 1.121,1.842 c -2.269,1.198 -2.241,1.439 -4.214,-0.584 -2.942,0.832 -0.604,1.742 -3.706,2.248 l -0.77,-0.457 z"
         fill="#f1cb94"
         id="path1715" /><path
         d="m 143.144,293.935 1.24,-0.054 c 0.962,0.781 0.568,0.58 1.8,0.914 l 1.203,-0.768 0.241,-1.403 0.515,-0.23 1.799,1.168 1.239,1.868 2.373,1.85 -3.043,2.018 -0.58,0.974 -1.157,1.103 c 0.016,0.994 0.085,1.986 -0.403,2.889 l -0.736,-0.334 c -3.127,0.356 -2.118,0.492 -4.728,-1.098 0.191,-3.306 0.431,-3.859 -1.578,-6.398 z"
         fill="#edbf7b"
         id="path1716" /><path
         d="m 151.181,295.43 2.373,1.85 -3.043,2.018 c -2.198,-0.791 -2.216,-0.489 -2.972,-2.057 l 1.138,-1.23 c 1.01,-0.043 1.557,-0.229 2.504,-0.581 z"
         fill="#e1b260"
         id="path1717" /><path
         d="m 142.907,302.832 c 2.61,1.59 1.601,1.454 4.728,1.098 l 0.736,0.334 c 1.094,1.057 1.024,1.073 2.393,1.685 -1.261,1.828 -1.945,2.494 -3.611,3.983 -0.172,0.877 -0.265,1.237 -0.326,2.127 -2.503,-0.713 -5.014,-0.182 -6.712,-1.601 1.836,-2.992 0.644,-2.86 1.313,-6.042 l 0.862,0.48 0.653,-0.279 z"
         fill="#eec588"
         id="path1718" /><path
         d="m 149.942,293.562 c 4.672,-0.376 4.728,-0.757 8.453,2.124 l 1.085,0.927 0.16,1.247 c -2.679,3.258 -1.421,0.721 -5.533,-0.413 -1.714,3.309 0.392,2.507 0.077,5.786 l -0.623,0.071 c -1.099,-0.876 -2.699,-2.067 -3.63,-3.032 l 0.58,-0.974 3.043,-2.018 -2.373,-1.85 z"
         fill="#f1cb94"
         id="path1719" /><path
         d="m 151.08,306.627 1.118,-2.1 1.285,-0.38 c 1.841,1.003 1.798,1.059 2.634,3.027 -1.099,1.625 -1.559,2.133 -3.25,2.501 -1.408,-0.932 -1.06,-1.047 -1.787,-3.048 z"
         fill="#e1b260"
         id="path1720" /><path
         d="m 160.915,286.129 c 0.887,0.156 1.608,0.304 2.507,0.384 l 2.182,1.043 c 4.356,0.788 5.042,-0.245 9.617,1.487 l 0.762,-0.284 c 0.744,-0.306 2.741,-0.732 3.619,-0.947 l 0.063,0.491 c 0.495,4.113 -0.639,7.723 1.691,10.387 1.214,1.388 2,1.64 3,3.081 l 1.179,0.243 0.435,0.278 c -0.844,1.012 -1.456,1.866 -2.523,2.647 l -2.454,-0.197 -0.415,0.26 c -3.923,-0.033 -7.976,-1.233 -10.35,-0.836 l -0.645,-0.366 c -1.444,-1.859 -1.654,-2.144 -2.416,-4.36 l 0.305,-0.604 c -1.508,-1.296 -5.624,-0.973 -7.832,-0.976 l -0.16,-1.247 -1.085,-0.927 c 1.159,-1.595 1.987,-2.852 1.507,-4.755 0.148,-0.712 0.288,-1.424 0.42,-2.139 -1.02,-1.226 -1.345,-0.824 -3.553,-1.032 l 0.1,-0.989 z"
         fill="#f6dfc0"
         id="path1721" /><path
         d="m 175.983,288.759 c 0.744,-0.306 2.741,-0.732 3.619,-0.947 l 0.063,0.491 c 0.495,4.113 -0.639,7.723 1.691,10.387 1.214,1.388 2,1.64 3,3.081 l 1.179,0.243 0.435,0.278 c -0.844,1.012 -1.456,1.866 -2.523,2.647 l -2.454,-0.197 -0.415,0.26 c -3.923,-0.033 -7.976,-1.233 -10.35,-0.836 l -0.645,-0.366 2.326,-0.866 c 0.526,0.208 0.191,0.14 1.026,-0.054 0.199,-1.474 -0.254,-2.175 -0.819,-3.556 l -1.118,-0.975 c 1.165,-1.365 1.146,-1.238 1.464,-2.991 -1.593,-0.988 -1.527,-1.142 -1.256,-2.798 1.488,-1.991 1.874,-2.114 4.015,-3.517 z"
         fill="#f2d6af"
         id="path1722" /><path
         d="m 175.221,289.043 0.762,-0.284 c 1.029,1.458 0.85,2.565 0.904,4.372 -0.436,0.68 -0.149,0.527 -0.709,0.666 -2.01,0.52 -1.994,0.463 -3.716,1.561 -1.593,-0.988 -1.527,-1.142 -1.256,-2.798 1.488,-1.991 1.874,-2.114 4.015,-3.517 z"
         fill="#eec588"
         id="path1723" /><path
         d="m 172.462,295.358 c 1.722,-1.098 1.706,-1.041 3.716,-1.561 0.606,2.051 0.826,1.61 0.237,3.24 -1.977,0.66 -3.108,0.759 -4.299,2.287 l -1.118,-0.975 c 1.165,-1.365 1.146,-1.238 1.464,-2.991 z"
         fill="#f4e6d4"
         id="path1724" /><path
         d="m 184.356,301.771 1.179,0.243 0.435,0.278 c -0.844,1.012 -1.456,1.866 -2.523,2.647 l -2.454,-0.197 c 1.453,-2.494 1.1,-2.032 3.363,-2.971 z"
         fill="#f1cb94"
         id="path1725" /><path
         d="m 177.093,299.323 c 1.591,0.923 2.354,1.6 2.382,3.437 l -1.276,1.172 c -1.507,-0.423 -2.559,-0.512 -3.543,-1.685 0.49,-1.58 1.015,-1.619 2.437,-2.924 z"
         fill="#e5d4bf"
         id="path1726" /><path
         d="m 160.915,286.129 c 0.887,0.156 1.608,0.304 2.507,0.384 l 2.182,1.043 c -0.493,2.868 -0.727,3.29 -1.968,5.809 -0.922,0.725 -3.295,2.703 -4.156,3.248 l -1.085,-0.927 c 1.159,-1.595 1.987,-2.852 1.507,-4.755 0.148,-0.712 0.288,-1.424 0.42,-2.139 -1.02,-1.226 -1.345,-0.824 -3.553,-1.032 l 0.1,-0.989 z"
         fill="#f2d3a5"
         id="path1727" /><path
         d="m 171.909,302.934 c -2.216,-0.887 -1.776,-0.323 -2.689,-2.022 0.334,-1.498 0.624,-1.539 1.778,-2.563 l 1.118,0.975 c 0.565,1.381 1.018,2.082 0.819,3.556 -0.835,0.194 -0.5,0.262 -1.026,0.054 z"
         fill="#e5d4bf"
         id="path1728" /><path
         d="m 343.252,253.009 c 3.891,1.78 3.126,4.254 4.33,7.438 l -0.879,1.337 -5.07,5.503 c -1.061,-1.168 -2.158,-2.241 -3.275,-3.353 -2.509,-0.058 -1.685,-0.352 -3.763,0.746 l -0.967,-1.961 c -0.308,-0.537 -1.051,-2.432 -1.335,-3.105 1.002,-1.185 4.211,-2.442 6.171,-3.765 l 1.146,-0.403 z"
         fill="#f4e6d4"
         id="path1729" /><path
         d="m 343.252,253.009 c 3.891,1.78 3.126,4.254 4.33,7.438 l -0.879,1.337 c -4.362,-1.346 -4.456,-2.484 -7.093,-6.338 z"
         fill="#edbf7b"
         id="path1730" /><path
         d="m 338.464,255.849 c -0.108,2.023 -0.258,3.832 -0.109,5.865 l 0.003,2.22 c -2.509,-0.058 -1.685,-0.352 -3.763,0.746 l -0.967,-1.961 c -0.308,-0.537 -1.051,-2.432 -1.335,-3.105 1.002,-1.185 4.211,-2.442 6.171,-3.765 z"
         fill="#f1cb94"
         id="path1731" /><path
         d="m 338.355,261.714 0.003,2.22 c -2.509,-0.058 -1.685,-0.352 -3.763,0.746 l -0.967,-1.961 c 1.45,-0.386 3.228,-0.701 4.727,-1.005 z"
         fill="#f2d6af"
         id="path1732" /><path
         d="m 343.252,253.009 c 3.523,-3.47 8.092,-8.377 12.516,-10.688 1.432,-0.748 2.11,-0.134 3.525,0.456 -2.782,5.165 -7.675,13.411 -11.711,17.67 -1.204,-3.184 -0.439,-5.658 -4.33,-7.438 z"
         fill="#f6dfc0"
         id="path1733" /><path
         d="m 144.26,290.503 c 4.745,3.766 5.728,-2.552 11.091,-2.829 l 0.39,0.18 1.028,-0.094 c 2.208,0.208 2.533,-0.194 3.553,1.032 -0.132,0.715 -0.272,1.427 -0.42,2.139 0.48,1.903 -0.348,3.16 -1.507,4.755 -3.725,-2.881 -3.781,-2.5 -8.453,-2.124 l -1.799,-1.168 -0.515,0.23 -0.241,1.403 -1.203,0.768 c -1.232,-0.334 -0.838,-0.133 -1.8,-0.914 l -1.24,0.054 -0.786,-0.651 1.374,-2.357 z"
         fill="#f2d6af"
         id="path1735" /><path
         d="m 155.741,287.854 1.028,-0.094 c 2.208,0.208 2.533,-0.194 3.553,1.032 -0.132,0.715 -0.272,1.427 -0.42,2.139 -2.283,0.482 -2.204,0.471 -3.957,-0.305 -0.765,-1.743 -0.67,-0.853 -0.204,-2.772 z"
         fill="#f1cb94"
         id="path1736" /><path
         d="m 123.1,272.772 c 1.895,1.469 3.629,2.641 5.144,4.494 l 2.555,5.101 -1.92,0.667 c -3.086,-2.073 -4.951,-1.139 -7.552,-3.998 l -1.407,-1.479 c 1.164,-2.477 1.243,-2.978 3.18,-4.785 z"
         fill="#edbf7b"
         id="path1737" /><path
         d="m 123.1,272.772 c 1.895,1.469 3.629,2.641 5.144,4.494 -2.526,-0.453 -3.622,-1.037 -5.707,-0.037 l -1.21,1.807 -1.407,-1.479 c 1.164,-2.477 1.243,-2.978 3.18,-4.785 z"
         fill="#eec588"
         id="path1738" /><path
         d="m 142.492,286.117 c 3.989,0.206 9.153,0.295 12.859,1.557 -5.363,0.277 -6.346,6.595 -11.091,2.829 -1.465,-1.899 -1.469,-1.961 -1.768,-4.386 z"
         fill="#e5d4bf"
         id="path1739" /><path
         d="m 156.869,286.771 c -2.305,-2.029 -2.196,-1.343 -2.793,-3.789 0.64,-1.773 0.084,-1.142 1.623,-2.042 3.875,-0.067 4.518,1.931 5.216,5.189 z"
         fill="#f1cb94"
         id="path1740" /><path
         d="m 193.827,288.865 c -0.837,-1.335 -0.814,-1.291 -1.232,-2.812 0.435,-1.842 -0.039,-1.149 1.293,-2.26 3.796,-0.537 4.777,1.492 6.126,4.475 -1.943,0.168 -4.296,0.303 -6.187,0.597 z"
         fill="#f2d3a5"
         id="path1741" /><path
         d="m 289.811,275.055 c -0.798,-1.875 -0.959,-2.381 -0.786,-4.327 0.936,-1.544 0.303,-0.957 2.053,-1.72 2.237,0.326 1.266,-0.1 3.022,1.331 0.694,1.948 0.683,1.005 0.123,2.925 -1.838,0.537 -2.664,0.96 -4.412,1.791 z"
         fill="#f1cb94"
         id="path1742" /><path
         d="m 116.361,275.287 c 1.337,0.043 0.911,0.141 2.062,-0.393 1.949,-3.044 1.524,-3.056 4.677,-2.122 -1.937,1.807 -2.016,2.308 -3.18,4.785 -1.878,0.234 -2.018,0.951 -3.63,1.045 l -1.13,-2.277 z"
         fill="#f2d3a5"
         id="path1743" /><path
         d="m 92.399,261.443 c 1.352,-2.198 0.7561,-2.021 2.6541,-2.636 2.412,0.923 2.6549,2.642 2.0349,5.043 -2.496,0.803 -3.659,-0.216 -4.689,-2.407 z"
         fill="#eec588"
         id="path1744" /><path
         d="m 264.809,280.887 c -0.923,-1.118 -0.728,-0.492 -0.592,-1.943 2.492,-1.991 4.533,-1.215 6.872,0.497 -2.775,1.522 -3.211,2.066 -6.28,1.446 z"
         fill="#f2d6af"
         id="path1745" /><path
         d="m 237.991,284.932 c -1.468,-1.303 -0.952,-0.49 -1.3,-2.693 0.766,-1.817 0.157,-1.172 1.802,-2.082 l 1.219,0.363 c 1.325,1.407 1.267,1.729 1.592,3.601 -1.191,0.251 -2.161,0.407 -3.313,0.811 z"
         fill="#f2d3a5"
         id="path1746" /><path
         d="m 106.752,266.637 c -0.569,-1.882 -0.924,-2.406 -0.248,-4.246 3.523,-3.221 8.074,0.794 9.94,4.05 -0.575,2.168 -0.885,2.914 -2.933,3.764 -3.126,-0.167 -4.41,-1.542 -6.759,-3.568 z"
         fill="#f2d6af"
         id="path1747" /><path
         d="m 106.752,266.637 c 3.226,-0.216 6.46,-0.281 9.692,-0.196 -0.575,2.168 -0.885,2.914 -2.933,3.764 -3.126,-0.167 -4.41,-1.542 -6.759,-3.568 z"
         fill="#f6dfc0"
         id="path1748" /><path
         d="m 267.18,266.883 c 3.369,-0.145 7.164,0.399 7.55,4.461 -0.834,1.754 -0.89,1.653 -2.513,2.577 -3.2,-0.365 -6.132,-0.595 -7.174,-4.064 0.571,-1.985 0.393,-1.367 2.137,-2.974 z"
         fill="#f2d3a5"
         id="path1749" /><path
         d="m 311.926,259.942 c 0.698,-2.835 1.089,-5.53 4.632,-4.969 1.726,1.531 1.761,2.886 1.778,5.033 -1.215,2.425 -1.894,3.843 -4.807,3.298 -1.341,-1.347 -1.217,-1.528 -1.603,-3.362 z"
         fill="#f2d3a5"
         id="path1750" /><path
         d="m 311.926,259.942 6.41,0.064 c -1.215,2.425 -1.894,3.843 -4.807,3.298 -1.341,-1.347 -1.217,-1.528 -1.603,-3.362 z"
         fill="#f2d6af"
         id="path1751" /><path
         d="m 143.036,275.437 c 0.859,-0.393 1.862,-0.291 2.625,0.265 0.763,0.556 1.167,1.481 1.056,2.419 -0.111,0.937 -0.72,1.742 -1.591,2.105 -1.317,0.548 -2.829,-0.061 -3.399,-1.368 -0.571,-1.306 0.012,-2.829 1.309,-3.421 z"
         fill="#f2d6af"
         id="path1752" /><path
         d="m 340.77,245.979 c 1.842,1.094 2.22,0.847 2.694,2.375 l -1.083,1.812 c -0.744,0.045 -1.248,-0.02 -1.992,-0.071 -0.717,-1.51 -0.153,-2.002 0.381,-4.116 z"
         fill="#f2d3a5"
         id="path1753" /><path
         d="m 131.648,308.438 c 2.396,-0.492 2.751,-0.363 5.126,0.306 1.118,1.268 1.712,1.269 3.341,1.714 1.698,1.419 4.209,0.888 6.712,1.601 4.05,0.389 6.915,1.577 9.079,-2.266 l 0.706,0.587 c 4.305,3.621 2.885,3.341 9.387,2.874 l 1.075,0.437 c 0.273,1.128 0.476,2.069 0.685,3.209 -11.748,-0.306 -20.47,-1.306 -31.874,-3.775 l 0.247,-1.306 c -0.857,-1.893 -2.394,-2.266 -4.484,-3.381 z"
         fill="#f6dfc0"
         id="path1754" /><path
         d="m 262.954,302.736 3.607,0.523 -0.127,0.684 c 0.815,0.43 1.297,0.675 2.15,1.054 l -8.739,1.987 -0.974,-3.183 c 1.28,-0.641 2.633,-0.773 4.083,-1.065 z"
         fill="#f2d6af"
         id="path1755" /></g><path
       style="fill:none;fill-opacity:1;stroke:#3e2514;stroke-width:4.5;stroke-linecap:round;stroke-linejoin:round;stroke-dasharray:none;stroke-opacity:1;paint-order:stroke fill markers"
       d="m 1029,-260.6212 c 0.3686,4.06174 4.3963,7.00667 9.0549,2.88078 1.6763,-1.4846 3.0765,9.02733 11.3579,1.17114"
       id="path1938" /><ellipse
       style="display:inline;fill:#f3bdb0;fill-opacity:1;stroke:none;stroke-width:5.54736;stroke-linecap:round;stroke-dasharray:none;stroke-opacity:1;filter:url(#filter993)"
       id="ellipse1934"
       cx="277.23422"
       cy="-205.08025"
       rx="6.5736952"
       ry="5.3719549"
       transform="matrix(-1.5539091,0.04252407,0.32310691,1.483791,1583.3479,43.355568)" /><ellipse
       style="display:inline;fill:#f3bdb0;fill-opacity:1;stroke:none;stroke-width:5.54736;stroke-linecap:round;stroke-dasharray:none;stroke-opacity:1;filter:url(#filter993)"
       id="ellipse1933"
       cx="277.23422"
       cy="-205.08025"
       rx="6.5736952"
       ry="5.3719549"
       transform="matrix(-1.5539091,0.04252407,0.32310691,1.483791,1495.896,31.885898)" /><ellipse
       style="display:inline;fill:#38210d;fill-opacity:1;stroke:none;stroke-width:4.56902;stroke-linecap:round;stroke-dasharray:none;stroke-opacity:1"
       id="ellipse1935"
       cx="-1029.8573"
       cy="-138.52722"
       rx="7.8330002"
       ry="10.058394"
       transform="matrix(-0.99123357,0.13212116,0.04915656,0.99879109,0,0)" /><ellipse
       style="display:inline;fill:#38210d;fill-opacity:1;stroke:none;stroke-width:4.28978;stroke-linecap:round;stroke-dasharray:none;stroke-opacity:1"
       id="ellipse1936"
       cx="-1087.709"
       cy="-102.22343"
       rx="6.9067035"
       ry="10.055642"
       transform="matrix(-0.98871016,0.14984067,0.04324501,0.9990645,0,0)" /><path
       style="display:inline;fill:none;fill-opacity:1;stroke:#3e2514;stroke-width:3.7;stroke-linecap:round;stroke-dasharray:none;stroke-opacity:1"
       d="m 1024.7117,-288.05959 c -3.9139,-3.29523 -7.8609,-5.74538 -10.6965,-10.07949"
       id="path1936" /><path
       style="display:inline;fill:none;fill-opacity:1;stroke:#3e2514;stroke-width:3.7;stroke-linecap:round;stroke-dasharray:none;stroke-opacity:1"
       d="m 1066.0157,-281.74709 c 2.9764,-0.35773 11.2984,-1.87038 15.134,-3.95449"
       id="path1937" /><g
       id="g1963"
       style="display:inline"><path
         id="rect1939"
         style="fill:#55514e;fill-opacity:1;stroke:#3e2514;stroke-width:2.05069;stroke-linecap:round;stroke-linejoin:round;paint-order:stroke fill markers"
         transform="matrix(0.93938204,0.34287226,-0.2304942,0.9730737,0,0)"
         d="m 1024.1231,-646.61648 c 3.3732,-2.87566 48.7893,-6.38985 49.5394,-4.14608 0.7982,2.3876 1.2055,76.5874 -1.4809,81.29334 -2.0064,3.51465 -49.3682,6.12902 -50.3375,4.29636 -0.5376,-1.01644 -0.9362,-78.70263 2.279,-81.44362 z" /><path
         style="fill:none;fill-opacity:1;stroke:#261a13;stroke-width:1.4;stroke-linecap:round;stroke-linejoin:round;stroke-miterlimit:4;stroke-dasharray:none;stroke-opacity:1;paint-order:stroke fill markers"
         d="m 1127.526,-270.82195 13.656,3.84489"
         id="path1955" /><circle
         style="fill:#52514f;fill-opacity:1;stroke:#261a13;stroke-width:0.815463;stroke-linecap:round;stroke-linejoin:round;stroke-miterlimit:4;stroke-dasharray:none;stroke-opacity:1;paint-order:stroke fill markers"
         id="path1956"
         cx="1115.903"
         cy="-198.24138"
         r="4.0929675" /><path
         id="rect1962"
         style="fill:#e1d993;stroke-width:2.5;stroke-linecap:round;stroke-linejoin:round;paint-order:stroke fill markers"
         d="m 1114.2277,-268.8995 c 12.665,1.87413 25.1064,5.27987 37.3241,10.21723 -3.4008,19.3913 -7.3205,38.7132 -13.9633,57.67075 -14.428,-2.02506 -27.828,-5.506 -40.1998,-10.44282 5.0969,-19.22392 9.2283,-38.58915 16.839,-57.44516 z" /><path
         id="rect1963"
         style="fill:#e6e2a5;stroke-width:2.5;stroke-linecap:round;stroke-linejoin:round;paint-order:stroke fill markers"
         d="m 1099.5762,-213.23372 19.4887,-8.29753 c 0.7967,15.52613 0.6836,12.30514 5.7295,18.4005 -9.2532,-2.08437 -18.4752,-4.35143 -27.4057,-8.32359 z" /><g
         id="g1962"><path
           style="fill:none;fill-opacity:1;stroke:#40250f;stroke-width:2.5;stroke-linecap:round;stroke-linejoin:round;stroke-miterlimit:4;stroke-dasharray:none;stroke-opacity:1;paint-order:stroke fill markers;filter:url(#filter1967)"
           d="m 1125.3992,-250.07163 c 0,0 0.7294,-1.70836 1.6014,-2.26369 1.1036,-0.7028 2.6042,-0.71943 3.8421,-0.2959 1.0546,0.36077 1.821,1.38626 2.2798,2.4021 0.4195,0.9288 0.1395,2.41725 -0.279,3.34627 -0.9594,2.1272 -2.8677,1.20579 -4.5216,2.85201 -0.6849,0.68181 -1.4709,2.71998 -1.4709,2.71998"
           id="path1957" /><circle
           style="fill:#40250f;fill-opacity:1;stroke:none;stroke-width:4.23611;stroke-linecap:round;stroke-linejoin:round;stroke-miterlimit:4;stroke-dasharray:none;stroke-opacity:1;paint-order:stroke fill markers;filter:url(#filter1970)"
           id="path1958"
           cx="1125.7812"
           cy="-237.09375"
           r="1.90625" /></g><ellipse
         style="fill:#e6e6d3;fill-opacity:1;stroke:none;stroke-width:2.86873;stroke-linecap:round;stroke-linejoin:round;stroke-miterlimit:4;stroke-dasharray:none;stroke-opacity:1;paint-order:stroke fill markers;filter:url(#filter1961)"
         id="path1959"
         cx="867.20074"
         cy="-728.84241"
         rx="1.767767"
         ry="1.9901789"
         transform="rotate(28.133354)" /><path
         id="rect1961"
         style="fill:#f8f8f1;stroke-width:2.5;stroke-linecap:round;stroke-linejoin:round;paint-order:stroke fill markers"
         d="m 1108.4108,-251.14017 2.9915,-9.67233 26.1862,59.80098 -7.8113,-1.15603 z" /><path
         id="rect1961-4"
         style="fill:#f8f8f1;stroke-width:2.5;stroke-linecap:round;stroke-linejoin:round;paint-order:stroke fill markers"
         d="m 1134.354,-264.4375 6.2744,1.75 7.6881,21.92013 -2.2272,9.67898 z" /><path
         id="path1961"
         style="fill:#f8f8f1;stroke-width:2.5;stroke-linecap:round;stroke-linejoin:round;paint-order:stroke fill markers"
         d="m 1097.3887,-211.45434 2.4619,-9.2868 47.9985,-18.56161 -2.2661,7.10054 z" /><path
         id="path1962"
         style="fill:none;stroke:#3e2514;stroke-width:1.74662;stroke-linecap:round;stroke-linejoin:round;paint-order:stroke fill markers"
         d="m 1114.2277,-268.8995 c 2.9732,-1.17543 37.1355,8.9925 37.3241,10.21723 0.32,2.07826 -11.0736,56.00098 -13.9633,57.67075 -2.3851,1.37819 -40.4483,-9.06315 -40.1998,-10.44282 0.1439,-0.79871 14.0973,-56.36123 16.839,-57.44516 z" /></g><g
       id="g1584"
       transform="matrix(-0.95811119,-0.28639646,-0.28639646,0.95811119,1193.5796,58.699647)"
       style="display:inline"><path
         style="fill:none;fill-opacity:1;stroke:#3e2514;stroke-width:5;stroke-linecap:round;stroke-dasharray:none;stroke-opacity:1"
         d="m 211.98318,-149.97477 c -3.20063,10.79658 -7.27945,17.46564 -11.54584,23.25315"
         id="path1583" /><path
         id="path1584"
         style="fill:#3e2514;stroke-width:4.61898;stroke-linecap:round"
         d="m 214.11474,-122.4852 c -0.84388,1.7111 -5.0986,2.0867 -9.50317,0.83893 -4.40456,-1.24778 -7.29107,-3.64642 -6.44717,-5.35751 0.8439,-1.71109 6.39045,-2.65187 10.79501,-1.4041 4.40456,1.24778 5.9992,4.21159 5.15533,5.92268 z" /></g><g
       id="g1586"
       transform="matrix(-0.98960337,0.14382334,0.14382334,0.98960337,1338.4319,-19.270147)"
       style="display:inline"><path
         style="fill:none;fill-opacity:1;stroke:#3e2514;stroke-width:5;stroke-linecap:round;stroke-dasharray:none;stroke-opacity:1"
         d="m 211.98318,-149.97477 c -3.20063,10.79658 -7.27945,17.46564 -11.54584,23.25315"
         id="path1585" /><path
         id="path1586"
         style="fill:#3e2514;stroke-width:4.61898;stroke-linecap:round"
         d="m 214.11474,-122.4852 c -0.84388,1.7111 -5.0986,2.0867 -9.50317,0.83893 -4.40456,-1.24778 -7.29107,-3.64642 -6.44717,-5.35751 0.8439,-1.71109 6.39045,-2.65187 10.79501,-1.4041 4.40456,1.24778 5.9992,4.21159 5.15533,5.92268 z" /></g><g
       id="g1587"
       style="display:inline"
       transform="matrix(-1,0,0,1,1378.0939,-13.37866)"><path
         style="fill:none;stroke:#3e2514;stroke-width:5;stroke-linecap:round;stroke-dasharray:none;stroke-opacity:1"
         d="m 208.88733,-211.3649 c 20.51487,14.30503 24.03755,13.05912 31.14837,14.45719"
         id="path1587" /><circle
         style="fill:#3e2514;fill-opacity:1;stroke:#3e2514;stroke-width:4;stroke-linecap:round;stroke-dasharray:none;stroke-opacity:1"
         id="circle1587"
         cx="241.11018"
         cy="-198.07568"
         r="7.2867956" /></g><g
       id="g1588"
       style="display:inline"
       transform="matrix(-0.66895859,-0.74329967,-0.74329967,0.66895859,940.27724,63.72002)"><path
         style="fill:none;stroke:#3e2514;stroke-width:5;stroke-linecap:round;stroke-dasharray:none;stroke-opacity:1"
         d="m 208.88733,-211.3649 c 11.12004,7.30149 14.98856,8.00368 21.42503,9.533"
         id="path1588" /><path
         id="circle1588"
         style="fill:#3e2514;stroke:#3e2514;stroke-width:4;stroke-linecap:round"
         d="m 236.11744,-205.48372 c -1.08906,1.92114 -0.4062,2.10187 4.43779,4.94774 2.97746,1.74928 7.91873,5.86386 1.95418,8.51943 -3.17307,1.41273 -9.81448,-2.96364 -11.11824,-4.18879 -1.41446,-1.32917 -3.57098,-4.09727 -3.43845,-6.18721 0.22666,-3.57435 5.47454,-7.89007 9.79321,-8.53176 3.24917,-0.48277 -0.75477,3.89932 -1.62849,5.44059 z" /></g><g
       id="g1986"
       style="display:inline"><path
         id="rect1973"
         style="fill:#e0d1bc;stroke-width:0;stroke-linecap:round;stroke-linejoin:round;paint-order:stroke fill markers"
         d="m 1029.1388,-336.47537 11.8694,-4.8353 125.1604,35.31067 16.1886,16.56799 c -58.712,-13.09768 -101.8532,-27.73313 -153.2184,-47.04336 z" /><path
         style="fill:none;fill-opacity:1;stroke:#e0c8ac;stroke-width:5.5;stroke-linecap:round;stroke-linejoin:round;stroke-miterlimit:4;stroke-dasharray:none;stroke-opacity:1;paint-order:stroke fill markers;filter:url(#filter1985)"
         d="m 1054.1194,-333.97537 c -8.6028,5.64174 -10.4818,8.97964 -14.0979,13.83278"
         id="path1970" /><path
         style="baseline-shift:baseline;display:inline;overflow:visible;opacity:1;vector-effect:none;fill:#d6b893;stroke-linecap:round;stroke-linejoin:round;paint-order:stroke fill markers;enable-background:accumulate;stop-color:#000000;stop-opacity:1"
         d="m 1051.1641,-335.51556 -5.7596,5.09336 5.3782,1.96903 6.34,-5.09612 c 0.3975,-1.47151 -4.3901,-3.21513 -5.9586,-1.96627 z"
         id="path1985" /><path
         style="fill:none;fill-opacity:1;stroke:#e0c8ac;stroke-width:5.5;stroke-linecap:round;stroke-linejoin:round;stroke-miterlimit:4;stroke-dasharray:none;stroke-opacity:1;paint-order:stroke fill markers;filter:url(#filter1982)"
         d="m 1072.1085,-328.33028 c -5.1847,8.8857 -5.6283,16.37392 -6.7011,22.33028"
         id="path1971" /><path
         style="baseline-shift:baseline;display:inline;overflow:visible;opacity:1;vector-effect:none;fill:#d6b893;stroke-linecap:round;stroke-linejoin:round;paint-order:stroke fill markers;enable-background:accumulate;stop-color:#000000;stop-opacity:1"
         d="m 1070.2179,-329.91145 c -1.3256,2.36773 -2.441,4.76172 -3.5346,7.15844 l 4.6641,1.63254 c 1.0909,-2.44454 2.2111,-4.85376 3.448,-7.12302 0.3975,-1.47151 -3.009,-2.91682 -4.5775,-1.66796 z"
         id="path1986" /><path
         style="fill:none;fill-opacity:1;stroke:#d4b38c;stroke-width:4.883;stroke-linecap:round;stroke-linejoin:round;stroke-miterlimit:4;stroke-dasharray:none;stroke-opacity:1;paint-order:stroke fill markers;filter:url(#filter1979)"
         d="m 1095.6202,-324.63482 c 1.0295,4.43907 1.7054,7.58178 2.0278,9.42813"
         id="path1972" /><path
         style="fill:none;fill-opacity:1;stroke:#cfa576;stroke-width:2.783;stroke-linecap:round;stroke-linejoin:round;stroke-miterlimit:4;stroke-dasharray:none;stroke-opacity:1;paint-order:stroke fill markers;filter:url(#filter1976)"
         d="m 1121.6367,-317.16514 c 2.1264,4.24989 3.5411,4.24989 5.1893,6.23127"
         id="path1973" /><path
         id="path1974"
         style="display:inline;fill:#e0d1bc;fill-opacity:0.223724;stroke-width:0;stroke-linecap:round;stroke-linejoin:round;paint-order:stroke fill markers"
         d="m 1029.1388,-336.47537 11.8694,-4.8353 125.1604,35.31067 16.1886,16.56799 c -58.712,-13.09768 -101.8532,-27.73313 -153.2184,-47.04336 z" /></g><g
       id="g1997"><path
         id="path1987"
         style="fill:#824f26;stroke:#392517;stroke-width:5.5;stroke-linecap:round;stroke-linejoin:round;stroke-opacity:1;paint-order:stroke fill markers"
         d="m 1041.0082,-341.31067 -15.068,5.26036 c 0.465,0.24452 -14.5099,-9.62938 -20.3727,-20.03507 z" /><path
         id="path1988"
         style="fill:#824f26;stroke:#392517;stroke-width:5.5;stroke-linecap:round;stroke-linejoin:round;stroke-opacity:1;paint-order:stroke fill markers"
         d="m 1168.1366,-306 12.4292,12.78952 c -0.465,0.24452 13.3787,-1.08758 30.554,-3.80577 z" /></g><path
       id="path1933"
       style="display:inline;fill:none;stroke:#3e2514;stroke-width:5.508;stroke-linecap:round;stroke-dasharray:none;stroke-opacity:1"
       d="m 961.15173,-250.1184 c -6.78603,42.74781 -1.04248,80.85684 72.63257,101.02135 22.4555,6.14596 62.7257,9.93276 87.8758,8.77449 50.2829,-2.31573 81.8139,-34.52666 84.0165,-67.46381 3.362,-50.27587 -19.1468,-81.38382 -39.508,-98.21363 -43.4519,-10.76825 -86.5739,-22.5384 -125.1604,-35.31067 -28.687,7.30482 -72.19594,42.93569 -79.85647,91.19227 z" /><g
       id="g1998"><path
         id="rect1988"
         style="display:inline;fill:#7e4b25;stroke-width:5.5;stroke-linecap:round;stroke-linejoin:round;paint-order:stroke fill markers"
         d="m 1141.8428,-326.44513 32.1614,5.25 c 16.5034,7.95108 28.0901,15.73549 34.7602,23.35324 -29.5579,-6.09813 -59.2349,-11.87148 -88.2572,-19.42933 6.5321,-2.59594 16.1369,-4.20749 21.3356,-9.17391 z" /><path
         id="rect1994"
         style="display:inline;fill:#a57348;stroke-width:5.5;stroke-linecap:round;stroke-linejoin:round;paint-order:stroke fill markers"
         d="m 1059.2303,-352.49273 c 25.2963,9.60718 51.3455,17.40454 82.6125,26.0476 -1.5144,6.04531 -12.5188,7.86005 -20.899,9.275 -42.7619,-9.88885 -73.2608,-20.72318 -105.0423,-34.60715 13.5716,0.71399 25.5406,2.49554 43.3288,-0.71545 z" /><path
         id="rect1995"
         style="display:inline;fill:#d9b492;stroke-width:5.5;stroke-linecap:round;stroke-linejoin:round;paint-order:stroke fill markers"
         d="m 1052.4375,-357.1875 7.6053,4.69477 c -10.1231,3.32371 -26.594,2.02007 -39.4187,2.24578 l -15.6866,-6.56555 c 16.0879,-0.95238 32.0713,-1.56517 47.5,-0.375 z" /><path
         id="rect1989"
         style="display:inline;fill:#2e2826;stroke-width:5.5;stroke-linecap:round;stroke-linejoin:round;paint-order:stroke fill markers"
         d="m 1149.5397,-342.60606 25.6489,4.97948 -2.2513,14.66233 -45.4425,-9.125 c 8.073,-1.57294 12.2965,-2.46407 22.0449,-10.51681 z" /><path
         id="rect1996"
         style="display:inline;fill:#373634;stroke-width:5.5;stroke-linecap:round;stroke-linejoin:round;paint-order:stroke fill markers"
         d="m 1059.2303,-369.24565 91.7357,25.68015 c -3.9104,6.41746 -11.0788,10.26239 -19.283,12.31725 -26.9072,-5.87282 -52.0397,-12.15592 -78.847,-26.36649 z" /><path
         id="rect1993"
         style="display:inline;fill:#9b6840;fill-opacity:1;stroke-width:5.5;stroke-linecap:round;stroke-linejoin:round;paint-order:stroke fill markers"
         d="m 1108.625,-404.71875 c 10.9391,12.15417 27.4858,12.83712 44.5991,12.04832 15.9139,37.78283 5.6163,39.65146 -4.9498,47.37616 l -80.7167,-23.95138 c 7.21,-13.68623 6.6188,-33.15879 41.0674,-35.4731 z" /><path
         id="rect1990"
         style="display:inline;fill:#7c4721;fill-opacity:1;stroke-width:5.5;stroke-linecap:round;stroke-linejoin:round;paint-order:stroke fill markers"
         d="m 1153.2241,-392.67043 c 8.3309,2.92347 17.426,2.62666 22.6275,18.73833 l 2.0979,17.57527 -2.6404,17.29891 -27.0348,-6.23635 c 11.4316,-11.07801 13.0815,-26.87007 4.9498,-47.37616 z" /><ellipse
         style="display:inline;fill:#7c4721;fill-opacity:1;stroke:none;stroke-width:6.33551;stroke-linecap:round;stroke-linejoin:round;stroke-miterlimit:4;stroke-dasharray:none;stroke-opacity:1;paint-order:stroke fill markers"
         id="path1990"
         cx="1151.851"
         cy="-373.73944"
         rx="9.4164515"
         ry="9.9329662" /><path
         id="rect1991"
         style="display:inline;fill:#844f25;stroke-width:5.5;stroke-linecap:round;stroke-linejoin:round;paint-order:stroke fill markers"
         d="m 1108.625,-404.71875 c 8.4734,6.8459 17.6643,12.28956 29.7725,12.03125 0.1995,0.58618 -17.0854,5.8284 -23.3751,2.375 -4.0853,-2.24311 -6.3974,-14.40625 -6.3974,-14.40625 z" /><path
         id="rect1992"
         style="display:inline;fill:#d09e79;stroke-width:5.5;stroke-linecap:round;stroke-linejoin:round;paint-order:stroke fill markers"
         d="m 1088.9469,-407.92462 c 7.6515,-2.22132 23.4678,2.82203 19.7233,3.43338 -22.1608,0.86754 -32.0969,15.14026 -40.4939,35.24559 l -7.8672,-2.2981 c 0,-0.1068 14.1958,-32.18816 28.6378,-36.38087 z" /><path
         style="display:inline;fill:none;fill-opacity:1;stroke:#392517;stroke-width:4.3;stroke-linecap:round;stroke-linejoin:round;stroke-miterlimit:4;stroke-dasharray:none;stroke-opacity:1;paint-order:stroke fill markers"
         d="m 1060.4998,-369.79486 c 38.6609,10.34199 74.4309,23.35009 115.477,30.85966"
         id="path1996" /><path
         style="fill:none;fill-opacity:1;stroke:#392517;stroke-width:4.3;stroke-linecap:round;stroke-linejoin:round;stroke-miterlimit:4;stroke-dasharray:none;stroke-opacity:1;paint-order:stroke fill markers"
         d="m 1174.3276,-321.12047 c -42.7767,-8.16388 -84.9429,-17.53775 -122.6648,-36.44329 0,0 -49.5437,-0.46937 -46.6376,1.17652 60.3045,34.15418 211.0389,62.80449 206.683,59.04144 -10.4891,-9.06144 -23.9094,-16.73438 -37.3806,-23.77467 0,0 5.4383,-30.28789 2.9991,-46.48667 -1.5307,-10.16474 -3.6195,-17.0866 -12.545,-22.18547 -9.9335,-5.67465 -25.6233,-2.48113 -37.9557,-3.88909 -6.6393,-0.75799 -22.388,-20.31475 -37.7499,-14.05375 -17.831,7.26731 -37.6388,50.17169 -37.4133,50.17169 v 0"
         id="path1997" /></g></g></svg>
